<svg xmlns="http://www.w3.org/2000/svg" width="800" zoomAndPan="magnify"
     viewBox="0 0 600 599.999999" height="800" preserveAspectRatio="xMidYMid meet" version="1.0">
    <defs>
        <g/>
        <clipPath id="a1c287b685">
            <rect x="0" width="90" y="0" height="36"/>
        </clipPath>
        <clipPath id="941d873681">
            <path d="M 46.097656 74 L 553.847656 74 L 553.847656 542.773438 L 46.097656 542.773438 Z M 46.097656 74 "
                  clip-rule="nonzero"/>
        </clipPath>
        <clipPath id="073de34999">
            <path d="M 46.097656 57.523438 L 553.847656 57.523438 L 553.847656 526 L 46.097656 526 Z M 46.097656 57.523438 "
                  clip-rule="nonzero"/>
        </clipPath>
    </defs>
    <g transform="matrix(1, 0, 0, 1, 418, 362)">
        <g clip-path="url(#a1c287b685)">
            <g fill="#000000" fill-opacity="1">
                <g transform="translate(0.920568, 27.799764)">
                    <g>
                        <path d="M 14.15625 -10.671875 L 14.15625 -17.953125 L 16.265625 -17.953125 L 16.265625 0 L 14.15625 0 L 14.15625 -8.875 L 4.828125 -8.875 L 4.828125 0 L 2.71875 0 L 2.71875 -17.953125 L 4.828125 -17.953125 L 4.828125 -10.671875 Z M 14.15625 -10.671875 "/>
                    </g>
                </g>
                <g transform="translate(19.914046, 27.799764)">
                    <g>
                        <path d="M 3.359375 -16.171875 C 2.941406 -16.171875 2.597656 -16.300781 2.328125 -16.5625 C 2.054688 -16.832031 1.921875 -17.171875 1.921875 -17.578125 C 1.921875 -17.984375 2.054688 -18.316406 2.328125 -18.578125 C 2.597656 -18.847656 2.941406 -18.984375 3.359375 -18.984375 C 3.785156 -18.984375 4.128906 -18.847656 4.390625 -18.578125 C 4.660156 -18.316406 4.796875 -17.984375 4.796875 -17.578125 C 4.796875 -17.171875 4.660156 -16.832031 4.390625 -16.5625 C 4.128906 -16.300781 3.785156 -16.171875 3.359375 -16.171875 Z M 2.359375 0 L 2.359375 -13.546875 L 4.359375 -13.546875 L 4.359375 0 Z M 2.359375 0 "/>
                    </g>
                </g>
                <g transform="translate(26.634248, 27.799764)">
                    <g>
                        <path d="M 7.03125 0.265625 C 5.9375 0.265625 4.972656 0.00390625 4.140625 -0.515625 C 3.316406 -1.035156 2.664062 -1.820312 2.1875 -2.875 C 1.71875 -3.925781 1.484375 -5.222656 1.484375 -6.765625 C 1.484375 -8.316406 1.726562 -9.617188 2.21875 -10.671875 C 2.707031 -11.722656 3.382812 -12.507812 4.25 -13.03125 C 5.113281 -13.550781 6.117188 -13.8125 7.265625 -13.8125 C 8.160156 -13.8125 8.96875 -13.640625 9.6875 -13.296875 C 10.40625 -12.953125 11.023438 -12.394531 11.546875 -11.625 L 11.796875 -11.671875 L 11.796875 -18.984375 L 13.8125 -18.984375 L 13.8125 0 L 11.796875 0 L 11.796875 -1.984375 L 11.546875 -2.03125 C 11.109375 -1.351562 10.507812 -0.800781 9.75 -0.375 C 8.988281 0.0507812 8.082031 0.265625 7.03125 0.265625 Z M 7.65625 -1.53125 C 8.914062 -1.53125 9.921875 -1.960938 10.671875 -2.828125 C 11.421875 -3.691406 11.796875 -5.003906 11.796875 -6.765625 C 11.796875 -8.535156 11.421875 -9.851562 10.671875 -10.71875 C 9.921875 -11.582031 8.914062 -12.015625 7.65625 -12.015625 C 6.351562 -12.015625 5.347656 -11.59375 4.640625 -10.75 C 3.941406 -9.90625 3.59375 -8.578125 3.59375 -6.765625 C 3.59375 -3.273438 4.945312 -1.53125 7.65625 -1.53125 Z M 7.65625 -1.53125 "/>
                    </g>
                </g>
                <g transform="translate(42.814333, 27.799764)">
                    <g>
                        <path d="M 7.03125 0.265625 C 5.9375 0.265625 4.972656 0.00390625 4.140625 -0.515625 C 3.316406 -1.035156 2.664062 -1.820312 2.1875 -2.875 C 1.71875 -3.925781 1.484375 -5.222656 1.484375 -6.765625 C 1.484375 -8.316406 1.726562 -9.617188 2.21875 -10.671875 C 2.707031 -11.722656 3.382812 -12.507812 4.25 -13.03125 C 5.113281 -13.550781 6.117188 -13.8125 7.265625 -13.8125 C 8.160156 -13.8125 8.96875 -13.640625 9.6875 -13.296875 C 10.40625 -12.953125 11.023438 -12.394531 11.546875 -11.625 L 11.796875 -11.671875 L 11.796875 -18.984375 L 13.8125 -18.984375 L 13.8125 0 L 11.796875 0 L 11.796875 -1.984375 L 11.546875 -2.03125 C 11.109375 -1.351562 10.507812 -0.800781 9.75 -0.375 C 8.988281 0.0507812 8.082031 0.265625 7.03125 0.265625 Z M 7.65625 -1.53125 C 8.914062 -1.53125 9.921875 -1.960938 10.671875 -2.828125 C 11.421875 -3.691406 11.796875 -5.003906 11.796875 -6.765625 C 11.796875 -8.535156 11.421875 -9.851562 10.671875 -10.71875 C 9.921875 -11.582031 8.914062 -12.015625 7.65625 -12.015625 C 6.351562 -12.015625 5.347656 -11.59375 4.640625 -10.75 C 3.941406 -9.90625 3.59375 -8.578125 3.59375 -6.765625 C 3.59375 -3.273438 4.945312 -1.53125 7.65625 -1.53125 Z M 7.65625 -1.53125 "/>
                    </g>
                </g>
                <g transform="translate(58.994417, 27.799764)">
                    <g>
                        <path d="M 12.90625 -6.3125 L 3.59375 -6.3125 C 3.65625 -4.664062 4.050781 -3.457031 4.78125 -2.6875 C 5.519531 -1.914062 6.523438 -1.53125 7.796875 -1.53125 C 8.765625 -1.53125 9.539062 -1.703125 10.125 -2.046875 C 10.71875 -2.390625 11.179688 -2.929688 11.515625 -3.671875 L 11.78125 -3.671875 L 13.078125 -2.90625 C 12.679688 -1.914062 12.050781 -1.140625 11.1875 -0.578125 C 10.332031 -0.015625 9.203125 0.265625 7.796875 0.265625 C 6.484375 0.265625 5.359375 0.00390625 4.421875 -0.515625 C 3.484375 -1.035156 2.757812 -1.816406 2.25 -2.859375 C 1.738281 -3.910156 1.484375 -5.210938 1.484375 -6.765625 C 1.484375 -8.304688 1.75 -9.601562 2.28125 -10.65625 C 2.820312 -11.71875 3.554688 -12.507812 4.484375 -13.03125 C 5.421875 -13.550781 6.484375 -13.8125 7.671875 -13.8125 C 9.410156 -13.8125 10.765625 -13.320312 11.734375 -12.34375 C 12.710938 -11.363281 13.207031 -9.910156 13.21875 -7.984375 C 13.21875 -7.234375 13.203125 -6.726562 13.171875 -6.46875 Z M 11.234375 -7.984375 C 11.203125 -9.421875 10.882812 -10.46875 10.28125 -11.125 C 9.675781 -11.78125 8.804688 -12.109375 7.671875 -12.109375 C 6.484375 -12.109375 5.550781 -11.78125 4.875 -11.125 C 4.207031 -10.46875 3.796875 -9.421875 3.640625 -7.984375 Z M 11.234375 -7.984375 "/>
                    </g>
                </g>
                <g transform="translate(73.442238, 27.799764)">
                    <g>
                        <path d="M 2.359375 0 L 2.359375 -13.546875 L 4.265625 -13.546875 L 4.265625 -11.421875 L 4.515625 -11.359375 C 4.972656 -12.148438 5.550781 -12.753906 6.25 -13.171875 C 6.945312 -13.597656 7.800781 -13.8125 8.8125 -13.8125 C 10.4375 -13.8125 11.613281 -13.394531 12.34375 -12.5625 C 13.082031 -11.726562 13.453125 -10.445312 13.453125 -8.71875 L 13.453125 0 L 11.453125 0 L 11.453125 -8.671875 C 11.453125 -9.492188 11.347656 -10.148438 11.140625 -10.640625 C 10.929688 -11.140625 10.601562 -11.5 10.15625 -11.71875 C 9.71875 -11.945312 9.144531 -12.0625 8.4375 -12.0625 C 7.21875 -12.0625 6.234375 -11.65625 5.484375 -10.84375 C 4.734375 -10.039062 4.359375 -8.742188 4.359375 -6.953125 L 4.359375 0 Z M 2.359375 0 "/>
                    </g>
                </g>
            </g>
        </g>
    </g>
    <g clip-path="url(#941d873681)">
        <path fill="#efefef"
              d="M 541.503906 338.027344 C 537.230469 327.972656 530.777344 320.417969 523.160156 314.664062 C 537.367188 300.144531 546.191406 280.332031 546.191406 258.460938 C 546.191406 214.082031 510.09375 177.984375 465.714844 177.984375 C 453.828125 177.984375 442.632812 180.734375 432.46875 185.382812 C 432.882812 182.050781 433.109375 178.667969 433.109375 175.238281 C 433.109375 118.949219 375.910156 74.855469 302.890625 74.855469 C 229.886719 74.855469 172.6875 118.949219 172.6875 175.238281 C 172.6875 179.859375 173.207031 184.394531 173.972656 188.882812 C 162.210938 182.144531 148.78125 177.984375 134.28125 177.984375 C 89.898438 177.984375 53.804688 214.082031 53.804688 258.460938 C 53.804688 280.273438 62.589844 300.015625 76.71875 314.53125 C 69.210938 320.265625 62.804688 327.871094 58.476562 338.042969 C 45.992188 367.429688 45.570312 423.175781 46.332031 492.976562 L 46.484375 508.308594 C 46.617188 527.4375 61.445312 542.433594 80.25 542.433594 L 170.226562 542.433594 C 187.867188 542.433594 201.414062 530.507812 203.910156 512.84375 C 204.347656 509.859375 206.792969 480.425781 208.261719 452.863281 C 220.035156 455.949219 233.226562 454.632812 244.375 448.984375 L 286.050781 427.714844 C 284.734375 436.300781 285.429688 445.105469 288.601562 453.453125 C 298.234375 478.789062 328.109375 492.738281 354.234375 482.921875 L 392.644531 468.3125 C 394.027344 490.359375 395.695312 510.246094 396.066406 512.777344 C 398.582031 530.507812 412.144531 542.429688 429.785156 542.429688 L 519.742188 542.429688 C 538.550781 542.429688 553.378906 527.4375 553.511719 508.339844 L 553.664062 492.855469 C 554.421875 423.089844 554 367.410156 541.519531 338.027344 C 541.503906 338.027344 541.503906 338.027344 541.503906 338.027344 Z M 541.503906 338.027344 "
              fill-opacity="1" fill-rule="nonzero"/>
    </g>
    <g clip-path="url(#073de34999)">
        <path fill="#ffffff"
              d="M 541.503906 320.753906 C 537.230469 310.703125 530.777344 303.144531 523.160156 297.394531 C 537.367188 282.871094 546.191406 263.058594 546.191406 241.191406 C 546.191406 196.808594 510.09375 160.714844 465.714844 160.714844 C 453.828125 160.714844 442.632812 163.464844 432.46875 168.109375 C 432.882812 164.777344 433.109375 161.398438 433.109375 157.964844 C 433.109375 101.675781 375.910156 57.582031 302.890625 57.582031 C 229.886719 57.582031 172.6875 101.675781 172.6875 157.964844 C 172.6875 162.585938 173.207031 167.125 173.972656 171.609375 C 162.210938 164.871094 148.78125 160.714844 134.28125 160.714844 C 89.898438 160.714844 53.804688 196.808594 53.804688 241.191406 C 53.804688 263 62.589844 282.742188 76.71875 297.257812 C 69.210938 302.992188 62.804688 310.601562 58.476562 320.773438 C 45.992188 350.15625 45.570312 405.902344 46.332031 475.703125 L 46.484375 491.035156 C 46.617188 510.164062 61.445312 525.160156 80.25 525.160156 L 170.226562 525.160156 C 187.867188 525.160156 201.414062 513.234375 203.910156 495.574219 C 204.347656 492.585938 206.792969 463.152344 208.261719 435.589844 C 220.035156 438.679688 233.226562 437.363281 244.375 431.710938 L 286.050781 410.441406 C 284.734375 419.027344 285.429688 427.832031 288.601562 436.179688 C 298.234375 461.515625 328.109375 475.464844 354.234375 465.648438 L 392.644531 451.042969 C 394.027344 473.089844 395.695312 492.976562 396.066406 495.503906 C 398.582031 513.234375 412.144531 525.160156 429.785156 525.160156 L 519.742188 525.160156 C 538.550781 525.160156 553.378906 510.164062 553.511719 491.070312 L 553.664062 475.585938 C 554.421875 405.820312 554 350.136719 541.519531 320.753906 C 541.503906 320.753906 541.503906 320.753906 541.503906 320.753906 Z M 541.503906 320.753906 "
              fill-opacity="1" fill-rule="nonzero"/>
    </g>
    <path fill="#000000"
          d="M 237.527344 215.949219 C 235.246094 222.726562 230.710938 231.460938 221.605469 242.046875 C 215.84375 248.742188 222.613281 258.660156 230.898438 255.589844 C 248.070312 249.222656 267.738281 240.242188 285.9375 231.363281 C 291.472656 232.007812 297.105469 232.429688 302.898438 232.429688 C 360.503906 232.429688 407.199219 199.089844 407.199219 157.964844 C 407.199219 116.835938 360.503906 83.5 302.898438 83.5 C 245.292969 83.5 198.597656 116.835938 198.597656 157.964844 C 198.597656 181.414062 213.8125 202.300781 237.527344 215.949219 Z M 354.503906 141.828125 C 363.417969 141.828125 370.636719 149.050781 370.636719 157.964844 C 370.636719 166.878906 363.417969 174.101562 354.503906 174.101562 C 345.59375 174.101562 338.367188 166.878906 338.367188 157.964844 C 338.367188 149.050781 345.59375 141.828125 354.503906 141.828125 Z M 302.898438 141.828125 C 311.8125 141.828125 319.035156 149.050781 319.035156 157.964844 C 319.035156 166.878906 311.8125 174.101562 302.898438 174.101562 C 293.984375 174.101562 286.761719 166.878906 286.761719 157.964844 C 286.761719 149.050781 293.984375 141.828125 302.898438 141.828125 Z M 251.292969 141.828125 C 260.207031 141.828125 267.429688 149.050781 267.429688 157.964844 C 267.429688 166.878906 260.207031 174.101562 251.292969 174.101562 C 242.378906 174.101562 235.15625 166.878906 235.15625 157.964844 C 235.15625 149.050781 242.378906 141.828125 251.292969 141.828125 Z M 251.292969 141.828125 "
          fill-opacity="1" fill-rule="nonzero"/>
    <path fill="#0b5ed7"
          d="M 517.667969 330.898438 C 505.832031 303.070312 463.253906 307.023438 446.765625 312.210938 C 439.445312 314.507812 434.613281 318.46875 429.707031 323.539062 C 424.800781 328.613281 380.347656 374.574219 380.347656 374.574219 L 327.277344 394.730469 C 314.386719 399.628906 307.90625 414.054688 312.800781 426.949219 C 316.597656 436.921875 326.082031 443.058594 336.15625 443.058594 C 339.101562 443.058594 342.101562 442.53125 345.019531 441.425781 L 403.289062 419.285156 C 406.722656 417.976562 409.820312 415.9375 412.371094 413.300781 L 416.613281 408.914062 C 417.179688 438.574219 421.355469 489.320312 421.722656 491.867188 C 422.347656 496.257812 424.316406 499.253906 429.777344 499.253906 C 435.246094 499.253906 508.171875 499.253906 519.746094 499.253906 C 524.496094 499.253906 527.566406 495.605469 527.605469 490.84375 C 528.054688 436.429688 530.175781 360.320312 517.667969 330.898438 Z M 517.667969 330.898438 "
          fill-opacity="1" fill-rule="nonzero"/>
    <path fill="#0b5ed7"
          d="M 465.714844 295.773438 C 495.855469 295.773438 520.285156 271.335938 520.285156 241.191406 C 520.285156 211.058594 495.855469 186.625 465.714844 186.625 C 435.574219 186.625 411.140625 211.058594 411.140625 241.191406 C 411.140625 271.335938 435.574219 295.773438 465.714844 295.773438 Z M 465.714844 295.773438 "
          fill-opacity="1" fill-rule="nonzero"/>
    <path fill="#0b5ed7"
          d="M 134.28125 295.773438 C 164.421875 295.773438 188.855469 271.335938 188.855469 241.191406 C 188.855469 211.058594 164.421875 186.625 134.28125 186.625 C 104.148438 186.625 79.714844 211.058594 79.714844 241.191406 C 79.714844 271.335938 104.148438 295.773438 134.28125 295.773438 Z M 134.28125 295.773438 "
          fill-opacity="1" fill-rule="nonzero"/>
    <path fill="#0b5ed7"
          d="M 303.316406 344.519531 C 297.046875 332.230469 282.003906 327.355469 269.71875 333.621094 L 223.035156 357.4375 C 223.035156 357.4375 197.195312 339.539062 188.855469 333.449219 C 183.605469 329.621094 168.234375 317.351562 153.234375 312.210938 C 136.878906 306.605469 94.164062 303.070312 82.332031 330.898438 C 69.820312 360.320312 71.941406 436.429688 72.390625 490.84375 C 72.429688 495.601562 75.503906 499.25 80.253906 499.25 C 91.832031 499.25 164.753906 499.25 170.21875 499.25 C 175.6875 499.25 177.652344 496.257812 178.277344 491.867188 C 178.679688 489.058594 183.742188 427.457031 183.449219 400.386719 C 183.421875 397.503906 183.460938 394.316406 183.507812 390.992188 L 207.242188 407.0625 C 211.453125 409.914062 216.339844 411.359375 221.246094 411.359375 C 225.125 411.359375 229.015625 410.457031 232.597656 408.632812 L 292.414062 378.113281 C 304.699219 371.847656 309.582031 356.804688 303.316406 344.519531 Z M 303.316406 344.519531 "
          fill-opacity="1" fill-rule="nonzero"/>
</svg>