<svg xmlns="http://www.w3.org/2000/svg" xmlns:xlink="http://www.w3.org/1999/xlink" width="144" zoomAndPan="magnify" viewBox="0 0 108 107.999999" height="144" preserveAspectRatio="xMidYMid meet" version="1.0"><defs><clipPath id="399dac980f"><path d="M 39.464844 55 L 68.714844 55 L 68.714844 79.128906 L 39.464844 79.128906 Z M 39.464844 55 " clip-rule="nonzero"/></clipPath><clipPath id="40eb726384"><path d="M 39.464844 28.878906 L 68.714844 28.878906 L 68.714844 53 L 39.464844 53 Z M 39.464844 28.878906 " clip-rule="nonzero"/></clipPath><clipPath id="d530a9084e"><path d="M 39.464844 42 L 68.714844 42 L 68.714844 66 L 39.464844 66 Z M 39.464844 42 " clip-rule="nonzero"/></clipPath></defs><g clip-path="url(#399dac980f)"><path fill="#8bffe5" d="M 39.464844 79.097656 L 68.527344 65.886719 L 68.527344 55.320312 L 39.464844 68.53125 Z M 39.464844 79.097656 " fill-opacity="1" fill-rule="evenodd"/><path fill="#00bc91" d="M 39.464844 68.53125 L 68.527344 55.320312 L 68.527344 60.605469 L 44.273438 71.628906 C 41.34375 72.960938 39.464844 75.878906 39.464844 79.097656 Z M 39.464844 68.53125 " fill-opacity="1" fill-rule="evenodd"/></g><g clip-path="url(#40eb726384)"><path fill="#8bffe5" d="M 39.464844 52.675781 L 68.527344 39.46875 L 68.527344 28.898438 L 39.464844 42.109375 Z M 39.464844 52.675781 " fill-opacity="1" fill-rule="evenodd"/><path fill="#00bc91" d="M 68.527344 39.46875 L 39.464844 52.675781 L 39.464844 47.394531 L 63.714844 36.371094 C 66.644531 35.039062 68.527344 32.117188 68.527344 28.898438 Z M 68.527344 39.46875 " fill-opacity="1" fill-rule="evenodd"/></g><g clip-path="url(#d530a9084e)"><path fill="#00e9b4" d="M 68.527344 65.886719 L 39.464844 52.675781 L 39.464844 42.109375 L 68.527344 55.320312 Z M 68.527344 65.886719 " fill-opacity="1" fill-rule="evenodd"/></g></svg>