<svg xmlns="http://www.w3.org/2000/svg" xmlns:xlink="http://www.w3.org/1999/xlink" width="96" zoomAndPan="magnify" viewBox="0 0 72 36.000001" height="48" preserveAspectRatio="xMidYMid meet" version="1.0"><path fill="#b52e31" d="M 25.472656 20.742188 L 25.472656 14.488281 L 26.285156 14.488281 L 30.160156 19.523438 L 30.160156 14.488281 L 30.933594 14.488281 L 30.933594 20.742188 L 30.117188 20.742188 L 26.242188 15.65625 L 26.242188 20.742188 L 25.46875 20.742188 Z M 37.238281 20.492188 C 36.707031 20.6875 36.15625 20.785156 35.589844 20.78125 C 33.296875 20.78125 32.152344 19.699219 32.152344 17.523438 C 32.152344 15.46875 33.257812 14.4375 35.476562 14.4375 C 36.109375 14.4375 36.703125 14.523438 37.246094 14.695312 L 37.246094 15.390625 C 36.703125 15.183594 36.136719 15.082031 35.566406 15.082031 C 33.835938 15.082031 32.96875 15.898438 32.96875 17.503906 C 32.96875 19.242188 33.824219 20.105469 35.523438 20.105469 C 35.796875 20.105469 36.097656 20.066406 36.429688 19.996094 L 36.429688 17.902344 L 37.246094 17.902344 L 37.246094 20.492188 Z M 38.546875 18.328125 L 38.546875 14.484375 L 39.363281 14.484375 L 39.363281 18.328125 C 39.363281 19.53125 39.972656 20.128906 41.1875 20.128906 C 42.394531 20.128906 43.015625 19.53125 43.015625 18.328125 L 43.015625 14.484375 L 43.828125 14.484375 L 43.828125 18.328125 C 43.828125 19.964844 42.953125 20.789062 41.191406 20.789062 C 39.433594 20.789062 38.558594 19.964844 38.558594 18.328125 Z M 46.089844 14.488281 L 46.089844 20.09375 L 49.414062 20.09375 L 49.414062 20.75 L 45.28125 20.75 L 45.28125 14.488281 L 46.097656 14.488281 Z M 50.585938 20.746094 L 49.734375 20.746094 L 52.878906 13.671875 L 56.027344 20.75 L 55.121094 20.75 L 54.308594 18.785156 L 52.214844 18.785156 L 52.4375 18.128906 L 54.035156 18.128906 L 52.847656 15.296875 L 50.585938 20.75 Z M 56.902344 20.746094 L 56.902344 14.488281 L 59.609375 14.488281 C 60.816406 14.488281 61.417969 14.984375 61.417969 15.988281 C 61.417969 16.804688 60.828125 17.410156 59.648438 17.792969 L 61.824219 20.738281 L 60.746094 20.738281 L 58.734375 17.929688 L 58.734375 17.414062 C 59.941406 17.226562 60.558594 16.769531 60.558594 16.035156 C 60.558594 15.457031 60.230469 15.167969 59.554688 15.167969 L 57.742188 15.167969 L 57.742188 20.742188 L 56.910156 20.742188 Z M 56.902344 20.746094 " fill-opacity="1" fill-rule="nonzero"/><path fill="#e23237" d="M 10.324219 12.820312 L 16.8125 10.539062 L 23.46875 12.78125 L 22.394531 21.253906 L 16.8125 24.300781 L 11.320312 21.296875 Z M 10.324219 12.820312 " fill-opacity="1" fill-rule="nonzero"/><path fill="#b52e31" d="M 23.46875 12.78125 L 16.8125 10.539062 L 16.8125 24.300781 L 22.394531 21.25 L 23.472656 12.78125 Z M 23.46875 12.78125 " fill-opacity="1" fill-rule="nonzero"/><path fill="#ffffff" d="M 16.824219 12.148438 L 12.777344 21.019531 L 14.289062 20.988281 L 15.101562 18.984375 L 18.714844 18.984375 L 19.601562 21.007812 L 21.039062 21.039062 L 16.828125 12.140625 Z M 16.832031 14.996094 L 18.199219 17.816406 L 15.632812 17.816406 Z M 16.832031 14.996094 " fill-opacity="1" fill-rule="nonzero"/></svg>