<svg xmlns="http://www.w3.org/2000/svg" xmlns:xlink="http://www.w3.org/1999/xlink" width="96" zoomAndPan="magnify" viewBox="0 0 72 36.000001" height="48" preserveAspectRatio="xMidYMid meet" version="1.0"><defs><clipPath id="3fae37e556"><path d="M 27 17 L 36 17 L 36 27.761719 L 27 27.761719 Z M 27 17 " clip-rule="nonzero"/></clipPath><clipPath id="a475e728a6"><path d="M 36 19 L 45 19 L 45 27.761719 L 36 27.761719 Z M 36 19 " clip-rule="nonzero"/></clipPath><clipPath id="ad8cc6a5d0"><path d="M 44 19 L 59 19 L 59 27.761719 L 44 27.761719 Z M 44 19 " clip-rule="nonzero"/></clipPath><clipPath id="6397292093"><path d="M 59 19 L 67 19 L 67 27.761719 L 59 27.761719 Z M 59 19 " clip-rule="nonzero"/></clipPath><clipPath id="9128ad0081"><path d="M 67 16 L 71.027344 16 L 71.027344 27.761719 L 67 27.761719 Z M 67 16 " clip-rule="nonzero"/></clipPath><clipPath id="0995528ca3"><path d="M 1 7.328125 L 21 7.328125 L 21 27.761719 L 1 27.761719 Z M 1 7.328125 " clip-rule="nonzero"/></clipPath><clipPath id="eb37ad9908"><path d="M 20.945312 17.542969 C 20.945312 18.1875 20.882812 18.824219 20.757812 19.457031 C 20.632812 20.089844 20.445312 20.703125 20.199219 21.296875 C 19.957031 21.894531 19.652344 22.457031 19.296875 22.992188 C 18.941406 23.527344 18.535156 24.023438 18.082031 24.480469 C 17.628906 24.933594 17.132812 25.34375 16.601562 25.699219 C 16.066406 26.058594 15.503906 26.359375 14.910156 26.605469 C 14.316406 26.851562 13.707031 27.039062 13.078125 27.164062 C 12.445312 27.289062 11.8125 27.351562 11.167969 27.351562 C 10.527344 27.351562 9.890625 27.289062 9.261719 27.164062 C 8.632812 27.039062 8.019531 26.851562 7.429688 26.605469 C 6.835938 26.359375 6.273438 26.058594 5.738281 25.699219 C 5.203125 25.34375 4.710938 24.933594 4.257812 24.480469 C 3.800781 24.023438 3.398438 23.527344 3.039062 22.992188 C 2.683594 22.457031 2.382812 21.894531 2.136719 21.296875 C 1.890625 20.703125 1.707031 20.089844 1.582031 19.457031 C 1.457031 18.824219 1.394531 18.1875 1.394531 17.542969 C 1.394531 16.898438 1.457031 16.261719 1.582031 15.628906 C 1.707031 15 1.890625 14.386719 2.136719 13.789062 C 2.382812 13.195312 2.683594 12.628906 3.039062 12.09375 C 3.398438 11.558594 3.800781 11.0625 4.257812 10.609375 C 4.710938 10.152344 5.203125 9.746094 5.738281 9.386719 C 6.273438 9.03125 6.835938 8.726562 7.429688 8.480469 C 8.019531 8.234375 8.632812 8.050781 9.261719 7.925781 C 9.890625 7.796875 10.527344 7.734375 11.167969 7.734375 C 11.8125 7.734375 12.445312 7.796875 13.078125 7.925781 C 13.707031 8.050781 14.316406 8.234375 14.910156 8.480469 C 15.503906 8.726562 16.066406 9.03125 16.601562 9.386719 C 17.132812 9.746094 17.628906 10.152344 18.082031 10.609375 C 18.535156 11.0625 18.941406 11.558594 19.296875 12.09375 C 19.652344 12.628906 19.957031 13.195312 20.199219 13.789062 C 20.445312 14.386719 20.632812 15 20.757812 15.628906 C 20.882812 16.261719 20.945312 16.898438 20.945312 17.542969 Z M 20.945312 17.542969 " clip-rule="nonzero"/></clipPath><clipPath id="4233404fb5"><path d="M 1 7.328125 L 22 7.328125 L 22 27.761719 L 1 27.761719 Z M 1 7.328125 " clip-rule="nonzero"/></clipPath><clipPath id="345fbcbfe5"><path d="M 7 13 L 22 13 L 22 27.761719 L 7 27.761719 Z M 7 13 " clip-rule="nonzero"/></clipPath><clipPath id="aef9eb3257"><path d="M 8.792969 13.363281 C 8.652344 13.363281 8.511719 13.363281 8.371094 13.367188 C 8.207031 13.371094 7.988281 13.425781 7.734375 13.511719 C 12.007812 16.761719 13.542969 22.632812 10.902344 27.734375 C 10.992188 27.734375 11.082031 27.742188 11.171875 27.742188 C 15.996094 27.742188 20.023438 24.371094 21.066406 19.847656 C 18.003906 16.25 13.855469 13.371094 8.792969 13.363281 Z M 8.792969 13.363281 " clip-rule="nonzero"/></clipPath><clipPath id="05ad6da8fb"><path d="M 1 13 L 13 13 L 13 27.761719 L 1 27.761719 Z M 1 13 " clip-rule="nonzero"/></clipPath><clipPath id="b64b3987cd"><path d="M 0.972656 11 L 20 11 L 20 27 L 0.972656 27 Z M 0.972656 11 " clip-rule="nonzero"/></clipPath></defs><g clip-path="url(#3fae37e556)"><path fill="#6c5d53" d="M 32.386719 17.890625 C 33.867188 17.890625 34.535156 18.71875 34.675781 19.667969 L 35.054688 19.667969 L 34.878906 17.472656 L 34.484375 17.472656 C 34.484375 17.683594 34.398438 17.820312 34.277344 17.820312 C 33.953125 17.820312 33.246094 17.300781 32.371094 17.300781 C 29.667969 17.300781 27.15625 19.320312 27.15625 22.667969 C 27.15625 25.292969 28.914062 27.742188 32.113281 27.742188 C 34.226562 27.742188 35.226562 26.535156 35.65625 25.5 L 35.242188 25.292969 C 34.933594 26.136719 33.660156 27.15625 32.457031 27.15625 C 30.667969 27.15625 28.945312 25.5 28.945312 22.289062 C 28.945312 19.667969 30.425781 17.890625 32.386719 17.890625 " fill-opacity="1" fill-rule="nonzero"/></g><g clip-path="url(#a475e728a6)"><path fill="#6c5d53" d="M 38.035156 21.253906 C 38.210938 20.582031 38.898438 20.425781 39.792969 20.425781 C 41.132812 20.425781 41.511719 21.375 41.511719 23.222656 C 39.773438 23.722656 36.660156 24.03125 36.660156 25.636719 C 36.660156 27.292969 37.796875 27.742188 39.242188 27.742188 C 40.445312 27.742188 41.269531 27.363281 41.769531 27 C 42.042969 27.554688 42.492188 27.707031 42.992188 27.707031 C 44.175781 27.707031 44.574219 27.414062 44.574219 26.777344 L 44.261719 26.777344 C 44.261719 27.019531 43.972656 27.191406 43.679688 27.191406 C 43.386719 27.191406 43.058594 26.914062 43.058594 26.121094 L 43.058594 22.703125 C 43.058594 21.097656 42.214844 19.804688 39.964844 19.804688 C 38.15625 19.804688 37.125 20.496094 37.125 21.703125 C 37.125 22.21875 37.417969 22.566406 37.863281 22.566406 C 38.226562 22.566406 38.640625 22.394531 38.640625 21.960938 C 38.640625 21.425781 38.3125 21.253906 38.035156 21.253906 M 41.613281 26.570312 C 41.082031 26.898438 40.222656 27.15625 39.535156 27.15625 C 38.757812 27.15625 38.261719 26.847656 38.261719 25.671875 C 38.261719 24.273438 40.308594 23.980469 41.511719 23.601562 L 41.511719 25.636719 C 41.511719 26 41.546875 26.3125 41.613281 26.570312 " fill-opacity="1" fill-rule="nonzero"/></g><g clip-path="url(#ad8cc6a5d0)"><path fill="#6c5d53" d="M 44.941406 27.570312 L 48.65625 27.570312 L 48.65625 27.207031 C 47.933594 27.207031 47.675781 27.105469 47.574219 26.863281 L 47.574219 21.152344 C 47.96875 20.789062 48.589844 20.390625 49.378906 20.390625 C 50.410156 20.390625 50.824219 20.890625 50.824219 22.410156 L 50.824219 26.863281 C 50.722656 27.105469 50.464844 27.207031 49.742188 27.207031 L 49.742188 27.570312 L 53.457031 27.570312 L 53.457031 27.207031 C 52.734375 27.207031 52.476562 27.105469 52.371094 26.863281 L 52.371094 21.773438 C 52.371094 21.582031 52.355469 21.390625 52.304688 21.21875 C 52.699219 20.839844 53.335938 20.390625 54.179688 20.390625 C 55.210938 20.390625 55.625 20.890625 55.625 22.410156 L 55.625 26.863281 C 55.519531 27.105469 55.261719 27.207031 54.539062 27.207031 L 54.539062 27.570312 L 58.253906 27.570312 L 58.253906 27.207031 C 57.53125 27.207031 57.273438 27.105469 57.171875 26.863281 L 57.171875 21.773438 C 57.171875 20.527344 56.3125 19.804688 54.28125 19.804688 C 53.316406 19.804688 52.5625 20.355469 52.132812 20.804688 C 51.753906 20.167969 50.910156 19.804688 49.484375 19.804688 C 48.675781 19.804688 48.019531 20.203125 47.574219 20.582031 L 47.574219 19.804688 C 46.800781 19.804688 45.613281 20.546875 44.941406 20.546875 L 44.941406 20.945312 C 45.199219 20.945312 45.59375 20.996094 46.023438 21.03125 L 46.023438 26.863281 C 45.921875 27.105469 45.664062 27.207031 44.941406 27.207031 L 44.941406 27.570312 " fill-opacity="1" fill-rule="nonzero"/></g><g clip-path="url(#6397292093)"><path fill="#6c5d53" d="M 60.789062 23.410156 L 66.3125 23.410156 C 66.3125 21.511719 65.277344 19.804688 62.699219 19.804688 C 60.394531 19.804688 59.15625 21.460938 59.15625 23.394531 C 59.15625 26.878906 61.289062 27.742188 62.871094 27.742188 C 64.660156 27.742188 65.621094 27.226562 66.277344 26.15625 L 65.863281 25.949219 C 65.175781 26.8125 64.453125 27.085938 63.457031 27.085938 C 62.097656 27.085938 60.824219 25.34375 60.789062 23.410156 M 60.804688 22.875 C 60.960938 21.289062 61.871094 20.320312 62.628906 20.320312 C 64.160156 20.320312 64.503906 21.445312 64.625 22.875 L 60.804688 22.875 " fill-opacity="1" fill-rule="nonzero"/></g><g clip-path="url(#9128ad0081)"><path fill="#6c5d53" d="M 67.3125 27.570312 L 71.027344 27.570312 L 71.027344 27.207031 C 70.304688 27.207031 70.046875 27.105469 69.941406 26.863281 L 69.941406 16.699219 C 69.167969 16.699219 67.980469 17.441406 67.3125 17.441406 L 67.3125 17.835938 C 67.570312 17.835938 67.964844 17.890625 68.394531 17.921875 L 68.394531 26.863281 C 68.292969 27.105469 68.035156 27.207031 67.3125 27.207031 L 67.3125 27.570312 " fill-opacity="1" fill-rule="nonzero"/></g><path fill="#d22128" d="M 27.316406 14.503906 L 28.832031 10.875 L 29.121094 10.875 L 30.636719 14.503906 L 30.253906 14.503906 L 29.785156 13.367188 L 28.160156 13.367188 L 27.695312 14.503906 Z M 28.980469 11.292969 L 28.234375 13.085938 L 29.703125 13.085938 Z M 28.980469 11.292969 " fill-opacity="1" fill-rule="nonzero"/><path fill="#d22128" d="M 31.027344 14.503906 L 31.027344 10.875 L 32.527344 10.875 C 33.148438 10.875 33.597656 11.453125 33.597656 12.011719 C 33.597656 12.605469 33.179688 13.164062 32.554688 13.164062 L 31.378906 13.164062 L 31.378906 14.503906 Z M 31.378906 12.847656 L 32.535156 12.847656 C 32.964844 12.847656 33.238281 12.453125 33.238281 12.011719 C 33.238281 11.558594 32.902344 11.191406 32.503906 11.191406 L 31.378906 11.191406 Z M 31.378906 12.847656 " fill-opacity="1" fill-rule="nonzero"/><path fill="#d22128" d="M 33.398438 14.503906 L 34.910156 10.875 L 35.203125 10.875 L 36.714844 14.503906 L 36.332031 14.503906 L 35.863281 13.367188 L 34.238281 13.367188 L 33.773438 14.503906 Z M 35.058594 11.292969 L 34.316406 13.085938 L 35.78125 13.085938 Z M 35.058594 11.292969 " fill-opacity="1" fill-rule="nonzero"/><path fill="#d22128" d="M 38.429688 10.851562 C 39.070312 10.851562 39.539062 11.179688 39.761719 11.644531 L 39.476562 11.820312 C 39.25 11.339844 38.800781 11.175781 38.40625 11.175781 C 37.539062 11.175781 37.066406 11.953125 37.066406 12.683594 C 37.066406 13.488281 37.652344 14.210938 38.421875 14.210938 C 38.832031 14.210938 39.308594 14.007812 39.539062 13.539062 L 39.835938 13.691406 C 39.601562 14.234375 38.957031 14.535156 38.402344 14.535156 C 37.410156 14.535156 36.710938 13.582031 36.710938 12.664062 C 36.710938 11.789062 37.335938 10.851562 38.429688 10.851562 Z M 38.429688 10.851562 " fill-opacity="1" fill-rule="nonzero"/><path fill="#d22128" d="M 43.1875 10.875 L 43.1875 14.503906 L 42.828125 14.503906 L 42.828125 12.804688 L 40.683594 12.804688 L 40.683594 14.503906 L 40.332031 14.503906 L 40.332031 10.875 L 40.683594 10.875 L 40.683594 12.488281 L 42.828125 12.488281 L 42.828125 10.875 Z M 43.1875 10.875 " fill-opacity="1" fill-rule="nonzero"/><path fill="#d22128" d="M 46.433594 14.1875 L 46.433594 14.503906 L 44.003906 14.503906 L 44.003906 10.875 L 46.390625 10.875 L 46.390625 11.191406 L 44.355469 11.191406 L 44.355469 12.5 L 46.128906 12.5 L 46.128906 12.800781 L 44.355469 12.800781 L 44.355469 14.1875 Z M 46.433594 14.1875 " fill-opacity="1" fill-rule="nonzero"/><path fill="#6d6e71" d="M 47.328125 10.835938 C 47.382812 10.890625 47.410156 10.957031 47.410156 11.035156 C 47.410156 11.113281 47.382812 11.179688 47.328125 11.238281 C 47.273438 11.292969 47.203125 11.320312 47.125 11.320312 C 47.046875 11.320312 46.980469 11.292969 46.925781 11.238281 C 46.871094 11.183594 46.84375 11.117188 46.84375 11.039062 C 46.84375 10.960938 46.871094 10.894531 46.925781 10.835938 C 46.980469 10.78125 47.046875 10.753906 47.125 10.753906 C 47.203125 10.753906 47.273438 10.78125 47.328125 10.835938 Z M 47.304688 11.214844 C 47.351562 11.164062 47.375 11.105469 47.375 11.035156 C 47.375 10.96875 47.351562 10.910156 47.304688 10.863281 C 47.253906 10.8125 47.195312 10.789062 47.128906 10.789062 C 47.058594 10.789062 47 10.8125 46.953125 10.863281 C 46.902344 10.910156 46.878906 10.96875 46.878906 11.039062 C 46.878906 11.105469 46.902344 11.164062 46.949219 11.214844 C 47 11.261719 47.054688 11.289062 47.125 11.289062 C 47.195312 11.289062 47.253906 11.261719 47.304688 11.214844 Z M 47.261719 10.984375 C 47.261719 11.035156 47.242188 11.066406 47.195312 11.078125 L 47.277344 11.1875 L 47.210938 11.1875 L 47.140625 11.085938 L 47.070312 11.085938 L 47.070312 11.1875 L 47.019531 11.1875 L 47.019531 10.882812 L 47.132812 10.882812 C 47.179688 10.882812 47.214844 10.890625 47.234375 10.90625 C 47.253906 10.921875 47.261719 10.949219 47.261719 10.984375 Z M 47.195312 11.027344 C 47.207031 11.015625 47.210938 11.003906 47.210938 10.980469 C 47.210938 10.960938 47.207031 10.949219 47.195312 10.941406 C 47.183594 10.933594 47.164062 10.929688 47.136719 10.929688 L 47.070312 10.929688 L 47.070312 11.039062 L 47.136719 11.039062 C 47.164062 11.039062 47.183594 11.035156 47.195312 11.027344 Z M 47.195312 11.027344 " fill-opacity="1" fill-rule="nonzero"/><g clip-path="url(#0995528ca3)"><g clip-path="url(#eb37ad9908)"><path fill="#f69923" d="M -6.09375 23.847656 L 17.453125 34.867188 L 28.433594 11.238281 L 4.886719 0.222656 Z M -6.09375 23.847656 " fill-opacity="1" fill-rule="nonzero"/></g></g><g clip-path="url(#4233404fb5)"><path stroke-linecap="butt" transform="matrix(0.155125, 0, 0, 0.155646, -52.794006, -80.392439)" fill="none" stroke-linejoin="round" d="M 475.354083 629.218232 C 475.354083 633.359235 474.951182 637.450044 474.145381 641.515756 C 473.339579 645.581468 472.130877 649.521695 470.544455 653.336438 C 468.983214 657.176277 467.019073 660.790243 464.727574 664.22853 C 462.436076 667.666818 459.817221 670.854135 456.89619 673.790483 C 453.97516 676.701733 450.777134 679.336917 447.352478 681.620743 C 443.90264 683.929666 440.276533 685.862134 436.448975 687.443244 C 432.621417 689.024354 428.693135 690.229009 424.638945 691.032113 C 420.559575 691.835217 416.480204 692.236768 412.32529 692.236768 C 408.195557 692.236768 404.091005 691.835217 400.036816 691.032113 C 395.982626 690.229009 392.029162 689.024354 388.226786 687.443244 C 384.399229 685.862134 380.773121 683.929666 377.323283 681.620743 C 373.873445 679.336917 370.700602 676.701733 367.779571 673.790483 C 364.833359 670.854135 362.239685 667.666818 359.923005 664.22853 C 357.631507 660.790243 355.692547 657.176277 354.106125 653.336438 C 352.519703 649.521695 351.336182 645.581468 350.530381 641.515756 C 349.724579 637.450044 349.321678 633.359235 349.321678 629.218232 C 349.321678 625.07723 349.724579 620.986421 350.530381 616.920709 C 351.336182 612.880094 352.519703 608.939866 354.106125 605.100027 C 355.692547 601.285285 357.631507 597.646222 359.923005 594.207935 C 362.239685 590.769647 364.833359 587.58233 367.779571 584.671079 C 370.700602 581.734732 373.873445 579.124645 377.323283 576.815722 C 380.773121 574.531896 384.399229 572.574331 388.226786 570.993221 C 392.029162 569.412111 395.982626 568.232553 400.036816 567.429449 C 404.091005 566.601248 408.195557 566.199697 412.32529 566.199697 C 416.480204 566.199697 420.559575 566.601248 424.638945 567.429449 C 428.693135 568.232553 432.621417 569.412111 436.448975 570.993221 C 440.276533 572.574331 443.90264 574.531896 447.352478 576.815722 C 450.777134 579.124645 453.97516 581.734732 456.89619 584.671079 C 459.817221 587.58233 462.436076 590.769647 464.727574 594.207935 C 467.019073 597.646222 468.983214 601.285285 470.544455 605.100027 C 472.130877 608.939866 473.339579 612.880094 474.145381 616.920709 C 474.951182 620.986421 475.354083 625.07723 475.354083 629.218232 Z M 475.354083 629.218232 " stroke="#f69923" stroke-width="5" stroke-opacity="1" stroke-miterlimit="4"/></g><g clip-path="url(#345fbcbfe5)"><g clip-path="url(#aef9eb3257)"><path fill="#f6e423" d="M 2.246094 25.175781 L 18.6875 32.867188 L 26.554688 15.929688 L 10.117188 8.238281 Z M 2.246094 25.175781 " fill-opacity="1" fill-rule="nonzero"/></g></g><g clip-path="url(#05ad6da8fb)"><path fill="#28170b" d="M 7.734375 13.511719 C 6.316406 13.988281 3.613281 15.675781 1.011719 17.925781 C 1.210938 23.292969 5.539062 27.59375 10.902344 27.734375 C 13.542969 22.632812 12.007812 16.761719 7.734375 13.511719 Z M 7.734375 13.511719 " fill-opacity="0.75" fill-rule="nonzero"/></g><g clip-path="url(#b64b3987cd)"><path fill="#ffffff" d="M 11.449219 11.621094 C 11.375 11.617188 11.304688 11.625 11.234375 11.660156 C 10.359375 12.101562 11.234375 13.859375 11.234375 13.859375 C 8.605469 16.054688 9.164062 19.808594 6.097656 19.808594 C 4.425781 19.808594 2.765625 17.882812 1.011719 16.703125 C 0.988281 16.980469 0.972656 17.261719 0.972656 17.542969 C 0.972656 21.390625 3.085938 24.738281 6.207031 26.496094 C 7.078125 26.386719 7.949219 26.164062 8.605469 25.726562 C 12.042969 23.425781 12.898438 19.050781 14.304688 16.9375 C 15.179688 15.617188 19.28125 15.730469 19.554688 15.175781 C 19.996094 14.296875 18.679688 12.980469 18.242188 12.980469 L 14.738281 12.980469 C 14.492188 12.980469 14.109375 12.542969 13.863281 12.542969 L 12.550781 12.542969 C 12.550781 12.542969 11.964844 11.65625 11.449219 11.621094 Z M 11.449219 11.621094 " fill-opacity="1" fill-rule="nonzero"/></g></svg>