<svg xmlns="http://www.w3.org/2000/svg" xmlns:xlink="http://www.w3.org/1999/xlink" width="96" zoomAndPan="magnify" viewBox="0 0 72 36.000001" height="48" preserveAspectRatio="xMidYMid meet" version="1.0"><defs><clipPath id="293c82709d"><path d="M 15 13 L 23 13 L 23 22.75 L 15 22.75 Z M 15 13 " clip-rule="nonzero"/></clipPath><clipPath id="53f4d798ab"><path d="M 23 12.53125 L 26 12.53125 L 26 22.75 L 23 22.75 Z M 23 12.53125 " clip-rule="nonzero"/></clipPath><clipPath id="b10e67dc2d"><path d="M 26 13 L 31 13 L 31 22.75 L 26 22.75 Z M 26 13 " clip-rule="nonzero"/></clipPath><clipPath id="3a7a23b572"><path d="M 32 12.53125 L 39 12.53125 L 39 22.75 L 32 22.75 Z M 32 12.53125 " clip-rule="nonzero"/></clipPath><clipPath id="3589e0219e"><path d="M 39 15 L 46 15 L 46 22.75 L 39 22.75 Z M 39 15 " clip-rule="nonzero"/></clipPath><clipPath id="5906feb870"><path d="M 46 15 L 53 15 L 53 22.75 L 46 22.75 Z M 46 15 " clip-rule="nonzero"/></clipPath><clipPath id="e230a5aaf2"><path d="M 53 12.53125 L 60 12.53125 L 60 22.75 L 53 22.75 Z M 53 12.53125 " clip-rule="nonzero"/></clipPath><clipPath id="34fcecb948"><path d="M 59 15 L 66 15 L 66 22.75 L 59 22.75 Z M 59 15 " clip-rule="nonzero"/></clipPath><clipPath id="c1d7abfd8b"><path d="M 66 13 L 71 13 L 71 22.75 L 66 22.75 Z M 66 13 " clip-rule="nonzero"/></clipPath><clipPath id="1e9eaaf2e2"><path d="M 1 13 L 11 13 L 11 22.75 L 1 22.75 Z M 1 13 " clip-rule="nonzero"/></clipPath><clipPath id="4067b2bc57"><path d="M 2 16 L 11 16 L 11 22.75 L 2 22.75 Z M 2 16 " clip-rule="nonzero"/></clipPath><clipPath id="5c9f73a7ab"><path d="M 10.507812 16.589844 L 7.554688 16.589844 L 7.058594 19.558594 L 5.011719 19.558594 L 2.597656 22.5 C 2.675781 22.570312 2.769531 22.605469 2.871094 22.605469 L 9.28125 22.605469 C 9.464844 22.609375 9.566406 22.519531 9.597656 22.335938 Z M 10.507812 16.589844 " clip-rule="nonzero"/></clipPath><linearGradient x1="63.810753" gradientTransform="matrix(0.157325, 0, 0, 0.16147, 1.118628, 12.532241)" y1="30.425507" x2="14.486139" gradientUnits="userSpaceOnUse" y2="68.921603" id="6487fda0b1"><stop stop-opacity="1" stop-color="rgb(0%, 32.199097%, 79.998779%)" offset="0"/><stop stop-opacity="1" stop-color="rgb(0%, 32.199097%, 79.998779%)" offset="0.0625"/><stop stop-opacity="1" stop-color="rgb(0%, 32.199097%, 79.998779%)" offset="0.09375"/><stop stop-opacity="1" stop-color="rgb(0.00305176%, 32.202148%, 80.003357%)" offset="0.109375"/><stop stop-opacity="1" stop-color="rgb(0.117493%, 32.354736%, 80.158997%)" offset="0.117188"/><stop stop-opacity="1" stop-color="rgb(0.343323%, 32.652283%, 80.461121%)" offset="0.125"/><stop stop-opacity="1" stop-color="rgb(0.569153%, 32.949829%, 80.764771%)" offset="0.132813"/><stop stop-opacity="1" stop-color="rgb(0.794983%, 33.24585%, 81.066895%)" offset="0.140625"/><stop stop-opacity="1" stop-color="rgb(1.020813%, 33.543396%, 81.370544%)" offset="0.148438"/><stop stop-opacity="1" stop-color="rgb(1.246643%, 33.839417%, 81.674194%)" offset="0.15625"/><stop stop-opacity="1" stop-color="rgb(1.472473%, 34.136963%, 81.976318%)" offset="0.164062"/><stop stop-opacity="1" stop-color="rgb(1.698303%, 34.434509%, 82.279968%)" offset="0.171875"/><stop stop-opacity="1" stop-color="rgb(1.924133%, 34.73053%, 82.582092%)" offset="0.179688"/><stop stop-opacity="1" stop-color="rgb(2.149963%, 35.028076%, 82.885742%)" offset="0.1875"/><stop stop-opacity="1" stop-color="rgb(2.375793%, 35.324097%, 83.187866%)" offset="0.195312"/><stop stop-opacity="1" stop-color="rgb(2.601624%, 35.621643%, 83.491516%)" offset="0.203125"/><stop stop-opacity="1" stop-color="rgb(2.827454%, 35.919189%, 83.795166%)" offset="0.210938"/><stop stop-opacity="1" stop-color="rgb(3.053284%, 36.21521%, 84.09729%)" offset="0.21875"/><stop stop-opacity="1" stop-color="rgb(3.279114%, 36.512756%, 84.40094%)" offset="0.226563"/><stop stop-opacity="1" stop-color="rgb(3.503418%, 36.808777%, 84.703064%)" offset="0.234375"/><stop stop-opacity="1" stop-color="rgb(3.729248%, 37.106323%, 85.006714%)" offset="0.242188"/><stop stop-opacity="1" stop-color="rgb(3.955078%, 37.40387%, 85.308838%)" offset="0.25"/><stop stop-opacity="1" stop-color="rgb(4.180908%, 37.69989%, 85.612488%)" offset="0.257812"/><stop stop-opacity="1" stop-color="rgb(4.406738%, 37.997437%, 85.916138%)" offset="0.265625"/><stop stop-opacity="1" stop-color="rgb(4.632568%, 38.293457%, 86.218262%)" offset="0.273438"/><stop stop-opacity="1" stop-color="rgb(4.858398%, 38.591003%, 86.521912%)" offset="0.28125"/><stop stop-opacity="1" stop-color="rgb(5.084229%, 38.88855%, 86.824036%)" offset="0.289062"/><stop stop-opacity="1" stop-color="rgb(5.310059%, 39.18457%, 87.127686%)" offset="0.296875"/><stop stop-opacity="1" stop-color="rgb(5.535889%, 39.482117%, 87.42981%)" offset="0.304688"/><stop stop-opacity="1" stop-color="rgb(5.761719%, 39.778137%, 87.733459%)" offset="0.3125"/><stop stop-opacity="1" stop-color="rgb(5.987549%, 40.075684%, 88.035583%)" offset="0.320313"/><stop stop-opacity="1" stop-color="rgb(6.213379%, 40.37323%, 88.339233%)" offset="0.328125"/><stop stop-opacity="1" stop-color="rgb(6.439209%, 40.66925%, 88.642883%)" offset="0.335938"/><stop stop-opacity="1" stop-color="rgb(6.665039%, 40.966797%, 88.945007%)" offset="0.34375"/><stop stop-opacity="1" stop-color="rgb(6.889343%, 41.262817%, 89.248657%)" offset="0.351563"/><stop stop-opacity="1" stop-color="rgb(7.115173%, 41.560364%, 89.550781%)" offset="0.359375"/><stop stop-opacity="1" stop-color="rgb(7.341003%, 41.856384%, 89.854431%)" offset="0.366633"/><stop stop-opacity="1" stop-color="rgb(7.453918%, 42.00592%, 90.005493%)" offset="0.367188"/><stop stop-opacity="1" stop-color="rgb(7.566833%, 42.153931%, 90.156555%)" offset="0.375"/><stop stop-opacity="1" stop-color="rgb(7.792664%, 42.451477%, 90.460205%)" offset="0.382813"/><stop stop-opacity="1" stop-color="rgb(8.018494%, 42.747498%, 90.763855%)" offset="0.390625"/><stop stop-opacity="1" stop-color="rgb(8.244324%, 43.045044%, 91.065979%)" offset="0.398438"/><stop stop-opacity="1" stop-color="rgb(8.470154%, 43.341064%, 91.369629%)" offset="0.40625"/><stop stop-opacity="1" stop-color="rgb(8.695984%, 43.638611%, 91.671753%)" offset="0.414063"/><stop stop-opacity="1" stop-color="rgb(8.921814%, 43.936157%, 91.975403%)" offset="0.421875"/><stop stop-opacity="1" stop-color="rgb(9.147644%, 44.232178%, 92.277527%)" offset="0.429688"/><stop stop-opacity="1" stop-color="rgb(9.373474%, 44.529724%, 92.581177%)" offset="0.4375"/><stop stop-opacity="1" stop-color="rgb(9.599304%, 44.825745%, 92.884827%)" offset="0.445313"/><stop stop-opacity="1" stop-color="rgb(9.825134%, 45.123291%, 93.186951%)" offset="0.453125"/><stop stop-opacity="1" stop-color="rgb(10.050964%, 45.420837%, 93.490601%)" offset="0.460938"/><stop stop-opacity="1" stop-color="rgb(10.275269%, 45.716858%, 93.792725%)" offset="0.46875"/><stop stop-opacity="1" stop-color="rgb(10.501099%, 46.014404%, 94.096375%)" offset="0.476563"/><stop stop-opacity="1" stop-color="rgb(10.726929%, 46.310425%, 94.398499%)" offset="0.484375"/><stop stop-opacity="1" stop-color="rgb(10.952759%, 46.607971%, 94.702148%)" offset="0.492188"/><stop stop-opacity="1" stop-color="rgb(11.178589%, 46.905518%, 95.005798%)" offset="0.5"/><stop stop-opacity="1" stop-color="rgb(11.404419%, 47.201538%, 95.307922%)" offset="0.507813"/><stop stop-opacity="1" stop-color="rgb(11.630249%, 47.499084%, 95.611572%)" offset="0.515625"/><stop stop-opacity="1" stop-color="rgb(11.856079%, 47.795105%, 95.913696%)" offset="0.523438"/><stop stop-opacity="1" stop-color="rgb(12.081909%, 48.092651%, 96.217346%)" offset="0.53125"/><stop stop-opacity="1" stop-color="rgb(12.307739%, 48.390198%, 96.51947%)" offset="0.539063"/><stop stop-opacity="1" stop-color="rgb(12.533569%, 48.686218%, 96.82312%)" offset="0.546875"/><stop stop-opacity="1" stop-color="rgb(12.759399%, 48.983765%, 97.12677%)" offset="0.554688"/><stop stop-opacity="1" stop-color="rgb(12.985229%, 49.279785%, 97.428894%)" offset="0.5625"/><stop stop-opacity="1" stop-color="rgb(13.21106%, 49.577332%, 97.732544%)" offset="0.570312"/><stop stop-opacity="1" stop-color="rgb(13.43689%, 49.874878%, 98.034668%)" offset="0.578125"/><stop stop-opacity="1" stop-color="rgb(13.661194%, 50.170898%, 98.338318%)" offset="0.585938"/><stop stop-opacity="1" stop-color="rgb(13.887024%, 50.468445%, 98.640442%)" offset="0.59375"/><stop stop-opacity="1" stop-color="rgb(14.112854%, 50.764465%, 98.944092%)" offset="0.601563"/><stop stop-opacity="1" stop-color="rgb(14.338684%, 51.062012%, 99.246216%)" offset="0.609375"/><stop stop-opacity="1" stop-color="rgb(14.564514%, 51.359558%, 99.549866%)" offset="0.617188"/><stop stop-opacity="1" stop-color="rgb(14.787292%, 51.652527%, 99.850464%)" offset="0.625"/><stop stop-opacity="1" stop-color="rgb(14.898682%, 51.799011%, 100%)" offset="0.633367"/><stop stop-opacity="1" stop-color="rgb(14.898682%, 51.799011%, 100%)" offset="0.75"/><stop stop-opacity="1" stop-color="rgb(14.898682%, 51.799011%, 100%)" offset="1"/></linearGradient></defs><g clip-path="url(#293c82709d)"><path fill="#253858" d="M 19.503906 13.273438 C 21.359375 13.273438 22.261719 14.210938 22.261719 15.714844 C 22.261719 16.847656 21.761719 17.535156 20.738281 17.792969 C 22.082031 18.019531 22.746094 18.769531 22.746094 20.09375 C 22.746094 21.585938 21.761719 22.609375 19.726562 22.609375 L 15.976562 22.609375 L 15.976562 13.273438 Z M 17.222656 14.492188 L 17.222656 17.277344 L 19.339844 17.277344 C 20.515625 17.277344 21 16.722656 21 15.824219 C 21 14.925781 20.472656 14.488281 19.339844 14.488281 Z M 17.222656 18.417969 L 17.222656 21.324219 L 19.769531 21.324219 C 20.957031 21.324219 21.5 20.882812 21.5 19.945312 C 21.5 18.949219 20.984375 18.410156 19.742188 18.410156 Z M 17.222656 18.417969 " fill-opacity="1" fill-rule="nonzero"/></g><g clip-path="url(#53f4d798ab)"><path fill="#253858" d="M 24.78125 12.773438 C 24.894531 12.765625 25 12.78125 25.105469 12.824219 C 25.214844 12.863281 25.304688 12.925781 25.386719 13.007812 C 25.464844 13.085938 25.523438 13.183594 25.5625 13.292969 C 25.601562 13.398438 25.617188 13.511719 25.609375 13.628906 C 25.609375 13.863281 25.53125 14.0625 25.367188 14.230469 C 25.207031 14.394531 25.007812 14.476562 24.78125 14.476562 C 24.550781 14.476562 24.355469 14.394531 24.195312 14.230469 C 24.03125 14.0625 23.949219 13.863281 23.949219 13.628906 C 23.941406 13.511719 23.957031 13.398438 23.996094 13.292969 C 24.035156 13.183594 24.09375 13.085938 24.175781 13.007812 C 24.253906 12.925781 24.347656 12.863281 24.453125 12.824219 C 24.558594 12.78125 24.667969 12.765625 24.78125 12.773438 Z M 24.171875 15.503906 L 25.363281 15.503906 L 25.363281 22.609375 L 24.171875 22.609375 Z M 24.171875 15.503906 " fill-opacity="1" fill-rule="nonzero"/></g><g clip-path="url(#b10e67dc2d)"><path fill="#253858" d="M 29.910156 21.414062 C 30.160156 21.40625 30.410156 21.371094 30.65625 21.3125 L 30.65625 22.492188 C 30.394531 22.570312 30.125 22.605469 29.855469 22.605469 C 28.371094 22.605469 27.652344 21.710938 27.652344 20.386719 L 27.652344 16.636719 L 26.53125 16.636719 L 26.53125 15.507812 L 27.652344 15.507812 L 27.652344 13.996094 L 28.808594 13.996094 L 28.808594 15.5 L 30.648438 15.5 L 30.648438 16.632812 L 28.808594 16.632812 L 28.808594 20.363281 C 28.808594 20.988281 29.167969 21.414062 29.910156 21.414062 Z M 29.910156 21.414062 " fill-opacity="1" fill-rule="nonzero"/></g><g clip-path="url(#3a7a23b572)"><path fill="#253858" d="M 35.566406 22.75 C 34.554688 22.75 33.78125 22.28125 33.363281 21.355469 L 33.363281 22.605469 L 32.171875 22.605469 L 32.171875 12.53125 L 33.371094 12.53125 L 33.371094 16.78125 C 33.8125 15.84375 34.644531 15.359375 35.710938 15.359375 C 37.550781 15.359375 38.480469 16.964844 38.480469 19.054688 C 38.472656 21.058594 37.503906 22.75 35.566406 22.75 Z M 35.382812 16.496094 C 34.3125 16.496094 33.371094 17.191406 33.371094 18.769531 L 33.371094 19.339844 C 33.371094 20.914062 34.242188 21.613281 35.257812 21.613281 C 36.601562 21.613281 37.292969 20.703125 37.292969 19.054688 C 37.28125 17.347656 36.617188 16.496094 35.382812 16.496094 Z M 35.382812 16.496094 " fill-opacity="1" fill-rule="nonzero"/></g><g clip-path="url(#3589e0219e)"><path fill="#253858" d="M 39.71875 15.5 L 40.910156 15.5 L 40.910156 19.796875 C 40.910156 21.078125 41.40625 21.644531 42.542969 21.644531 C 43.644531 21.644531 44.410156 20.894531 44.410156 19.457031 L 44.410156 15.5 L 45.601562 15.5 L 45.601562 22.605469 L 44.410156 22.605469 L 44.410156 21.441406 C 44.195312 21.851562 43.890625 22.175781 43.496094 22.410156 C 43.105469 22.644531 42.679688 22.757812 42.222656 22.75 C 40.632812 22.75 39.71875 21.617188 39.71875 19.664062 Z M 39.71875 15.5 " fill-opacity="1" fill-rule="nonzero"/></g><g clip-path="url(#5906feb870)"><path fill="#253858" d="M 52.289062 22.421875 C 51.875 22.648438 51.234375 22.746094 50.597656 22.746094 C 48.136719 22.746094 46.980469 21.210938 46.980469 19.03125 C 46.980469 16.886719 48.128906 15.351562 50.597656 15.351562 C 51.175781 15.335938 51.726562 15.449219 52.25 15.699219 L 52.25 16.832031 C 51.75 16.589844 51.226562 16.480469 50.675781 16.496094 C 48.875 16.496094 48.144531 17.660156 48.144531 19.039062 C 48.144531 20.417969 48.890625 21.582031 50.703125 21.582031 C 51.246094 21.597656 51.769531 21.511719 52.277344 21.328125 Z M 52.289062 22.421875 " fill-opacity="1" fill-rule="nonzero"/></g><g clip-path="url(#e230a5aaf2)"><path fill="#253858" d="M 53.644531 22.605469 L 53.644531 12.53125 L 54.835938 12.53125 L 54.835938 18.828125 L 57.8125 15.503906 L 59.363281 15.503906 L 56.109375 18.992188 L 59.503906 22.605469 L 57.882812 22.605469 L 54.835938 19.28125 L 54.835938 22.605469 Z M 53.644531 22.605469 " fill-opacity="1" fill-rule="nonzero"/></g><g clip-path="url(#34fcecb948)"><path fill="#253858" d="M 63.449219 22.75 C 60.859375 22.75 59.722656 21.214844 59.722656 19.035156 C 59.722656 16.890625 60.886719 15.355469 62.992188 15.355469 C 65.125 15.355469 65.980469 16.875 65.980469 19.035156 L 65.980469 19.589844 L 60.925781 19.589844 C 61.09375 20.796875 61.855469 21.578125 63.488281 21.578125 C 64.210938 21.578125 64.914062 21.449219 65.59375 21.195312 L 65.59375 22.324219 C 65.027344 22.636719 64.152344 22.75 63.449219 22.75 Z M 60.914062 18.550781 L 64.777344 18.550781 C 64.707031 17.230469 64.125 16.476562 62.9375 16.476562 C 61.675781 16.46875 61.039062 17.308594 60.914062 18.542969 Z M 60.914062 18.550781 " fill-opacity="1" fill-rule="nonzero"/></g><g clip-path="url(#c1d7abfd8b)"><path fill="#253858" d="M 70.132812 21.414062 C 70.386719 21.40625 70.636719 21.371094 70.882812 21.3125 L 70.882812 22.492188 C 70.621094 22.570312 70.351562 22.605469 70.078125 22.605469 C 68.597656 22.605469 67.875 21.710938 67.875 20.386719 L 67.875 16.636719 L 66.753906 16.636719 L 66.753906 15.507812 L 67.875 15.507812 L 67.875 13.996094 L 69.039062 13.996094 L 69.039062 15.5 L 70.878906 15.5 L 70.878906 16.632812 L 69.039062 16.632812 L 69.039062 20.363281 C 69.039062 20.988281 69.398438 21.414062 70.132812 21.414062 Z M 70.132812 21.414062 " fill-opacity="1" fill-rule="nonzero"/></g><g clip-path="url(#1e9eaaf2e2)"><path fill="#2684ff" d="M 1.433594 13.542969 C 1.335938 13.542969 1.253906 13.578125 1.191406 13.65625 C 1.128906 13.730469 1.101562 13.820312 1.117188 13.917969 L 2.453125 22.238281 C 2.472656 22.34375 2.519531 22.433594 2.597656 22.5 C 2.675781 22.570312 2.769531 22.605469 2.871094 22.605469 L 9.28125 22.605469 C 9.460938 22.609375 9.566406 22.519531 9.59375 22.335938 L 10.929688 13.917969 C 10.945312 13.820312 10.921875 13.734375 10.859375 13.65625 C 10.792969 13.582031 10.714844 13.542969 10.617188 13.542969 Z M 7.058594 19.558594 L 5.011719 19.558594 L 4.457031 16.589844 L 7.554688 16.589844 Z M 7.058594 19.558594 " fill-opacity="1" fill-rule="nonzero"/></g><g clip-path="url(#4067b2bc57)"><g clip-path="url(#5c9f73a7ab)"><path fill="url(#6487fda0b1)" d="M 2.597656 16.589844 L 2.597656 22.609375 L 10.507812 22.609375 L 10.507812 16.589844 Z M 2.597656 16.589844 " fill-rule="nonzero"/></g></g></svg>