<svg xmlns="http://www.w3.org/2000/svg" xmlns:xlink="http://www.w3.org/1999/xlink" width="96" zoomAndPan="magnify" viewBox="0 0 72 36.000001" height="48" preserveAspectRatio="xMidYMid meet" version="1.0"><defs><clipPath id="f948d11db0"><path d="M 27 8.390625 L 45 8.390625 L 45 26.636719 L 27 26.636719 Z M 27 8.390625 " clip-rule="nonzero"/></clipPath></defs><g clip-path="url(#f948d11db0)"><path fill="#5c8cec" d="M 36.84375 8.652344 C 36.261719 8.316406 35.699219 8.332031 35.121094 8.671875 C 34.265625 9.175781 29.96875 11.636719 28.6875 12.378906 C 28.160156 12.683594 27.90625 13.152344 27.90625 13.757812 C 27.90625 16.257812 27.90625 18.757812 27.90625 21.253906 C 27.90625 21.554688 27.96875 21.820312 28.09375 22.046875 C 28.222656 22.285156 28.421875 22.480469 28.6875 22.632812 C 28.980469 22.804688 29.433594 23.066406 29.964844 23.371094 L 41.816406 11.519531 C 40.160156 10.566406 38.5 9.609375 36.84375 8.652344 M 44.121094 13.753906 C 44.121094 13.449219 44.054688 13.179688 43.921875 12.945312 C 43.792969 12.714844 43.597656 12.523438 43.335938 12.375 C 41.175781 11.128906 39.015625 9.882812 36.855469 8.636719 C 36.273438 8.300781 35.710938 8.3125 35.132812 8.652344 C 34.273438 9.160156 29.972656 11.628906 28.691406 12.371094 C 28.164062 12.679688 27.90625 13.144531 27.90625 13.753906 C 27.90625 16.261719 27.90625 18.765625 27.90625 21.273438 C 27.90625 21.570312 27.96875 21.835938 28.09375 22.066406 C 28.222656 22.300781 28.421875 22.5 28.691406 22.65625 C 29.972656 23.398438 34.273438 25.863281 35.132812 26.371094 C 35.710938 26.714844 36.273438 26.726562 36.859375 26.390625 C 39.015625 25.140625 41.175781 23.898438 43.335938 22.652344 C 43.601562 22.5 43.800781 22.300781 43.929688 22.066406 C 44.058594 21.835938 44.121094 21.570312 44.121094 21.269531 C 44.121094 21.269531 44.121094 16.261719 44.121094 13.753906 " fill-opacity="1" fill-rule="nonzero"/></g><path fill="#ffffff" d="M 37.6875 16.371094 L 40.210938 16.390625 C 40.210938 15.335938 39.148438 12.761719 36.097656 12.761719 C 34.152344 12.761719 31.539062 14 31.539062 17.550781 C 31.539062 21.105469 34.101562 22.265625 36.097656 22.265625 C 39.328125 22.265625 40.101562 20.027344 40.101562 18.765625 L 37.691406 18.625 C 37.691406 18.625 37.757812 20.089844 36.082031 20.089844 C 34.539062 20.089844 34.28125 18.195312 34.28125 17.550781 C 34.28125 16.574219 34.628906 15.003906 36.082031 15.003906 C 37.539062 15.003906 37.6875 16.371094 37.6875 16.371094 " fill-opacity="1" fill-rule="nonzero"/></svg>