<svg xmlns="http://www.w3.org/2000/svg" xmlns:xlink="http://www.w3.org/1999/xlink" width="96" zoomAndPan="magnify" viewBox="0 0 72 36.000001" height="48" preserveAspectRatio="xMidYMid meet" version="1.0"><path fill="#000000" d="M 12.992188 27.4375 C 11.953125 26.621094 10.84375 25.839844 10.085938 24.734375 C 8.492188 22.789062 7.265625 20.53125 6.429688 18.171875 C 5.921875 16.628906 5.746094 14.980469 5.09375 13.5 C 4.410156 12.425781 5.210938 11.25 6.386719 10.910156 C 6.910156 10.808594 7.832031 10.316406 6.722656 10.667969 C 5.726562 11.398438 5.628906 10.003906 6.648438 9.910156 C 7.347656 9.816406 7.605469 9.246094 7.367188 8.730469 C 6.617188 8.242188 9.183594 7.707031 7.890625 6.976562 C 6.546875 5.527344 9.773438 5.246094 8.976562 6.894531 C 8.785156 8.164062 11.230469 6.664062 10.667969 8.125 C 11.246094 8.828125 12.828125 8.285156 12.789062 9.273438 C 13.628906 9.332031 13.917969 10.03125 14.703125 10.089844 C 15.523438 10.460938 17.003906 10.75 17.28125 11.671875 C 16.464844 12.3125 14.59375 10.347656 14.503906 12.121094 C 14.75 14.746094 14.6875 17.449219 15.644531 19.949219 C 16.101562 21.460938 17.199219 22.652344 18.195312 23.832031 C 19.148438 24.984375 20.433594 25.796875 21.75 26.480469 C 22.902344 27.023438 24.144531 27.382812 25.398438 27.609375 C 25.90625 27.222656 26.808594 25.773438 27.601562 26.382812 C 27.640625 27.070312 26.027344 27.820312 27.527344 27.742188 C 28.402344 27.476562 29.019531 28.425781 29.746094 27.570312 C 30.414062 28.363281 32.523438 27.0625 32.046875 28.683594 C 31.40625 29.089844 30.472656 28.847656 29.820312 29.417969 C 28.757812 28.894531 27.914062 29.890625 26.738281 29.765625 C 25.433594 30 24.101562 30.09375 22.777344 30.09375 C 20.605469 29.921875 18.386719 29.851562 16.320312 29.09375 C 15.15625 28.757812 14.019531 28.09375 12.996094 27.429688 Z M 14.824219 28.234375 C 15.960938 28.722656 17.074219 29.242188 18.320312 29.398438 C 20.296875 29.671875 22.339844 30.097656 24.320312 29.710938 C 23.421875 29.304688 22.496094 29.871094 21.601562 29.421875 C 20.527344 29.652344 19.382812 29.363281 18.285156 29.21875 C 17.046875 28.667969 15.707031 28.289062 14.546875 27.570312 C 13.09375 27.039062 15.296875 28.25 15.6875 28.347656 C 16.597656 28.863281 14.695312 28.085938 14.421875 27.871094 C 13.660156 27.445312 13.566406 27.53125 14.347656 27.964844 C 14.503906 28.058594 14.660156 28.152344 14.824219 28.234375 Z M 12.660156 26.703125 C 13.765625 27.113281 12.65625 25.929688 12.152344 26.003906 C 11.929688 25.617188 11.296875 25.371094 11.742188 25.164062 C 10.945312 25.441406 10.90625 24.113281 10.527344 24.296875 C 9.683594 24.03125 10.199219 23.082031 9.191406 22.5 C 9.097656 21.886719 8.1875 21.355469 7.898438 20.429688 C 7.769531 19.964844 6.871094 18.597656 7.421875 19.863281 C 7.894531 21.082031 8.722656 22.125 9.410156 23.164062 C 9.945312 24.15625 10.578125 25.195312 11.554688 25.8125 C 11.882812 26.128906 12.199219 26.609375 12.664062 26.710938 Z M 9.488281 23.21875 C 9.527344 23.050781 9.691406 23.578125 9.488281 23.21875 Z M 13.980469 27.191406 C 14.226562 27.082031 13.632812 27.054688 13.980469 27.191406 Z M 14.578125 27.410156 C 14.519531 27.109375 14.304688 27.585938 14.578125 27.410156 Z M 15.328125 27.722656 C 15.679688 27.382812 14.78125 27.507812 15.328125 27.722656 Z M 16.613281 28.4375 C 16.828125 28.117188 15.917969 28.316406 16.613281 28.4375 Z M 14.148438 26.722656 C 14.703125 26.363281 13.433594 26.714844 14.148438 26.722656 Z M 14.710938 27 C 14.695312 26.8125 14.511719 27.085938 14.710938 27 Z M 17.515625 28.753906 C 17.96875 29.039062 20.152344 29.378906 18.785156 28.871094 C 18.554688 28.917969 16.25 28.214844 17.515625 28.753906 Z M 13.0625 25.28125 C 13.019531 25.09375 12.363281 25.074219 13.0625 25.28125 Z M 14.367188 26.042969 C 14.707031 25.808594 13.667969 25.859375 14.367188 26.042969 Z M 15.46875 26.71875 C 15.957031 26.535156 14.675781 26.535156 15.46875 26.71875 Z M 12.53125 24.703125 C 13.058594 25.109375 14.664062 24.761719 13.347656 24.460938 C 12.746094 24.140625 11.386719 23.921875 12.3125 24.65625 L 12.535156 24.703125 Z M 16.210938 26.953125 C 16.433594 26.574219 15.285156 26.738281 16.210938 26.953125 Z M 15.09375 26.0625 C 16.386719 26.429688 14.003906 25.242188 14.773438 25.925781 L 14.945312 26.003906 Z M 17.335938 27.359375 C 18.5625 27.371094 16.226562 27.183594 17.335938 27.359375 Z M 12.058594 23.996094 C 12.011719 23.761719 11.757812 24.011719 12.058594 23.996094 Z M 19.410156 28.519531 C 19.441406 28.109375 19.011719 28.828125 19.410156 28.519531 Z M 14.15625 25.277344 C 14.082031 25.058594 13.773438 25.265625 14.15625 25.277344 Z M 12.179688 23.851562 C 12.882812 23.808594 11.214844 23.542969 12.179688 23.851562 Z M 9.84375 22.339844 C 9.757812 22 9.085938 21.730469 9.84375 22.339844 Z M 15.988281 26.238281 C 15.863281 26.089844 15.929688 26.269531 15.988281 26.238281 Z M 19.816406 28.585938 C 19.804688 28.359375 19.605469 28.667969 19.816406 28.585938 Z M 15.652344 25.886719 C 15.722656 25.597656 15.050781 25.800781 15.652344 25.886719 Z M 12.804688 24.082031 C 13.328125 24.023438 11.964844 23.726562 12.804688 24.082031 Z M 17.625 27.074219 C 18.441406 26.753906 16.828125 26.917969 17.625 27.074219 Z M 15.117188 25.375 C 16.050781 25.496094 14 24.734375 14.910156 25.304688 Z M 18.386719 27.382812 C 19.265625 26.859375 18.972656 28.613281 19.875 27.53125 C 20.765625 26.882812 19.109375 28.335938 20.203125 27.648438 C 20.996094 27.117188 22.164062 27.898438 22.902344 28.152344 C 23.429688 28.128906 23.953125 28.613281 24.496094 28.316406 C 25.546875 28.035156 22.445312 27.898438 23.257812 27.394531 C 22.296875 27.675781 21.589844 27.0625 21.117188 26.449219 C 20.039062 26.199219 18.796875 25.648438 18.257812 24.695312 C 18.039062 24.339844 18.574219 24.746094 18.070312 24.160156 C 17.425781 23.585938 17.097656 22.9375 16.660156 22.226562 C 16.136719 21.949219 16.078125 21.132812 16.027344 22.203125 C 16.03125 21.527344 15.398438 21.074219 15.246094 21.261719 C 15.242188 20.621094 15.921875 20.9375 15.445312 20.460938 C 15.34375 19.785156 15.007812 19.085938 14.90625 18.328125 C 14.746094 17.960938 14.882812 17.175781 14.367188 18.007812 C 14.179688 18.882812 14.304688 16.929688 14.597656 17.574219 C 14.980469 16.917969 14.460938 16.992188 14.4375 17.085938 C 14.6875 16.53125 14.597656 15.746094 14.375 16.046875 C 14.507812 15.460938 14.582031 13.886719 14.175781 14.164062 C 14.421875 13.550781 14.644531 11.355469 13.566406 12.191406 C 13.132812 12.199219 12.378906 12.351562 12.019531 12.527344 C 13.140625 13.144531 11.90625 12.75 11.449219 12.652344 C 11.390625 13.222656 10.941406 12.976562 10.375 12.984375 C 11.277344 13.097656 9.9375 13.90625 9.421875 13.589844 C 8.75 13.910156 10.003906 14.710938 9.433594 14.960938 C 9.503906 15.332031 8.40625 14.824219 8.492188 15.6875 C 7.839844 15.414062 8.402344 16.707031 8.730469 16.269531 C 9.835938 16.570312 9.507812 17.253906 9.539062 17.902344 C 9.363281 18.28125 8.644531 17.015625 9.378906 17.074219 C 8.796875 16.140625 8.738281 16.734375 8.257812 17.171875 C 8.140625 17.203125 9.484375 17.792969 8.644531 18.082031 C 9.382812 18.195312 9.40625 18.84375 9.554688 19.253906 C 10 19.714844 9.910156 18.742188 10.441406 19.296875 C 10.105469 18.800781 8.660156 17.894531 9.824219 18.191406 C 9.816406 17.691406 9.613281 17.289062 9.96875 17.300781 C 10.320312 16.660156 9.597656 18.875 10.394531 18.0625 C 10.613281 17.96875 10.667969 17.425781 11.066406 18.117188 C 11.640625 18.683594 11.273438 19.089844 10.464844 18.574219 C 10.609375 19.066406 11.546875 19.242188 11.371094 20.011719 C 11.558594 20.6875 11.820312 20.4375 12.046875 20.398438 C 12.226562 21.054688 12.328125 20.574219 12.335938 20.257812 C 13.15625 20.433594 12.964844 20.917969 13.222656 21.25 C 13.785156 21.507812 12.414062 19.523438 13.382812 20.65625 C 14.402344 21.578125 13.765625 21.960938 12.847656 21.8125 C 13.429688 21.765625 13.617188 22.597656 14.339844 22.570312 C 15 22.882812 15.449219 24.089844 14.308594 23.589844 C 13.914062 23.238281 12.515625 22.792969 13.65625 23.46875 C 14.710938 23.960938 15.550781 24.25 16.570312 24.871094 C 17.296875 25.394531 17.613281 25.980469 17.886719 26.105469 C 17.273438 26.394531 16.042969 25.871094 16.957031 25.710938 C 16.386719 25.605469 15.746094 25.316406 16.289062 26.027344 C 16.757812 26.417969 17.9375 26.375 18.152344 26.417969 C 17.972656 26.816406 17.664062 26.847656 18.15625 26.875 C 17.605469 27.171875 18.335938 27.21875 18.390625 27.382812 Z M 17.257812 24.191406 C 16.917969 23.839844 16.832031 23.183594 17.195312 23.753906 C 17.382812 23.832031 17.792969 24.832031 17.257812 24.191406 Z M 20.9375 26.53125 C 21.144531 26.515625 20.941406 26.6875 20.9375 26.53125 Z M 16.726562 23.332031 C 16.710938 22.804688 16.847656 23.742188 16.726562 23.332031 Z M 16.359375 22.839844 C 15.9375 22.023438 16.894531 23.070312 16.359375 22.839844 Z M 11.925781 19.78125 C 12.175781 19.714844 12.042969 20.207031 11.925781 19.78125 Z M 15.457031 21.691406 C 15.605469 21.117188 15.632812 22.171875 15.457031 21.691406 Z M 12.960938 19.957031 C 12.789062 19.640625 13.332031 20.25 12.960938 19.957031 Z M 15.101562 20.644531 C 14.699219 19.746094 15.386719 20.152344 15.191406 20.789062 Z M 11.414062 18.183594 C 11.234375 17.890625 10.9375 17.027344 11.035156 16.761719 C 11.117188 17.191406 11.945312 18.609375 11.4375 17.351562 C 10.878906 16.300781 12.109375 17.691406 12.234375 17.957031 C 12.292969 18.21875 11.890625 17.886719 12.164062 18.5 C 11.664062 17.800781 11.867188 18.886719 11.414062 18.183594 Z M 10.273438 17.398438 C 10.320312 16.714844 10.535156 17.867188 10.273438 17.398438 Z M 10.785156 17.574219 C 11.03125 17.058594 11.195312 18.296875 10.785156 17.574219 Z M 9.550781 16.621094 C 9.128906 16.199219 8.820312 15.804688 9.574219 16.359375 C 9.863281 16.371094 8.929688 15.476562 9.644531 16.074219 C 10.390625 16.210938 10.011719 17.304688 9.554688 16.621094 Z M 10.195312 16.605469 C 10.441406 16.359375 10.324219 16.84375 10.195312 16.605469 Z M 10.59375 16.730469 C 10.21875 16.03125 11.046875 17.023438 10.59375 16.730469 Z M 9.800781 15.972656 C 8.566406 14.875 11.351562 16.546875 10.003906 16.175781 Z M 13.335938 18.027344 C 12.800781 17.707031 13.195312 15.773438 13.375 17.097656 C 13.902344 16.929688 13.347656 17.777344 13.734375 17.769531 C 13.671875 18.308594 13.5 18.5 13.335938 18.027344 Z M 14.632812 18.796875 C 14.691406 18.214844 14.742188 19.195312 14.632812 18.796875 Z M 14.398438 18.574219 C 14.457031 18.324219 14.40625 18.867188 14.398438 18.574219 Z M 10.023438 15.609375 C 9.230469 14.515625 12.324219 16.714844 10.53125 15.886719 C 10.34375 15.839844 10.121094 15.820312 10.023438 15.609375 Z M 12.539062 16.945312 C 12.464844 16.023438 12.707031 17.097656 12.539062 16.945312 Z M 14.449219 18.171875 C 14.597656 17.648438 14.460938 18.519531 14.449219 18.171875 Z M 10.144531 15.191406 C 10.613281 15.089844 12.09375 16.019531 10.734375 15.457031 C 10.582031 15.289062 10.269531 15.367188 10.144531 15.191406 Z M 14.1875 17.207031 C 14.238281 16.265625 14.46875 16.644531 14.191406 17.34375 Z M 10.496094 14.863281 C 10.6875 14.582031 9.984375 13.589844 10.597656 14.515625 C 10.859375 14.722656 11.355469 14.863281 10.917969 14.953125 C 11.621094 15.566406 10.742188 15.121094 10.496094 14.871094 Z M 13.988281 16.90625 C 14.121094 15.835938 14.105469 17.535156 13.988281 16.90625 Z M 10.09375 13.867188 C 10.242188 13.804688 10.171875 14.0625 10.09375 13.867188 Z M 11.007812 14.410156 C 11.242188 13.917969 11.4375 14.957031 11.007812 14.410156 Z M 13.578125 15.839844 C 13.574219 15.652344 13.625 16.113281 13.578125 15.839844 Z M 13.429688 15.511719 C 13.078125 14.628906 13.761719 15.976562 13.429688 15.511719 Z M 13.210938 14.925781 C 13.148438 14.5625 13.414062 15.382812 13.210938 14.925781 Z M 13.558594 14.347656 C 13.3125 13.914062 13.867188 12.445312 13.929688 13.359375 C 13.671875 14.070312 13.855469 14.464844 14.035156 13.511719 C 14.367188 12.761719 13.964844 14.992188 13.558594 14.347656 Z M 13.925781 12.160156 C 14.03125 12.03125 13.949219 12.320312 13.925781 12.160156 Z M 13.3125 24.21875 C 13.167969 24.09375 13.332031 24.300781 13.3125 24.21875 Z M 14.574219 24.859375 C 15.273438 25.035156 15.273438 24.75 14.632812 24.664062 C 14.292969 24.347656 13.214844 24.007812 14.179688 24.625 C 14.238281 24.785156 14.445312 24.78125 14.566406 24.859375 Z M 12.085938 23.203125 C 12.46875 23.492188 13.539062 24.019531 12.636719 23.320312 C 12.941406 22.964844 12.050781 22.777344 12.347656 22.539062 C 11.597656 22.082031 11.753906 22.121094 12.28125 22.132812 C 11.378906 21.722656 12.410156 21.757812 12.363281 21.550781 C 12.015625 21.484375 10.636719 20.9375 11.445312 21.597656 C 10.621094 21.175781 11.25 21.753906 11 21.691406 C 10.15625 21.460938 11.75 22.335938 10.867188 22.117188 C 11.351562 22.5 12.167969 23.101562 11.070312 22.523438 C 10.925781 22.730469 11.855469 23.046875 12.085938 23.207031 Z M 13.402344 23.960938 C 15.007812 24.476562 12.617188 23.332031 13.402344 23.960938 Z M 20.152344 28.050781 C 20.171875 27.734375 19.933594 28.324219 20.152344 28.050781 Z M 20.851562 28.34375 C 21.222656 27.984375 20.867188 28.914062 21.464844 28.253906 C 21.472656 27.785156 21.449219 27.503906 20.78125 28.078125 C 20.59375 28.179688 20.511719 28.617188 20.851562 28.34375 Z M 9.851562 21.441406 C 9.738281 20.992188 9.054688 20.996094 9.851562 21.441406 Z M 10.589844 21.925781 C 10.316406 21.46875 9.609375 21.511719 10.589844 21.925781 Z M 14.804688 24.464844 C 15.21875 24.832031 16.695312 24.734375 15.304688 24.511719 C 15.101562 24.207031 14 24.28125 14.804688 24.464844 Z M 20.597656 28.046875 C 21.234375 27.519531 19.984375 28.28125 20.597656 28.046875 Z M 21.917969 28.949219 C 21.921875 28.78125 21.644531 29.023438 21.917969 28.949219 Z M 21.917969 28.714844 C 22.617188 27.972656 21.238281 28.761719 21.917969 28.714844 Z M 8.027344 19.914062 C 7.429688 19.0625 7.65625 18.679688 7.082031 17.988281 C 6.972656 17.457031 6.089844 16.246094 6.625 17.519531 C 7.113281 18.269531 7.257812 19.429688 8.027344 19.914062 Z M 21.699219 28.476562 C 22.984375 27.640625 21.167969 28.113281 21.699219 28.476562 Z M 22.683594 28.859375 C 23.328125 28.304688 22.273438 28.746094 22.683594 28.859375 Z M 9.632812 20.492188 C 9.816406 20.214844 9.152344 20.457031 9.632812 20.492188 Z M 22.476562 28.589844 C 23.105469 28.183594 22.332031 28.25 22.363281 28.628906 Z M 13.988281 23.246094 C 13.96875 22.972656 13.65625 23.269531 13.988281 23.246094 Z M 14.511719 23.546875 C 14.347656 23.210938 14.253906 23.605469 14.511719 23.546875 Z M 23.480469 28.871094 C 24.28125 28.285156 22.996094 28.753906 23.3125 28.980469 Z M 23.175781 28.722656 C 23.828125 28.175781 22.484375 28.964844 23.175781 28.722656 Z M 24.742188 29.765625 C 25.179688 29.472656 24.210938 29.671875 24.742188 29.765625 Z M 10.035156 20.296875 C 10.621094 20.429688 12.382812 21.746094 11.34375 20.390625 C 10.816406 20.230469 11.128906 18.929688 10.585938 19.160156 C 10.953125 19.769531 10.886719 20.027344 10.121094 19.644531 C 9.160156 19.175781 9.582031 19.878906 9.769531 20.070312 C 9.515625 20.128906 10.109375 20.292969 10.035156 20.304688 Z M 7.355469 18.183594 C 7.460938 17.75 6.386719 15.792969 6.847656 17.203125 C 7.015625 17.5 6.996094 18.058594 7.355469 18.183594 Z M 12.269531 21.21875 C 11.964844 20.96875 12.253906 21.183594 12.269531 21.21875 Z M 13.015625 21.394531 C 13.015625 20.925781 12.199219 21.207031 13.015625 21.394531 Z M 19.472656 25.464844 C 19.355469 25.148438 18.984375 25.457031 19.472656 25.464844 Z M 19.78125 25.691406 C 19.734375 25.515625 19.601562 25.726562 19.78125 25.691406 Z M 22.339844 27.296875 C 22.585938 27.121094 22.03125 27.273438 22.339844 27.296875 Z M 8.695312 18.527344 C 9.398438 18.253906 7.9375 18.332031 8.695312 18.527344 Z M 18.910156 24.957031 C 18.902344 24.503906 18.460938 25.074219 18.910156 24.957031 Z M 8.421875 17.878906 C 8.871094 17.726562 8.003906 17.777344 8.421875 17.878906 Z M 9.734375 18.519531 C 9.726562 18.371094 9.59375 18.578125 9.734375 18.519531 Z M 25.738281 28.332031 C 26.320312 28.214844 27.644531 28.628906 27.859375 28.175781 C 27.15625 28.160156 25.414062 27.679688 25.332031 28.289062 L 25.488281 28.316406 Z M 10.148438 18.617188 C 10.160156 18.152344 9.789062 18.601562 10.148438 18.617188 Z M 6.707031 16.222656 C 6.550781 15.34375 6.109375 16.089844 6.707031 16.222656 Z M 7.523438 16.429688 C 7.535156 16.148438 6.765625 16.175781 7.523438 16.429688 Z M 7.992188 16.664062 C 7.855469 16.546875 7.886719 16.800781 7.992188 16.664062 Z M 10.953125 18.558594 C 11.09375 18.429688 10.621094 18.464844 10.953125 18.558594 Z M 7.675781 16.140625 C 7.59375 15.476562 6.722656 16.042969 7.675781 16.140625 Z M 5.980469 15.046875 C 5.957031 14.738281 5.816406 15.160156 5.980469 15.046875 Z M 6.226562 14.855469 C 6.1875 14.492188 6.011719 14.902344 6.226562 14.855469 Z M 7.613281 15.683594 C 8.199219 15.453125 6.546875 15.207031 7.492188 15.640625 Z M 26.179688 27.148438 C 26.554688 26.796875 25.703125 27.042969 26.179688 27.148438 Z M 28.417969 28.316406 C 28.570312 27.871094 28.039062 28.375 28.417969 28.316406 Z M 7.753906 14.957031 C 7.816406 14.527344 7.289062 15.042969 7.753906 14.957031 Z M 5.78125 13.636719 C 5.675781 13.03125 5.6875 11.964844 6.703125 12.324219 C 5.351562 12.589844 7.640625 14.003906 7.34375 12.890625 C 7.914062 12.917969 8.457031 12.554688 8.160156 13.105469 C 9.28125 12.988281 10.058594 12.007812 11.140625 12.144531 C 11.984375 12.035156 12.90625 11.949219 13.816406 11.609375 C 14.5625 11.554688 15.28125 10.75 14.867188 10.273438 C 13.847656 10.1875 12.78125 10.3125 11.652344 10.539062 C 10.40625 10.796875 9.273438 11.289062 8.011719 11.503906 C 6.785156 11.667969 8.257812 11.957031 7.90625 12.027344 C 7.265625 12.25 8.667969 12.398438 7.824219 12.636719 C 7.300781 12.535156 6.757812 12.355469 6.980469 11.804688 C 5.804688 11.957031 4.769531 12.445312 5.699219 13.640625 L 5.769531 13.640625 Z M 8.613281 12.195312 C 8.890625 11.175781 10.089844 13.03125 9.066406 12.328125 C 8.949219 12.238281 8.742188 12.164062 8.613281 12.195312 Z M 8.667969 11.699219 C 9.066406 11.40625 8.878906 11.867188 8.667969 11.699219 Z M 9.171875 11.707031 C 9.210938 11.242188 10.332031 11.957031 9.359375 11.878906 Z M 9.863281 11.429688 C 10.117188 11.136719 9.9375 11.691406 9.863281 11.429688 Z M 10.042969 11.3125 C 10.460938 10.808594 12.421875 10.988281 10.988281 11.261719 C 10.601562 10.972656 10.308594 11.433594 10.042969 11.3125 Z M 12.597656 10.917969 C 12.535156 9.539062 13.871094 11.410156 12.597656 10.917969 Z M 13.324219 10.914062 C 13.589844 10.214844 14.355469 10.636719 13.441406 10.773438 C 13.460938 10.847656 13.414062 11.132812 13.324219 10.914062 Z M 7.46875 14.601562 C 8.257812 14.117188 6.625 14.179688 7.46875 14.601562 Z M 8.054688 14.765625 C 8.332031 14.46875 7.449219 14.644531 8.054688 14.765625 Z M 6.34375 13.542969 C 6.796875 13.195312 5.808594 13.410156 6.34375 13.542969 Z M 29.753906 28.1875 C 29.765625 27.785156 29.40625 28.363281 29.753906 28.1875 Z M 27.375 26.566406 C 27.441406 26.101562 27.070312 26.605469 27.375 26.566406 Z M 30.40625 28.347656 C 31.039062 28.347656 32.328125 28.148438 30.949219 28.148438 C 30.734375 28.183594 29.6875 28.175781 30.40625 28.347656 Z M 8.582031 14.480469 C 9.09375 14.445312 9.382812 13.914062 8.484375 13.945312 C 7.085938 13.800781 9.707031 14.421875 8.304688 14.246094 C 8.113281 14.371094 8.570312 14.515625 8.582031 14.480469 Z M 9.035156 14.707031 C 8.980469 14.378906 8.875 14.882812 9.035156 14.707031 Z M 9.570312 13.28125 C 9.792969 13.003906 9.261719 13.207031 9.570312 13.28125 Z M 7.863281 10.429688 C 8.78125 10.121094 10.023438 9.769531 10.460938 10.585938 C 10.023438 10.054688 10.285156 9.535156 10.699219 10.308594 C 11.289062 11.089844 11.574219 9.957031 11.199219 9.691406 C 11.632812 10.230469 12.128906 10.484375 11.492188 9.726562 C 12.191406 8.890625 10.101562 9.832031 9.628906 9.824219 C 9.394531 9.925781 7.273438 10.367188 7.863281 10.429688 Z M 8.402344 9.40625 C 8.921875 9.011719 10.210938 9.640625 9.382812 9.011719 C 9.300781 8.941406 7.578125 9.488281 8.402344 9.40625 Z M 10.304688 9.484375 C 10.914062 9.5 10.042969 8.664062 10.769531 9.042969 C 10.648438 8.652344 9.921875 8.578125 9.566406 8.421875 C 9.363281 8.773438 9.976562 9.488281 10.304688 9.484375 Z M 8.734375 7.757812 C 8.949219 7.464844 8.367188 7.902344 8.734375 7.757812 Z M 9.515625 7.945312 C 10.496094 7.8125 9.261719 7.519531 9.316406 7.933594 Z M 8.0625 6.808594 C 7.367188 5.902344 9.367188 6.960938 8.660156 6.011719 C 8.066406 5.539062 7.492188 6.539062 8.0625 6.808594 Z M 16.953125 11.597656 C 17.269531 11.035156 15.640625 10.839844 16.738281 11.398438 C 16.839844 11.433594 16.816406 11.636719 16.953125 11.597656 Z M 33.304688 11.746094 C 33.195312 12.175781 33.125 12.898438 33.101562 13.90625 C 33.101562 14.105469 33.011719 14.203125 32.832031 14.203125 C 32.652344 14.203125 32.527344 14.117188 32.457031 13.945312 C 32.261719 13.476562 32.082031 13.148438 31.90625 12.960938 C 31.699219 12.742188 31.429688 12.613281 31.089844 12.566406 C 30.722656 12.507812 29.8125 12.480469 28.355469 12.480469 C 28.019531 12.480469 27.800781 12.515625 27.699219 12.585938 C 27.640625 12.628906 27.601562 12.726562 27.601562 12.875 L 27.601562 17.238281 C 27.601562 17.382812 27.695312 17.453125 27.882812 17.449219 L 30.367188 17.332031 C 30.578125 17.308594 30.722656 17.238281 30.796875 17.125 C 30.867188 17.011719 30.941406 16.71875 31.011719 16.253906 C 31.054688 15.996094 31.207031 15.902344 31.464844 15.960938 C 31.683594 16.007812 31.773438 16.105469 31.742188 16.253906 C 31.5625 17.128906 31.503906 18.265625 31.570312 19.664062 C 31.578125 19.828125 31.46875 19.921875 31.253906 19.933594 C 31.074219 19.953125 30.960938 19.855469 30.914062 19.644531 C 30.75 18.84375 30.4375 18.417969 29.980469 18.359375 C 29.523438 18.296875 28.792969 18.277344 27.769531 18.277344 C 27.65625 18.277344 27.597656 18.316406 27.597656 18.402344 L 27.597656 22.734375 C 27.597656 23.054688 27.714844 23.273438 27.949219 23.390625 C 28.136719 23.484375 28.535156 23.570312 29.152344 23.648438 C 29.46875 23.679688 29.605469 23.820312 29.5625 24.058594 C 29.523438 24.269531 29.238281 24.351562 28.714844 24.308594 C 27.191406 24.191406 25.9375 24.191406 24.949219 24.328125 C 24.671875 24.367188 24.539062 24.253906 24.539062 23.992188 C 24.539062 23.824219 24.675781 23.726562 24.949219 23.703125 C 25.578125 23.632812 25.890625 23.078125 25.890625 22.046875 L 25.890625 13.804688 C 25.890625 13.378906 25.816406 13.054688 25.664062 12.824219 C 25.515625 12.597656 25.234375 12.390625 24.824219 12.203125 C 24.566406 12.089844 24.46875 11.933594 24.535156 11.734375 C 24.566406 11.613281 24.617188 11.542969 24.6875 11.53125 C 24.746094 11.511719 24.921875 11.523438 25.199219 11.570312 C 25.601562 11.628906 26.554688 11.664062 28.058594 11.664062 L 32.652344 11.550781 C 33.082031 11.523438 33.296875 11.558594 33.296875 11.65625 C 33.296875 11.679688 33.292969 11.707031 33.289062 11.730469 Z M 39.546875 23.96875 C 39.546875 24.226562 39.402344 24.339844 39.113281 24.308594 C 38.230469 24.222656 37.132812 24.238281 35.824219 24.34375 C 35.558594 24.371094 35.398438 24.363281 35.335938 24.328125 C 35.273438 24.289062 35.246094 24.183594 35.246094 24.007812 C 35.246094 23.855469 35.417969 23.722656 35.769531 23.617188 C 36.117188 23.511719 36.292969 23.195312 36.292969 22.671875 L 36.292969 13.957031 C 36.292969 13.429688 36.21875 13.054688 36.066406 12.808594 C 35.917969 12.5625 35.652344 12.375 35.273438 12.242188 C 35.074219 12.171875 34.976562 12.070312 34.976562 11.941406 C 34.976562 11.75 35.121094 11.605469 35.410156 11.507812 C 35.84375 11.367188 36.296875 11.148438 36.765625 10.855469 C 37.152344 10.625 37.394531 10.507812 37.5 10.507812 C 37.734375 10.507812 37.847656 10.671875 37.847656 11 C 37.835938 11.320312 37.820312 11.640625 37.808594 11.960938 L 37.792969 13.839844 L 37.828125 22.4375 C 37.828125 22.828125 37.925781 23.113281 38.117188 23.292969 C 38.3125 23.46875 38.640625 23.585938 39.109375 23.640625 C 39.398438 23.671875 39.542969 23.78125 39.542969 23.96875 Z M 48.257812 23.402344 C 48.257812 23.535156 48.011719 23.742188 47.523438 24.011719 C 47.03125 24.285156 46.636719 24.421875 46.34375 24.421875 C 46.09375 24.421875 45.871094 24.300781 45.679688 24.054688 C 45.488281 23.8125 45.351562 23.691406 45.273438 23.691406 C 45.214844 23.691406 44.914062 23.824219 44.359375 24.085938 C 43.808594 24.347656 43.253906 24.480469 42.695312 24.480469 C 42.167969 24.480469 41.726562 24.324219 41.375 24.011719 C 40.988281 23.671875 40.792969 23.210938 40.792969 22.625 C 40.792969 21.515625 42.0625 20.71875 44.605469 20.234375 C 45.042969 20.148438 45.261719 19.972656 45.269531 19.703125 L 45.289062 19.085938 C 45.328125 18.035156 44.863281 17.507812 43.890625 17.507812 C 43.617188 17.507812 43.355469 17.753906 43.105469 18.25 C 42.859375 18.742188 42.503906 19.007812 42.042969 19.050781 C 41.515625 19.101562 41.253906 18.878906 41.253906 18.382812 C 41.253906 18.074219 41.644531 17.714844 42.429688 17.304688 C 43.25 16.875 44.039062 16.660156 44.796875 16.660156 C 46.101562 16.660156 46.746094 17.28125 46.730469 18.519531 L 46.691406 22.484375 C 46.6875 22.902344 46.863281 23.109375 47.222656 23.109375 C 47.292969 23.109375 47.429688 23.09375 47.628906 23.0625 L 47.972656 23.015625 C 48.160156 23.015625 48.253906 23.140625 48.253906 23.390625 Z M 45.292969 21.207031 C 45.296875 21.046875 45.261719 20.941406 45.175781 20.890625 C 45.089844 20.839844 44.96875 20.828125 44.796875 20.859375 C 43.25 21.136719 42.476562 21.640625 42.476562 22.378906 C 42.476562 23.117188 42.875 23.484375 43.679688 23.484375 C 44 23.484375 44.332031 23.425781 44.671875 23.304688 C 45.070312 23.160156 45.269531 22.992188 45.269531 22.792969 L 45.289062 21.214844 Z M 55.417969 22.300781 C 55.417969 22.980469 55.152344 23.523438 54.632812 23.921875 C 54.109375 24.324219 53.394531 24.519531 52.488281 24.519531 C 51.878906 24.519531 51.273438 24.453125 50.679688 24.328125 C 50.152344 24.210938 49.855469 24.105469 49.773438 24.007812 C 49.722656 23.917969 49.695312 23.480469 49.695312 22.6875 C 49.695312 22.347656 49.773438 22.171875 49.929688 22.160156 C 50.082031 22.140625 50.21875 22.21875 50.324219 22.410156 C 50.804688 23.25 51.582031 23.671875 52.652344 23.671875 C 53.558594 23.671875 54.011719 23.355469 54.011719 22.726562 C 54.011719 22.449219 53.90625 22.21875 53.703125 22.03125 C 53.476562 21.820312 53.042969 21.574219 52.394531 21.292969 C 51.457031 20.875 50.828125 20.507812 50.515625 20.195312 C 50.175781 19.859375 50.003906 19.410156 50.003906 18.851562 C 50.003906 18.15625 50.269531 17.625 50.804688 17.234375 C 51.296875 16.863281 51.960938 16.675781 52.789062 16.675781 C 53.265625 16.671875 53.742188 16.714844 54.210938 16.800781 C 54.675781 16.882812 54.914062 16.988281 54.933594 17.109375 C 54.984375 17.46875 55.09375 17.988281 55.253906 18.667969 C 55.273438 18.753906 55.179688 18.820312 54.984375 18.871094 C 54.769531 18.917969 54.628906 18.878906 54.558594 18.765625 C 54.050781 17.9375 53.410156 17.523438 52.632812 17.523438 C 51.753906 17.523438 51.3125 17.804688 51.3125 18.371094 C 51.3125 18.6875 51.433594 18.9375 51.664062 19.121094 C 51.875 19.28125 52.371094 19.535156 53.15625 19.875 C 53.976562 20.226562 54.535156 20.546875 54.832031 20.828125 C 55.21875 21.191406 55.414062 21.683594 55.414062 22.300781 Z M 66.746094 23.984375 C 66.746094 24.210938 66.59375 24.335938 66.292969 24.335938 L 64.53125 24.433594 C 64.171875 24.503906 63.914062 24.457031 63.757812 24.296875 C 62.746094 23.207031 61.882812 22.0625 61.179688 20.867188 C 61.121094 20.765625 61.046875 20.714844 60.957031 20.714844 C 60.847656 20.714844 60.664062 20.8125 60.390625 21.003906 C 60.085938 21.171875 59.9375 21.410156 59.9375 21.714844 L 59.957031 22.660156 C 59.96875 23.070312 60.070312 23.339844 60.265625 23.46875 C 60.398438 23.558594 60.710938 23.628906 61.199219 23.679688 C 61.5 23.71875 61.652344 23.832031 61.652344 24.019531 C 61.652344 24.164062 61.628906 24.25 61.578125 24.292969 C 61.53125 24.332031 61.402344 24.335938 61.199219 24.316406 C 60.554688 24.257812 59.472656 24.289062 57.941406 24.410156 C 57.558594 24.445312 57.347656 24.394531 57.316406 24.269531 C 57.304688 24.222656 57.296875 24.160156 57.296875 24.074219 C 57.296875 23.875 57.496094 23.726562 57.886719 23.625 C 58.238281 23.53125 58.414062 23.117188 58.414062 22.382812 L 58.414062 13.964844 C 58.414062 13.4375 58.363281 13.070312 58.261719 12.867188 C 58.121094 12.605469 57.824219 12.398438 57.375 12.25 C 57.164062 12.179688 57.058594 12.074219 57.058594 11.957031 C 57.058594 11.769531 57.207031 11.628906 57.507812 11.523438 C 57.996094 11.359375 58.457031 11.140625 58.886719 10.859375 C 59.242188 10.628906 59.460938 10.511719 59.542969 10.511719 C 59.804688 10.511719 59.9375 10.679688 59.9375 11.011719 C 59.9375 10.96875 59.933594 11.285156 59.925781 11.964844 L 59.917969 13.855469 L 59.9375 19.882812 C 59.9375 20.050781 59.980469 20.132812 60.070312 20.132812 C 60.167969 20.132812 60.316406 20.050781 60.515625 19.882812 L 62.476562 18.246094 C 62.632812 18.085938 62.710938 17.957031 62.710938 17.859375 C 62.710938 17.6875 62.449219 17.5625 61.929688 17.496094 C 61.707031 17.46875 61.597656 17.34375 61.613281 17.117188 C 61.632812 16.894531 61.742188 16.796875 61.949219 16.828125 C 62.410156 16.886719 63.085938 16.929688 63.972656 16.9375 L 65.808594 16.945312 C 66.007812 16.949219 66.101562 17.070312 66.101562 17.296875 C 66.101562 17.511719 65.945312 17.632812 65.628906 17.644531 C 65.136719 17.664062 64.667969 17.777344 64.234375 17.980469 C 63.625 18.257812 62.972656 18.742188 62.277344 19.441406 C 62.226562 19.480469 62.199219 19.53125 62.199219 19.585938 C 62.199219 19.675781 62.308594 19.890625 62.527344 20.230469 C 63.332031 21.457031 64.089844 22.371094 64.800781 22.996094 C 65.257812 23.386719 65.683594 23.582031 66.082031 23.582031 C 66.375 23.582031 66.558594 23.601562 66.628906 23.644531 C 66.699219 23.6875 66.734375 23.796875 66.734375 23.976562 Z M 66.746094 23.984375 " fill-opacity="1" fill-rule="nonzero"/></svg>