<svg xmlns="http://www.w3.org/2000/svg" xmlns:xlink="http://www.w3.org/1999/xlink" width="96" zoomAndPan="magnify" viewBox="0 0 72 36.000001" height="48" preserveAspectRatio="xMidYMid meet" version="1.0"><path fill="#362701" d="M 43.023438 15.335938 C 42.03125 15.335938 41.289062 15.824219 41.289062 16.996094 C 41.289062 17.871094 41.777344 18.496094 42.96875 18.496094 C 43.980469 18.496094 44.664062 17.898438 44.664062 16.960938 C 44.664062 15.894531 44.050781 15.335938 43.023438 15.335938 Z M 41.039062 23.621094 C 40.804688 23.910156 40.570312 24.214844 40.570312 24.570312 C 40.570312 25.289062 41.488281 25.507812 42.753906 25.507812 C 43.796875 25.507812 45.222656 25.433594 45.222656 24.460938 C 45.222656 23.882812 44.539062 23.847656 43.671875 23.792969 L 41.042969 23.613281 Z M 46.378906 15.390625 C 46.703125 15.804688 47.046875 16.382812 47.046875 17.210938 C 47.046875 19.214844 45.472656 20.386719 43.203125 20.386719 C 42.621094 20.386719 42.109375 20.316406 41.777344 20.226562 L 41.183594 21.175781 L 42.949219 21.28125 C 46.074219 21.480469 47.914062 21.574219 47.914062 23.972656 C 47.914062 26.046875 46.09375 27.21875 42.949219 27.21875 C 39.683594 27.21875 38.441406 26.386719 38.441406 24.957031 C 38.441406 24.144531 38.800781 23.710938 39.433594 23.113281 C 38.835938 22.863281 38.640625 22.410156 38.640625 21.925781 C 38.640625 21.527344 38.835938 21.167969 39.164062 20.832031 L 40.28125 19.746094 C 39.394531 19.316406 38.726562 18.375 38.726562 17.046875 C 38.726562 14.972656 40.101562 13.546875 42.859375 13.546875 C 43.636719 13.546875 44.105469 13.617188 44.523438 13.726562 L 48.042969 13.726562 L 48.042969 15.261719 L 46.378906 15.386719 M 51.214844 12.109375 C 50.195312 12.109375 49.589844 11.515625 49.589844 10.484375 C 49.589844 9.453125 50.1875 8.898438 51.214844 8.898438 C 52.261719 8.898438 52.855469 9.457031 52.855469 10.484375 C 52.855469 11.511719 52.261719 12.109375 51.214844 12.109375 Z M 48.878906 22.957031 L 48.878906 21.53125 L 49.800781 21.40625 C 50.054688 21.367188 50.089844 21.316406 50.089844 21.042969 L 50.089844 15.738281 C 50.089844 15.539062 50.035156 15.414062 49.855469 15.359375 L 48.878906 15.015625 L 49.078125 13.554688 L 52.816406 13.554688 L 52.816406 21.046875 C 52.816406 21.335938 52.832031 21.371094 53.105469 21.40625 L 54.023438 21.535156 L 54.023438 22.957031 L 48.878906 22.957031 M 61.167969 22.257812 C 60.390625 22.636719 59.253906 22.988281 58.226562 22.988281 C 56.078125 22.988281 55.265625 22.121094 55.265625 20.082031 L 55.265625 15.351562 C 55.265625 15.246094 55.265625 15.171875 55.117188 15.171875 L 53.863281 15.171875 L 53.863281 13.566406 C 55.453125 13.390625 56.082031 12.589844 56.28125 10.625 L 57.996094 10.625 L 57.996094 13.1875 C 57.996094 13.3125 57.996094 13.367188 58.140625 13.367188 L 60.6875 13.367188 L 60.6875 15.171875 L 57.992188 15.171875 L 57.992188 19.476562 C 57.992188 20.542969 58.246094 20.957031 59.21875 20.957031 C 59.722656 20.957031 60.238281 20.832031 60.679688 20.667969 L 61.167969 22.257812 " fill-opacity="1" fill-rule="nonzero"/><path fill="#f03c2e" d="M 30.554688 17.074219 L 19.734375 6.257812 C 19.113281 5.636719 18.101562 5.636719 17.476562 6.257812 L 15.234375 8.503906 L 18.082031 11.351562 C 18.742188 11.128906 19.503906 11.28125 20.03125 11.808594 C 20.285156 12.0625 20.453125 12.371094 20.535156 12.722656 C 20.617188 13.078125 20.597656 13.425781 20.480469 13.769531 L 23.226562 16.515625 C 23.882812 16.285156 24.65625 16.433594 25.1875 16.964844 C 25.425781 17.203125 25.589844 17.488281 25.679688 17.816406 C 25.765625 18.144531 25.765625 18.472656 25.679688 18.796875 C 25.589844 19.125 25.425781 19.410156 25.1875 19.648438 C 24.949219 19.890625 24.664062 20.054688 24.335938 20.140625 C 24.007812 20.226562 23.679688 20.226562 23.351562 20.140625 C 23.023438 20.054688 22.742188 19.890625 22.5 19.648438 C 21.945312 19.089844 21.808594 18.269531 22.089844 17.585938 L 19.535156 15.03125 L 19.535156 21.769531 C 19.710938 21.859375 19.886719 21.976562 20.035156 22.128906 C 20.777344 22.871094 20.777344 24.070312 20.035156 24.8125 C 19.859375 24.992188 19.652344 25.128906 19.421875 25.226562 C 19.1875 25.324219 18.945312 25.371094 18.695312 25.371094 C 18.441406 25.371094 18.199219 25.324219 17.96875 25.226562 C 17.734375 25.128906 17.53125 24.992188 17.351562 24.8125 C 16.609375 24.070312 16.609375 22.871094 17.351562 22.128906 C 17.53125 21.949219 17.738281 21.8125 17.972656 21.714844 L 17.972656 14.914062 C 17.753906 14.820312 17.535156 14.683594 17.351562 14.503906 C 17.078125 14.230469 16.90625 13.90625 16.832031 13.527344 C 16.757812 13.152344 16.792969 12.785156 16.945312 12.429688 L 14.132812 9.621094 L 6.710938 17.023438 C 6.5625 17.175781 6.449219 17.347656 6.367188 17.542969 C 6.285156 17.738281 6.246094 17.941406 6.246094 18.152344 C 6.246094 18.363281 6.285156 18.566406 6.367188 18.765625 C 6.449219 18.960938 6.5625 19.132812 6.710938 19.28125 L 17.53125 30.097656 C 18.152344 30.722656 19.164062 30.722656 19.789062 30.097656 L 30.554688 19.332031 C 30.703125 19.183594 30.816406 19.011719 30.898438 18.816406 C 30.980469 18.617188 31.019531 18.414062 31.019531 18.203125 C 31.019531 17.992188 30.980469 17.789062 30.898438 17.59375 C 30.816406 17.398438 30.703125 17.226562 30.554688 17.074219 " fill-opacity="1" fill-rule="nonzero"/></svg>