<svg xmlns="http://www.w3.org/2000/svg" xmlns:xlink="http://www.w3.org/1999/xlink" width="96" zoomAndPan="magnify" viewBox="0 0 72 36.000001" height="48" preserveAspectRatio="xMidYMid meet" version="1.0"><defs><clipPath id="628963b922"><path d="M 10.023438 23.78125 L 16.628906 23.78125 L 16.628906 27 L 10.023438 27 Z M 10.023438 23.78125 " clip-rule="nonzero"/></clipPath><clipPath id="36b4d33574"><path d="M 14.972656 24.402344 C 15.015625 24.269531 15.019531 24.070312 14.621094 24.164062 C 14.621094 24.164062 13.53125 24.316406 13.480469 25.589844 L 13.457031 28.023438 L 13.195312 28.023438 L 13.167969 25.589844 C 13.117188 24.316406 12.027344 24.164062 12.027344 24.164062 C 11.632812 24.070312 11.636719 24.269531 11.675781 24.398438 C 11.285156 23.734375 10.238281 23.820312 10.238281 23.820312 C 9.875 23.949219 10.214844 24.183594 10.214844 24.183594 C 10.785156 24.390625 10.835938 25.015625 10.835938 25.015625 L 10.835938 26.773438 L 10.898438 28.132812 C 11.027344 28.738281 11.34375 29.09375 11.660156 29.304688 L 15 29.300781 C 15.402344 29.027344 15.816406 28.507812 15.816406 27.527344 L 15.816406 25.015625 C 15.816406 25.015625 15.867188 24.390625 16.4375 24.183594 C 16.4375 24.183594 16.773438 23.949219 16.410156 23.820312 C 16.410156 23.820312 16.367188 23.816406 16.292969 23.816406 C 16.007812 23.816406 15.285156 23.871094 14.972656 24.402344 M 11.820312 26.90625 L 11.820312 24.988281 C 11.820312 24.800781 11.789062 24.644531 11.730469 24.511719 C 12.109375 24.804688 12.132812 25.535156 12.132812 25.535156 L 12.132812 27.933594 C 11.757812 27.667969 11.820312 26.90625 11.820312 26.90625 M 14.519531 25.535156 C 14.519531 25.535156 14.542969 24.804688 14.921875 24.511719 C 14.863281 24.644531 14.832031 24.800781 14.832031 24.988281 L 14.832031 26.90625 C 14.832031 26.90625 14.894531 27.613281 14.519531 27.90625 Z M 14.519531 25.535156 " clip-rule="nonzero"/></clipPath></defs><path fill="#a0dcf2" d="M 19.242188 24.476562 C 19.242188 25.605469 16.628906 26.519531 13.40625 26.519531 C 10.183594 26.519531 7.570312 25.605469 7.570312 24.476562 C 7.570312 23.347656 10.183594 22.433594 13.40625 22.433594 C 16.628906 22.433594 19.242188 23.351562 19.242188 24.476562 " fill-opacity="1" fill-rule="nonzero"/><g clip-path="url(#628963b922)"><g clip-path="url(#36b4d33574)"><path fill="#82bde7" d="M 19.242188 24.476562 C 19.242188 25.605469 16.628906 26.519531 13.40625 26.519531 C 10.183594 26.519531 7.570312 25.605469 7.570312 24.476562 C 7.570312 23.347656 10.183594 22.433594 13.40625 22.433594 C 16.628906 22.433594 19.242188 23.351562 19.242188 24.476562 " fill-opacity="1" fill-rule="nonzero"/></g></g><path fill="#a0dcf2" d="M 6.742188 18.472656 L 6.574219 19.058594 C 6.574219 19.058594 6.527344 19.269531 6.726562 19.308594 C 6.9375 19.304688 6.921875 19.109375 6.90625 19.046875 Z M 6.742188 18.472656 " fill-opacity="1" fill-rule="nonzero"/><path fill="#292929" d="M 23.707031 16.011719 L 23.722656 15.933594 C 22.007812 15.59375 20.253906 15.589844 19.1875 15.632812 C 19.363281 15.003906 19.414062 14.28125 19.414062 13.472656 C 19.414062 12.316406 18.980469 11.390625 18.273438 10.683594 C 18.398438 10.285156 18.5625 9.402344 18.109375 8.269531 C 18.109375 8.269531 17.308594 8.015625 15.503906 9.226562 C 14.796875 9.046875 14.042969 8.960938 13.289062 8.960938 C 12.457031 8.960938 11.621094 9.066406 10.835938 9.28125 C 8.972656 8.007812 8.148438 8.269531 8.148438 8.269531 C 7.613281 9.613281 7.945312 10.609375 8.046875 10.855469 C 7.414062 11.535156 7.027344 12.40625 7.027344 13.472656 C 7.027344 14.277344 7.121094 15 7.34375 15.628906 C 6.273438 15.589844 4.578125 15.605469 2.925781 15.933594 L 2.941406 16.011719 C 4.601562 15.679688 6.308594 15.667969 7.371094 15.707031 C 7.421875 15.835938 7.476562 15.960938 7.535156 16.085938 C 6.484375 16.121094 4.683594 16.253906 2.960938 16.738281 L 2.980469 16.816406 C 4.71875 16.324219 6.535156 16.195312 7.578125 16.164062 C 8.207031 17.335938 9.449219 18.09375 11.65625 18.328125 C 11.34375 18.539062 11.023438 18.898438 10.894531 19.503906 C 10.464844 19.707031 9.113281 20.207031 8.304688 18.8125 C 8.304688 18.8125 7.847656 17.980469 6.980469 17.917969 C 6.980469 17.917969 6.136719 17.90625 6.921875 18.441406 C 6.921875 18.441406 7.484375 18.707031 7.875 19.707031 C 7.875 19.707031 8.382812 21.410156 10.832031 20.863281 L 10.832031 22.621094 C 10.832031 22.621094 10.78125 23.246094 10.210938 23.453125 C 10.210938 23.453125 9.871094 23.6875 10.234375 23.816406 C 10.234375 23.816406 11.816406 23.945312 11.816406 22.648438 L 11.816406 20.730469 C 11.816406 20.730469 11.753906 19.96875 12.128906 19.703125 L 12.128906 22.859375 C 12.128906 22.859375 12.101562 23.609375 11.714844 23.894531 C 11.714844 23.894531 11.453125 24.363281 12.023438 24.234375 C 12.023438 24.234375 13.113281 24.078125 13.164062 22.804688 L 13.191406 19.617188 L 13.453125 19.617188 L 13.476562 22.804688 C 13.527344 24.078125 14.617188 24.234375 14.617188 24.234375 C 15.1875 24.363281 14.929688 23.894531 14.929688 23.894531 C 14.539062 23.609375 14.515625 22.859375 14.515625 22.859375 L 14.515625 19.734375 C 14.886719 20.023438 14.824219 20.730469 14.824219 20.730469 L 14.824219 22.652344 C 14.824219 23.949219 16.40625 23.816406 16.40625 23.816406 C 16.769531 23.6875 16.433594 23.453125 16.433594 23.453125 C 15.863281 23.246094 15.8125 22.625 15.8125 22.625 L 15.8125 20.109375 C 15.8125 19.128906 15.398438 18.609375 14.992188 18.335938 C 17.347656 18.101562 18.476562 17.339844 19 16.160156 C 20.03125 16.1875 21.886719 16.3125 23.660156 16.816406 L 23.683594 16.742188 C 21.917969 16.242188 20.074219 16.113281 19.03125 16.082031 C 19.082031 15.964844 19.125 15.839844 19.164062 15.710938 C 20.21875 15.667969 21.984375 15.667969 23.703125 16.011719 " fill-opacity="1" fill-rule="nonzero"/><path fill="#f5cdb5" d="M 17.113281 13.417969 C 17.621094 13.878906 17.917969 14.433594 17.917969 15.03125 C 17.917969 17.820312 15.835938 17.894531 13.269531 17.894531 C 10.703125 17.894531 8.625 17.511719 8.625 15.03125 C 8.625 14.4375 8.917969 13.886719 9.417969 13.429688 C 10.253906 12.664062 11.667969 13.070312 13.269531 13.070312 C 14.867188 13.070312 16.277344 12.660156 17.113281 13.417969 " fill-opacity="1" fill-rule="nonzero"/><path fill="#ffffff" d="M 11.726562 15.171875 C 11.726562 15.941406 11.292969 16.566406 10.757812 16.566406 C 10.222656 16.566406 9.792969 15.941406 9.792969 15.171875 C 9.792969 14.40625 10.222656 13.78125 10.757812 13.78125 C 11.292969 13.78125 11.726562 14.40625 11.726562 15.171875 " fill-opacity="1" fill-rule="nonzero"/><path fill="#b1645a" d="M 11.414062 15.191406 C 11.414062 15.703125 11.125 16.117188 10.769531 16.117188 C 10.414062 16.117188 10.125 15.703125 10.125 15.191406 C 10.125 14.679688 10.414062 14.261719 10.769531 14.261719 C 11.125 14.261719 11.414062 14.679688 11.414062 15.191406 " fill-opacity="1" fill-rule="nonzero"/><path fill="#ffffff" d="M 16.914062 15.171875 C 16.914062 15.941406 16.480469 16.566406 15.945312 16.566406 C 15.410156 16.566406 14.980469 15.941406 14.980469 15.171875 C 14.980469 14.40625 15.410156 13.78125 15.945312 13.78125 C 16.480469 13.78125 16.914062 14.40625 16.914062 15.171875 " fill-opacity="1" fill-rule="nonzero"/><path fill="#b1645a" d="M 16.601562 15.191406 C 16.601562 15.703125 16.3125 16.117188 15.957031 16.117188 C 15.601562 16.117188 15.3125 15.703125 15.3125 15.191406 C 15.3125 14.679688 15.601562 14.261719 15.957031 14.261719 C 16.3125 14.261719 16.601562 14.679688 16.601562 15.191406 M 13.527344 16.40625 C 13.527344 16.542969 13.417969 16.648438 13.285156 16.648438 C 13.152344 16.648438 13.042969 16.542969 13.042969 16.40625 C 13.042969 16.273438 13.152344 16.164062 13.285156 16.164062 C 13.417969 16.164062 13.527344 16.273438 13.527344 16.40625 M 12.722656 17.019531 C 12.703125 16.96875 12.71875 16.9375 12.769531 16.921875 C 12.816406 16.902344 12.851562 16.917969 12.867188 16.96875 C 12.929688 17.144531 13.097656 17.261719 13.28125 17.261719 C 13.46875 17.261719 13.632812 17.144531 13.695312 16.96875 C 13.714844 16.917969 13.746094 16.902344 13.796875 16.921875 C 13.84375 16.9375 13.859375 16.96875 13.84375 17.019531 C 13.75 17.28125 13.5625 17.414062 13.28125 17.414062 C 13.003906 17.414062 12.816406 17.28125 12.722656 17.019531 " fill-opacity="1" fill-rule="nonzero"/><path fill="#c5e6da" d="M 7.359375 18.125 C 7.359375 18.191406 7.285156 18.242188 7.191406 18.242188 C 7.097656 18.242188 7.023438 18.191406 7.023438 18.125 C 7.023438 18.0625 7.097656 18.007812 7.191406 18.007812 C 7.285156 18.007812 7.359375 18.0625 7.359375 18.125 M 7.828125 18.386719 C 7.828125 18.449219 7.75 18.503906 7.65625 18.503906 C 7.566406 18.503906 7.488281 18.449219 7.488281 18.386719 C 7.488281 18.320312 7.566406 18.269531 7.65625 18.269531 C 7.75 18.269531 7.828125 18.320312 7.828125 18.386719 M 8.113281 18.722656 C 8.113281 18.785156 8.035156 18.839844 7.945312 18.839844 C 7.851562 18.839844 7.773438 18.785156 7.773438 18.722656 C 7.773438 18.65625 7.851562 18.605469 7.945312 18.605469 C 8.035156 18.605469 8.113281 18.65625 8.113281 18.722656 M 8.371094 19.109375 C 8.371094 19.175781 8.296875 19.226562 8.203125 19.226562 C 8.109375 19.226562 8.035156 19.175781 8.035156 19.109375 C 8.035156 19.046875 8.109375 18.992188 8.203125 18.992188 C 8.296875 18.992188 8.371094 19.046875 8.371094 19.109375 M 8.65625 19.476562 C 8.65625 19.539062 8.582031 19.589844 8.488281 19.589844 C 8.394531 19.589844 8.320312 19.539062 8.320312 19.476562 C 8.320312 19.410156 8.394531 19.359375 8.488281 19.359375 C 8.582031 19.359375 8.65625 19.410156 8.65625 19.476562 M 9.046875 19.785156 C 9.046875 19.851562 8.96875 19.902344 8.878906 19.902344 C 8.785156 19.902344 8.707031 19.851562 8.707031 19.785156 C 8.707031 19.722656 8.785156 19.667969 8.878906 19.667969 C 8.96875 19.667969 9.046875 19.722656 9.046875 19.785156 " fill-opacity="1" fill-rule="nonzero"/><path fill="#c5e6da" d="M 9.589844 19.992188 C 9.589844 20.058594 9.515625 20.109375 9.421875 20.109375 C 9.328125 20.109375 9.253906 20.058594 9.253906 19.992188 C 9.253906 19.929688 9.328125 19.875 9.421875 19.875 C 9.515625 19.875 9.589844 19.929688 9.589844 19.992188 " fill-opacity="1" fill-rule="nonzero"/><path fill="#c5e6da" d="M 10.132812 19.992188 C 10.132812 20.058594 10.058594 20.109375 9.964844 20.109375 C 9.871094 20.109375 9.796875 20.058594 9.796875 19.992188 C 9.796875 19.929688 9.871094 19.875 9.964844 19.875 C 10.058594 19.875 10.132812 19.929688 10.132812 19.992188 " fill-opacity="1" fill-rule="nonzero"/><path fill="#c5e6da" d="M 10.683594 19.902344 C 10.683594 19.96875 10.605469 20.019531 10.515625 20.019531 C 10.421875 20.019531 10.34375 19.96875 10.34375 19.902344 C 10.34375 19.839844 10.421875 19.785156 10.515625 19.785156 C 10.609375 19.785156 10.683594 19.839844 10.683594 19.902344 " fill-opacity="1" fill-rule="nonzero"/><path fill="#000000" d="M 30.550781 12.34375 C 31.191406 12.34375 31.925781 12.183594 32.761719 11.867188 L 32.761719 13.917969 C 32.574219 13.984375 32.308594 14.054688 31.964844 14.136719 C 32.070312 14.441406 32.125 14.726562 32.125 14.992188 C 32.125 15.839844 31.863281 16.582031 31.347656 17.222656 C 30.839844 17.859375 30.183594 18.226562 29.375 18.332031 C 28.851562 18.410156 28.582031 18.695312 28.582031 19.1875 C 28.582031 19.359375 28.667969 19.535156 28.839844 19.703125 C 29.0625 19.957031 29.394531 20.117188 29.835938 20.179688 C 31.730469 20.472656 32.679688 21.261719 32.679688 22.550781 C 32.679688 24.609375 31.453125 25.636719 29.003906 25.636719 C 27.996094 25.636719 27.164062 25.457031 26.515625 25.097656 C 25.699219 24.648438 25.28125 23.929688 25.28125 22.96875 C 25.28125 21.859375 25.898438 21.089844 27.132812 20.679688 L 27.132812 20.640625 C 26.679688 20.359375 26.453125 19.9375 26.453125 19.367188 C 26.453125 18.621094 26.667969 18.15625 27.097656 17.972656 L 27.097656 17.933594 C 26.671875 17.785156 26.292969 17.453125 25.960938 16.9375 C 25.589844 16.378906 25.402344 15.78125 25.402344 15.144531 C 25.402344 14.1875 25.742188 13.394531 26.417969 12.753906 C 27.078125 12.140625 27.855469 11.84375 28.753906 11.859375 C 29.402344 11.855469 30.003906 12.015625 30.566406 12.335938 M 27.582031 15.164062 C 27.582031 16.082031 28 16.539062 28.835938 16.539062 C 29.644531 16.539062 30.046875 16.074219 30.046875 15.144531 C 30.046875 14.757812 29.953125 14.425781 29.769531 14.148438 C 29.542969 13.84375 29.234375 13.691406 28.835938 13.691406 C 28 13.691406 27.582031 14.183594 27.582031 15.164062 M 30.644531 22.808594 C 30.644531 22.132812 30.089844 21.792969 28.972656 21.792969 C 27.898438 21.792969 27.359375 22.144531 27.359375 22.847656 C 27.359375 23.539062 27.945312 23.882812 29.113281 23.882812 C 30.132812 23.882812 30.644531 23.523438 30.644531 22.808594 M 35.007812 10.410156 C 34.621094 10.410156 34.289062 10.265625 34.011719 9.972656 C 33.742188 9.683594 33.609375 9.335938 33.613281 8.9375 C 33.613281 8.527344 33.746094 8.175781 34.011719 7.882812 C 34.289062 7.59375 34.621094 7.445312 35.007812 7.445312 C 35.378906 7.445312 35.699219 7.59375 35.964844 7.882812 C 36.242188 8.175781 36.382812 8.527344 36.382812 8.9375 C 36.386719 9.34375 36.246094 9.6875 35.964844 9.972656 C 35.699219 10.265625 35.378906 10.410156 35.007812 10.410156 M 33.871094 20.804688 C 33.898438 20.539062 33.914062 20.085938 33.914062 19.449219 L 33.914062 13.257812 L 33.871094 11.964844 L 36.117188 11.964844 C 36.089844 12.21875 36.078125 12.636719 36.078125 13.21875 L 36.078125 19.332031 L 36.117188 20.804688 L 33.867188 20.804688 M 40.289062 11.964844 L 42.019531 11.964844 L 42.019531 13.894531 C 41.894531 13.894531 41.769531 13.886719 41.640625 13.875 L 41.144531 13.855469 L 40.289062 13.855469 L 40.289062 17.558594 C 40.289062 18.449219 40.582031 18.894531 41.164062 18.894531 C 41.570312 18.898438 41.941406 18.785156 42.277344 18.554688 L 42.277344 20.539062 C 41.789062 20.804688 41.199219 20.9375 40.507812 20.9375 C 39.539062 20.9375 38.867188 20.585938 38.496094 19.902344 C 38.21875 19.382812 38.078125 18.570312 38.078125 17.453125 L 38.078125 13.890625 L 38.097656 13.890625 L 38.097656 13.851562 L 37.800781 13.832031 C 37.574219 13.835938 37.347656 13.855469 37.121094 13.890625 L 37.121094 11.960938 L 38.097656 11.960938 L 38.097656 11.183594 C 38.097656 10.8125 38.078125 10.511719 38.039062 10.285156 L 40.347656 10.285156 C 40.308594 10.539062 40.289062 10.824219 40.289062 11.144531 L 40.289062 11.957031 M 47.351562 11.90625 C 46.78125 11.90625 46.183594 12.105469 45.558594 12.503906 L 45.558594 9.019531 L 45.597656 7.523438 L 43.328125 7.523438 C 43.367188 7.738281 43.390625 8.234375 43.390625 9.019531 L 43.390625 19.550781 L 43.328125 20.804688 L 45.640625 20.804688 C 45.640625 20.765625 45.625 20.605469 45.597656 20.324219 L 45.558594 19.546875 L 45.558594 14.652344 C 46.023438 14.214844 46.476562 13.996094 46.914062 13.996094 C 47.417969 13.996094 47.804688 14.25 48.070312 14.753906 C 48.265625 15.152344 48.367188 15.648438 48.367188 16.246094 L 48.347656 18.933594 C 48.347656 19.386719 48.3125 20.007812 48.25 20.804688 L 50.65625 20.804688 C 50.597656 20.472656 50.578125 19.863281 50.578125 18.972656 L 50.578125 16.246094 C 50.578125 15.09375 50.320312 14.109375 49.800781 13.300781 C 49.21875 12.367188 48.398438 11.90625 47.351562 11.90625 M 55.003906 20.882812 C 53.953125 20.882812 53.175781 20.417969 52.667969 19.488281 C 52.269531 18.734375 52.070312 17.738281 52.070312 16.523438 L 52.070312 13.796875 L 51.992188 11.964844 L 54.378906 11.964844 C 54.339844 12.257812 54.3125 12.882812 54.300781 13.835938 L 54.28125 16.523438 C 54.28125 17.28125 54.367188 17.824219 54.539062 18.15625 C 54.738281 18.570312 55.101562 18.773438 55.632812 18.773438 C 56.003906 18.773438 56.421875 18.554688 56.886719 18.117188 L 56.886719 13.214844 C 56.886719 12.953125 56.871094 12.695312 56.847656 12.4375 L 56.808594 11.960938 L 59.117188 11.960938 C 59.089844 12.1875 59.078125 12.605469 59.078125 13.214844 L 59.078125 19.3125 L 59.117188 20.804688 L 56.957031 20.804688 L 56.957031 20.082031 C 56.347656 20.609375 55.695312 20.878906 55.007812 20.878906 M 64.796875 20.859375 C 64.082031 20.875 63.484375 20.617188 63.003906 20.082031 L 63.003906 20.800781 L 60.894531 20.800781 C 60.933594 20.574219 60.953125 20.15625 60.953125 19.546875 L 60.953125 9.019531 L 60.894531 7.527344 L 63.164062 7.527344 C 63.136719 7.757812 63.125 8.261719 63.125 9.019531 L 63.125 12.484375 C 63.734375 12.097656 64.332031 11.898438 64.917969 11.898438 C 65.964844 11.898438 66.789062 12.363281 67.386719 13.292969 C 67.890625 14.101562 68.144531 15.085938 68.144531 16.238281 C 68.144531 17.421875 67.878906 18.449219 67.347656 19.324219 C 66.703125 20.347656 65.859375 20.859375 64.796875 20.859375 M 64.5 13.992188 C 64.0625 13.992188 63.605469 14.210938 63.125 14.648438 L 63.125 18.097656 C 63.550781 18.507812 63.96875 18.714844 64.378906 18.714844 C 64.898438 18.714844 65.289062 18.421875 65.554688 17.859375 C 65.765625 17.40625 65.875 16.871094 65.875 16.246094 C 65.875 14.746094 65.414062 13.996094 64.5 13.996094 " fill-opacity="1" fill-rule="nonzero"/></svg>