<svg xmlns="http://www.w3.org/2000/svg" xmlns:xlink="http://www.w3.org/1999/xlink" width="96" zoomAndPan="magnify" viewBox="0 0 72 36.000001" height="48" preserveAspectRatio="xMidYMid meet" version="1.0"><defs><clipPath id="6e34adefa4"><path d="M 26.734375 9 L 44.976562 9 L 44.976562 26 L 26.734375 26 Z M 26.734375 9 " clip-rule="nonzero"/></clipPath></defs><g clip-path="url(#6e34adefa4)"><path fill="#149287" d="M 44.394531 13 C 44.324219 12.808594 44.101562 12.710938 43.914062 12.789062 C 43.765625 12.851562 43.691406 12.960938 43.691406 13.121094 C 43.691406 13.160156 43.703125 13.210938 43.710938 13.25 C 44.0625 14.171875 44.242188 15.164062 44.242188 16.207031 C 44.242188 20.46875 41.066406 23.984375 36.957031 24.527344 L 36.957031 20.609375 C 37.207031 20.558594 37.449219 20.496094 37.6875 20.417969 L 37.6875 23.707031 C 41.066406 22.882812 43.574219 19.835938 43.574219 16.207031 C 43.574219 13.300781 41.957031 10.765625 39.582031 9.453125 C 39.402344 9.351562 39.171875 9.421875 39.082031 9.613281 C 39.050781 9.664062 39.042969 9.722656 39.042969 9.773438 C 39.042969 9.902344 39.113281 10.023438 39.230469 10.09375 C 41.386719 11.285156 42.839844 13.582031 42.839844 16.207031 C 42.839844 19.164062 41.007812 21.691406 38.410156 22.714844 L 38.410156 19.796875 C 38.863281 19.65625 39.203125 19.234375 39.203125 18.734375 C 39.203125 18.324219 38.992188 17.960938 38.652344 17.773438 C 38.910156 15.253906 40.0625 15.917969 40.0625 15.113281 L 40.0625 14.644531 C 40.0625 13.441406 37.277344 9.519531 35.976562 9.429688 L 35.734375 9.429688 C 34.429688 9.519531 31.644531 13.441406 31.644531 14.644531 L 31.644531 15.113281 C 31.644531 15.917969 32.796875 15.253906 33.058594 17.773438 C 32.714844 17.960938 32.507812 18.324219 32.507812 18.734375 C 32.507812 19.234375 32.847656 19.65625 33.296875 19.796875 L 33.296875 22.714844 C 30.703125 21.691406 28.871094 19.164062 28.871094 16.207031 C 28.871094 13.570312 30.324219 11.285156 32.480469 10.09375 C 32.648438 10.003906 32.710938 9.792969 32.628906 9.613281 C 32.570312 9.480469 32.4375 9.410156 32.296875 9.410156 C 32.238281 9.410156 32.179688 9.421875 32.128906 9.460938 C 29.742188 10.773438 28.136719 13.300781 28.136719 16.21875 C 28.136719 19.847656 30.644531 22.894531 34.023438 23.714844 L 34.023438 20.425781 C 34.261719 20.507812 34.503906 20.578125 34.753906 20.617188 L 34.753906 24.539062 C 34.253906 24.472656 33.765625 24.359375 33.285156 24.207031 C 32.804688 24.050781 32.339844 23.855469 31.894531 23.617188 C 31.449219 23.378906 31.03125 23.101562 30.636719 22.789062 C 30.238281 22.476562 29.875 22.128906 29.542969 21.75 C 29.210938 21.371094 28.914062 20.964844 28.65625 20.53125 C 28.398438 20.097656 28.179688 19.644531 28 19.171875 C 27.824219 18.699219 27.6875 18.214844 27.597656 17.71875 C 27.507812 17.222656 27.464844 16.722656 27.464844 16.21875 C 27.464844 15.199219 27.640625 14.214844 27.996094 13.261719 C 28.03125 13.167969 28.027344 13.078125 27.988281 12.988281 C 27.949219 12.898438 27.886719 12.835938 27.796875 12.800781 C 27.75 12.78125 27.703125 12.769531 27.65625 12.769531 C 27.503906 12.769531 27.363281 12.859375 27.3125 13.011719 C 26.941406 14.011719 26.734375 15.09375 26.734375 16.21875 C 26.734375 21.128906 30.613281 25.140625 35.484375 25.328125 L 35.484375 20.707031 C 35.605469 20.714844 35.730469 20.71875 35.855469 20.71875 C 35.855469 20.71875 36.09375 20.71875 36.226562 20.707031 L 36.226562 25.328125 C 41.097656 25.136719 44.976562 21.128906 44.976562 16.21875 C 44.964844 15.085938 44.765625 14.003906 44.394531 13 Z M 37.527344 18.203125 C 37.667969 18.0625 37.847656 17.980469 38.058594 17.980469 C 38.269531 17.980469 38.449219 18.0625 38.589844 18.203125 C 38.730469 18.34375 38.8125 18.523438 38.8125 18.734375 C 38.8125 18.945312 38.730469 19.125 38.589844 19.265625 C 38.449219 19.40625 38.269531 19.484375 38.058594 19.484375 C 37.847656 19.484375 37.667969 19.40625 37.527344 19.265625 C 37.386719 19.125 37.308594 18.945312 37.308594 18.734375 C 37.316406 18.53125 37.398438 18.34375 37.527344 18.203125 Z M 34.171875 19.265625 C 34.03125 19.40625 33.847656 19.484375 33.636719 19.484375 C 33.429688 19.484375 33.25 19.40625 33.105469 19.265625 C 32.964844 19.125 32.886719 18.945312 32.886719 18.734375 C 32.886719 18.523438 32.964844 18.34375 33.105469 18.203125 C 33.25 18.0625 33.429688 17.980469 33.636719 17.980469 C 33.847656 17.980469 34.027344 18.0625 34.171875 18.203125 C 34.3125 18.34375 34.390625 18.523438 34.390625 18.734375 C 34.390625 18.941406 34.316406 19.117188 34.171875 19.265625 Z M 34.171875 19.265625 " fill-opacity="1" fill-rule="nonzero"/></g></svg>