<svg xmlns="http://www.w3.org/2000/svg" xmlns:xlink="http://www.w3.org/1999/xlink" width="96" zoomAndPan="magnify" viewBox="0 0 72 36.000001" height="48" preserveAspectRatio="xMidYMid meet" version="1.0"><path fill="#59666c" d="M 6.226562 14.515625 L 9.679688 8.535156 L 13.132812 14.515625 L 9.679688 20.507812 Z M 6.226562 14.515625 " fill-opacity="1" fill-rule="nonzero"/><path fill="#bcae79" d="M 20.046875 14.515625 L 16.589844 8.535156 L 9.683594 8.535156 L 13.136719 14.515625 Z M 20.046875 14.515625 " fill-opacity="1" fill-rule="nonzero"/><path fill="#59666c" d="M 23.496094 20.511719 L 20.042969 26.492188 L 16.585938 20.511719 L 20.042969 14.519531 Z M 23.496094 20.511719 " fill-opacity="1" fill-rule="nonzero"/><path fill="#bcae79" d="M 9.675781 20.511719 L 13.132812 26.492188 L 20.039062 26.492188 L 16.585938 20.507812 Z M 9.675781 20.511719 " fill-opacity="1" fill-rule="nonzero"/><path fill="#59666c" d="M 27.386719 20.121094 L 28.230469 20.121094 L 28.230469 17.785156 L 30.6875 17.785156 L 30.6875 20.121094 L 31.519531 20.121094 L 31.519531 14.914062 L 30.6875 14.914062 L 30.6875 17.066406 L 28.230469 17.066406 L 28.230469 14.914062 L 27.386719 14.914062 Z M 33.09375 20.121094 L 33.933594 20.121094 L 33.933594 14.914062 L 33.09375 14.914062 Z M 38.96875 18.546875 C 38.96875 18.007812 38.652344 17.496094 37.972656 17.359375 L 37.972656 17.34375 C 38.503906 17.160156 38.859375 16.6875 38.859375 16.15625 C 38.859375 15.355469 38.273438 14.890625 37.140625 14.890625 L 35.503906 14.914062 L 35.503906 20.121094 L 36.925781 20.144531 C 38.519531 20.144531 38.96875 19.226562 38.96875 18.546875 Z M 37.976562 16.289062 C 37.976562 16.8125 37.566406 17.128906 36.789062 17.128906 C 36.609375 17.128906 36.480469 17.128906 36.339844 17.121094 L 36.339844 15.578125 L 36.996094 15.5625 C 37.734375 15.5625 37.976562 15.863281 37.976562 16.289062 Z M 38.074219 18.5625 C 38.074219 19.085938 37.714844 19.457031 36.949219 19.457031 C 36.679688 19.457031 36.46875 19.441406 36.339844 19.417969 L 36.339844 17.761719 C 36.457031 17.753906 36.726562 17.753906 36.808594 17.753906 C 37.542969 17.753906 38.074219 17.96875 38.074219 18.5625 Z M 41.042969 15.617188 L 42.949219 15.617188 L 42.949219 14.914062 L 40.203125 14.914062 L 40.203125 20.121094 L 42.949219 20.121094 L 42.949219 19.402344 L 41.050781 19.402344 L 41.050781 17.78125 L 42.863281 17.78125 L 42.863281 17.09375 L 41.050781 17.09375 Z M 47.820312 20.121094 L 46.445312 18.308594 L 46.007812 17.753906 C 46.855469 17.660156 47.480469 17.128906 47.480469 16.296875 C 47.480469 15.261719 46.738281 14.882812 45.660156 14.882812 L 44.257812 14.914062 L 44.257812 20.121094 L 45.097656 20.121094 L 45.097656 17.867188 L 45.136719 17.867188 L 46.757812 20.121094 Z M 46.601562 16.386719 C 46.601562 16.902344 46.191406 17.25 45.511719 17.25 C 45.375 17.253906 45.238281 17.246094 45.105469 17.234375 L 45.105469 15.585938 L 45.542969 15.570312 C 46.246094 15.570312 46.59375 15.816406 46.59375 16.386719 Z M 46.601562 16.386719 " fill-opacity="1" fill-rule="nonzero"/><path fill="#bcae79" d="M 53.074219 20.121094 L 53.074219 14.914062 L 52.257812 14.914062 L 52.257812 16.460938 L 52.3125 18.9375 L 51.679688 17.757812 L 49.960938 14.921875 L 48.851562 14.921875 L 48.851562 20.125 L 49.667969 20.125 L 49.667969 18.375 L 49.621094 16.070312 L 50.207031 17.164062 L 51.988281 20.125 Z M 58.632812 20.121094 L 56.746094 14.914062 L 55.8125 14.914062 L 53.945312 20.121094 L 54.792969 20.121094 L 55.195312 18.972656 L 57.300781 18.972656 L 57.699219 20.121094 Z M 57.078125 18.300781 L 55.410156 18.300781 L 55.996094 16.6875 C 56.097656 16.410156 56.183594 16.125 56.230469 15.863281 L 56.246094 15.863281 C 56.300781 16.136719 56.378906 16.402344 56.476562 16.664062 Z M 58.457031 15.625 L 59.882812 15.625 L 59.882812 20.121094 L 60.722656 20.121094 L 60.722656 15.625 L 62.15625 15.625 L 62.15625 14.914062 L 58.457031 14.914062 Z M 63.867188 15.617188 L 65.773438 15.617188 L 65.773438 14.914062 L 63.027344 14.914062 L 63.027344 20.121094 L 65.773438 20.121094 L 65.773438 19.402344 L 63.867188 19.402344 L 63.867188 17.78125 L 65.679688 17.78125 L 65.679688 17.09375 L 63.867188 17.09375 Z M 63.867188 15.617188 " fill-opacity="1" fill-rule="nonzero"/></svg>