<svg xmlns="http://www.w3.org/2000/svg" xmlns:xlink="http://www.w3.org/1999/xlink" width="96" zoomAndPan="magnify" viewBox="0 0 72 36.000001" height="48" preserveAspectRatio="xMidYMid meet" version="1.0"><path fill="#000000" d="M 4.652344 12.535156 L 7.976562 12.535156 L 7.976562 15.824219 L 11.023438 15.824219 L 11.023438 12.535156 L 14.347656 12.535156 L 14.347656 22.492188 L 11.023438 22.492188 L 11.023438 19.164062 L 7.976562 19.164062 L 7.976562 22.492188 L 4.652344 22.492188 Z M 18.722656 15.839844 L 15.789062 15.839844 L 15.789062 12.539062 L 24.976562 12.539062 L 24.976562 15.839844 L 22.046875 15.839844 L 22.046875 22.492188 L 18.71875 22.492188 L 18.71875 15.839844 Z M 26.433594 12.535156 L 29.902344 12.535156 L 32.039062 16.039062 L 34.167969 12.535156 L 37.632812 12.535156 L 37.632812 22.492188 L 34.320312 22.492188 L 34.320312 17.554688 L 32.03125 21.09375 L 31.976562 21.09375 L 29.695312 17.558594 L 29.695312 22.492188 L 26.441406 22.492188 Z M 39.292969 12.535156 L 42.621094 12.535156 L 42.621094 19.207031 L 47.300781 19.207031 L 47.300781 22.496094 L 39.296875 22.496094 Z M 39.292969 12.535156 " fill-opacity="1" fill-rule="nonzero"/><path fill="#e44d26" d="M 48.882812 7.039062 L 67.351562 7.039062 L 65.671875 25.890625 L 58.109375 27.988281 L 50.566406 25.890625 Z M 48.882812 7.039062 " fill-opacity="1" fill-rule="nonzero"/><path fill="#f16529" d="M 64.230469 24.691406 L 65.667969 8.582031 L 58.125 8.582031 L 58.125 26.382812 Z M 64.230469 24.691406 " fill-opacity="1" fill-rule="nonzero"/><path fill="#ebebeb" d="M 55.058594 15.574219 L 54.847656 13.207031 L 58.125 13.207031 L 58.125 10.894531 L 52.328125 10.894531 L 52.953125 17.886719 L 58.125 17.886719 L 58.125 15.574219 Z M 53.046875 19.042969 L 53.371094 22.675781 L 58.109375 23.988281 L 58.121094 23.984375 L 58.121094 21.582031 L 58.109375 21.582031 L 55.539062 20.882812 L 55.375 19.039062 L 54.125 19.039062 Z M 53.046875 19.042969 " fill-opacity="1" fill-rule="nonzero"/><path fill="#ffffff" d="M 63.429688 16.195312 L 63.484375 15.574219 L 58.113281 15.574219 L 58.113281 17.886719 L 60.960938 17.886719 L 60.691406 20.882812 L 58.113281 21.578125 L 58.113281 23.984375 L 62.851562 22.671875 L 62.886719 22.28125 Z M 58.117188 13.207031 L 63.703125 13.207031 L 63.910156 10.890625 L 58.117188 10.890625 Z M 58.117188 13.207031 " fill-opacity="1" fill-rule="nonzero"/></svg>