<svg xmlns="http://www.w3.org/2000/svg" xmlns:xlink="http://www.w3.org/1999/xlink" width="96" zoomAndPan="magnify" viewBox="0 0 72 36.000001" height="48" preserveAspectRatio="xMidYMid meet" version="1.0"><path fill="#4e7896" d="M 10.988281 22.964844 C 10.988281 22.964844 10.125 23.480469 11.585938 23.628906 C 13.34375 23.851562 14.28125 23.816406 16.226562 23.445312 C 16.617188 23.683594 17.03125 23.878906 17.460938 24.039062 C 13.082031 25.890625 7.542969 23.925781 10.988281 22.964844 Z M 10.425781 20.554688 C 10.425781 20.554688 9.492188 21.257812 10.949219 21.40625 C 12.859375 21.59375 14.355469 21.628906 16.9375 21.113281 C 17.191406 21.367188 17.492188 21.550781 17.835938 21.667969 C 12.558594 23.222656 6.648438 21.816406 10.425781 20.554688 Z M 20.753906 24.777344 C 20.753906 24.777344 21.390625 25.296875 20.042969 25.703125 C 17.535156 26.445312 9.527344 26.667969 7.28125 25.703125 C 6.496094 25.371094 7.992188 24.890625 8.480469 24.816406 C 8.964844 24.703125 9.230469 24.703125 9.230469 24.703125 C 8.367188 24.113281 3.503906 25.925781 6.753906 26.445312 C 15.699219 27.890625 23.070312 25.816406 20.75 24.777344 Z M 11.398438 18.035156 C 11.398438 18.035156 7.320312 19 9.941406 19.332031 C 11.0625 19.480469 13.269531 19.445312 15.328125 19.296875 C 17.011719 19.148438 18.695312 18.851562 18.695312 18.851562 C 18.695312 18.851562 18.097656 19.109375 17.683594 19.371094 C 13.53125 20.445312 5.558594 19.960938 7.84375 18.851562 C 9.789062 17.925781 11.398438 18.035156 11.398438 18.035156 Z M 18.695312 22.074219 C 22.886719 19.925781 20.941406 17.851562 19.59375 18.109375 C 19.257812 18.183594 19.109375 18.257812 19.109375 18.257812 C 19.109375 18.257812 19.222656 18.035156 19.484375 17.960938 C 22.140625 17.035156 24.234375 20.742188 18.621094 22.1875 C 18.621094 22.1875 18.660156 22.148438 18.695312 22.074219 Z M 11.8125 27.925781 C 15.851562 28.183594 22.027344 27.777344 22.175781 25.890625 C 22.175781 25.890625 21.878906 26.628906 18.847656 27.1875 C 15.402344 27.816406 11.140625 27.742188 8.628906 27.332031 C 8.628906 27.332031 9.152344 27.777344 11.8125 27.925781 Z M 11.8125 27.925781 " fill-opacity="1" fill-rule="nonzero"/><path fill="#f58219" d="M 16.152344 5.8125 C 16.152344 5.8125 18.472656 8.148438 13.941406 11.664062 C 10.3125 14.515625 13.121094 16.148438 13.941406 18 C 11.808594 16.109375 10.277344 14.445312 11.328125 12.886719 C 12.859375 10.59375 17.085938 9.480469 16.152344 5.8125 Z M 14.953125 16.445312 C 16.039062 17.667969 14.65625 18.777344 14.65625 18.777344 C 14.65625 18.777344 17.425781 17.371094 16.152344 15.628906 C 14.992188 13.960938 14.09375 13.148438 18.957031 10.371094 C 18.957031 10.371094 11.285156 12.257812 14.953125 16.445312 Z M 14.953125 16.445312 " fill-opacity="1" fill-rule="nonzero"/><path fill="#4e7896" d="M 43.785156 24.105469 L 43.785156 15.703125 C 43.785156 13.558594 42.574219 12.101562 39.542969 12.101562 C 37.808594 12.101562 36.335938 12.527344 35.035156 13.042969 L 35.46875 14.585938 C 36.421875 14.242188 37.636719 13.902344 38.933594 13.902344 C 40.582031 13.902344 41.359375 14.585938 41.359375 15.957031 L 41.359375 17.074219 L 40.492188 17.074219 C 36.335938 17.074219 34.425781 18.617188 34.425781 21.105469 C 34.425781 23.164062 35.722656 24.363281 38.0625 24.363281 C 39.535156 24.363281 40.664062 23.675781 41.703125 22.820312 L 41.875 24.105469 Z M 41.359375 21.363281 C 40.492188 22.136719 39.542969 22.5625 38.675781 22.5625 C 37.546875 22.5625 36.855469 21.878906 36.855469 20.675781 C 36.855469 19.476562 37.546875 18.617188 40.320312 18.617188 L 41.359375 18.617188 Z M 51.929688 24.105469 L 48.898438 24.105469 L 45.261719 12.359375 L 47.859375 12.359375 L 50.113281 19.5625 L 50.632812 21.707031 C 51.757812 18.617188 52.625 15.445312 52.972656 12.359375 L 55.570312 12.359375 C 54.875 16.21875 53.664062 20.417969 51.929688 24.109375 Z M 65.96875 24.105469 L 65.96875 15.703125 C 65.96875 13.558594 64.753906 12.101562 61.722656 12.101562 C 59.988281 12.101562 58.515625 12.527344 57.214844 13.042969 L 57.5625 14.585938 C 58.601562 14.242188 59.816406 13.902344 61.117188 13.902344 C 62.761719 13.902344 63.542969 14.585938 63.542969 15.957031 L 63.542969 17.074219 L 62.675781 17.074219 C 58.515625 17.074219 56.605469 18.617188 56.605469 21.105469 C 56.605469 23.164062 57.816406 24.363281 60.15625 24.363281 C 61.714844 24.363281 62.84375 23.675781 63.882812 22.820312 L 64.054688 24.105469 Z M 63.542969 21.363281 C 62.675781 22.136719 61.722656 22.5625 60.855469 22.5625 C 59.730469 22.5625 59.035156 21.878906 59.035156 20.675781 C 59.035156 19.476562 59.730469 18.617188 62.503906 18.617188 L 63.542969 18.617188 Z M 31.742188 26.078125 C 31.050781 27.109375 30.011719 27.878906 28.710938 28.308594 L 27.582031 26.9375 C 28.449219 26.421875 29.316406 25.652344 29.664062 24.964844 C 30.011719 24.363281 30.097656 23.507812 30.097656 21.535156 L 30.097656 8.152344 L 32.695312 8.152344 L 32.695312 21.363281 C 32.695312 24.019531 32.4375 25.050781 31.742188 26.078125 Z M 31.742188 26.078125 " fill-opacity="1" fill-rule="nonzero"/></svg>