<svg xmlns="http://www.w3.org/2000/svg" xmlns:xlink="http://www.w3.org/1999/xlink" width="96" zoomAndPan="magnify" viewBox="0 0 72 36.000001" height="48" preserveAspectRatio="xMidYMid meet" version="1.0"><path fill="#f7df1e" d="M 4.550781 8.210938 L 20.898438 8.210938 L 20.898438 24.554688 L 4.550781 24.554688 Z M 4.550781 8.210938 " fill-opacity="1" fill-rule="nonzero"/><path fill="#000000" d="M 8.847656 21.867188 L 10.101562 21.113281 C 10.339844 21.539062 10.5625 21.902344 11.085938 21.902344 C 11.59375 21.902344 11.910156 21.703125 11.910156 20.9375 L 11.910156 15.714844 L 13.445312 15.714844 L 13.445312 20.957031 C 13.445312 22.550781 12.515625 23.273438 11.152344 23.273438 C 9.925781 23.273438 9.210938 22.636719 8.847656 21.867188 " fill-opacity="1" fill-rule="nonzero"/><path fill="#000000" d="M 14.28125 21.703125 L 15.53125 20.980469 C 15.859375 21.519531 16.289062 21.914062 17.046875 21.914062 C 17.683594 21.914062 18.089844 21.59375 18.089844 21.15625 C 18.089844 20.628906 17.671875 20.441406 16.96875 20.136719 L 16.585938 19.972656 C 15.476562 19.5 14.742188 18.90625 14.742188 17.65625 C 14.742188 16.503906 15.621094 15.625 16.992188 15.625 C 17.96875 15.625 18.671875 15.964844 19.175781 16.855469 L 17.980469 17.621094 C 17.714844 17.152344 17.429688 16.964844 16.992188 16.964844 C 16.542969 16.964844 16.257812 17.25 16.257812 17.621094 C 16.257812 18.082031 16.542969 18.269531 17.199219 18.554688 L 17.582031 18.71875 C 18.890625 19.28125 19.625 19.851562 19.625 21.132812 C 19.625 22.515625 18.539062 23.273438 17.078125 23.273438 C 15.652344 23.273438 14.730469 22.59375 14.28125 21.703125 " fill-opacity="1" fill-rule="nonzero"/><path fill="#04233e" d="M 24.90625 20.503906 C 26.109375 20.503906 26.964844 19.828125 26.964844 18.40625 L 26.964844 13.234375 L 25.84375 13.234375 L 25.84375 18.382812 C 25.84375 19.21875 25.453125 19.503906 24.851562 19.503906 C 24.324219 19.503906 24.027344 19.1875 23.777344 18.730469 L 22.867188 19.292969 C 23.207031 19.957031 23.839844 20.503906 24.90625 20.503906 Z M 30.984375 17.773438 L 29.769531 17.773438 C 28.765625 17.78125 28.027344 18.183594 28.027344 19.101562 C 28.027344 20.09375 28.746094 20.503906 29.621094 20.503906 C 30.277344 20.503906 30.699219 20.25 31.015625 19.777344 L 30.984375 20.410156 L 32.050781 20.410156 L 32.050781 17.792969 C 32.050781 16.484375 31.246094 15.882812 30.183594 15.882812 C 29.242188 15.882812 28.714844 16.210938 28.324219 16.675781 L 28.9375 17.296875 C 29.179688 17.023438 29.515625 16.769531 30.097656 16.769531 C 30.667969 16.769531 30.984375 17.066406 30.984375 17.773438 Z M 30.984375 18.511719 L 30.984375 18.859375 C 30.984375 19.34375 30.539062 19.648438 29.917969 19.648438 C 29.367188 19.648438 29.074219 19.449219 29.074219 19.070312 C 29.074219 18.679688 29.378906 18.511719 29.84375 18.511719 Z M 34.972656 20.503906 L 35.109375 20.503906 L 37.359375 15.976562 L 36.269531 15.976562 L 35.375 17.941406 C 35.214844 18.308594 35.089844 18.902344 35.089844 18.902344 C 35.089844 18.902344 34.953125 18.308594 34.78125 17.941406 L 33.886719 15.976562 L 32.703125 15.976562 Z M 40.683594 17.773438 L 39.46875 17.773438 C 38.464844 17.78125 37.726562 18.183594 37.726562 19.101562 C 37.726562 20.09375 38.445312 20.503906 39.320312 20.503906 C 39.976562 20.503906 40.398438 20.25 40.714844 19.777344 L 40.683594 20.410156 L 41.746094 20.410156 L 41.746094 17.792969 C 41.746094 16.484375 40.945312 15.882812 39.878906 15.882812 C 38.941406 15.882812 38.414062 16.210938 38.023438 16.675781 L 38.632812 17.296875 C 38.878906 17.023438 39.214844 16.769531 39.796875 16.769531 C 40.367188 16.769531 40.683594 17.066406 40.683594 17.773438 Z M 40.683594 18.511719 L 40.683594 18.859375 C 40.683594 19.34375 40.238281 19.648438 39.617188 19.648438 C 39.066406 19.648438 38.773438 19.449219 38.773438 19.070312 C 38.773438 18.679688 39.078125 18.511719 39.542969 18.511719 Z M 45.1875 20.503906 C 46.539062 20.503906 47.519531 19.777344 47.519531 18.519531 C 47.519531 17.371094 46.867188 16.800781 45.640625 16.261719 L 45.175781 16.050781 C 44.449219 15.734375 44.144531 15.492188 44.144531 14.953125 C 44.144531 14.46875 44.503906 14.121094 45.070312 14.121094 C 45.632812 14.121094 45.949219 14.34375 46.222656 14.816406 L 47.097656 14.277344 C 46.664062 13.507812 46.023438 13.148438 45.070312 13.148438 C 43.878906 13.148438 43.054688 13.910156 43.054688 14.976562 C 43.054688 16.082031 43.691406 16.609375 44.734375 17.074219 L 45.210938 17.285156 C 45.988281 17.632812 46.414062 17.910156 46.414062 18.53125 C 46.414062 19.121094 45.894531 19.511719 45.167969 19.511719 C 44.292969 19.511719 43.859375 19.070312 43.519531 18.511719 L 42.601562 19.015625 C 43.003906 19.828125 43.828125 20.503906 45.1875 20.503906 Z M 50.824219 20.503906 C 51.679688 20.503906 52.207031 20.199219 52.636719 19.703125 L 51.910156 19.070312 C 51.667969 19.34375 51.351562 19.566406 50.824219 19.566406 C 50.03125 19.566406 49.558594 18.984375 49.558594 18.195312 C 49.558594 17.402344 50.03125 16.820312 50.824219 16.820312 C 51.277344 16.820312 51.648438 17.03125 51.859375 17.339844 L 52.617188 16.726562 C 52.195312 16.199219 51.65625 15.882812 50.824219 15.882812 C 49.472656 15.882812 48.460938 16.875 48.460938 18.195312 C 48.460938 19.523438 49.472656 20.503906 50.824219 20.503906 Z M 53.652344 20.410156 L 54.71875 20.410156 L 54.71875 18.257812 C 54.71875 17.265625 55.148438 16.894531 55.785156 16.894531 C 56.027344 16.894531 56.195312 16.960938 56.363281 17.042969 L 56.722656 16.082031 C 56.53125 15.96875 56.3125 15.894531 55.996094 15.894531 C 55.507812 15.894531 55.003906 16.113281 54.707031 16.8125 L 54.71875 15.976562 L 53.652344 15.976562 Z M 58.15625 14.964844 C 58.539062 14.964844 58.863281 14.679688 58.863281 14.257812 C 58.863281 13.855469 58.539062 13.5625 58.15625 13.5625 C 57.777344 13.5625 57.449219 13.855469 57.449219 14.257812 C 57.449219 14.679688 57.777344 14.964844 58.15625 14.964844 Z M 57.621094 20.410156 L 58.695312 20.410156 L 58.695312 15.976562 L 57.621094 15.976562 Z M 60.078125 22.648438 L 61.15625 22.648438 L 61.15625 19.648438 C 61.40625 20.144531 61.9375 20.503906 62.675781 20.503906 C 63.824219 20.503906 64.753906 19.523438 64.753906 18.183594 C 64.753906 16.84375 63.835938 15.882812 62.695312 15.882812 C 61.9375 15.882812 61.40625 16.253906 61.125 16.800781 L 61.15625 15.976562 L 60.078125 15.976562 Z M 62.398438 19.566406 C 61.621094 19.566406 61.113281 19.015625 61.113281 18.183594 C 61.113281 17.382812 61.621094 16.832031 62.398438 16.832031 C 63.171875 16.832031 63.65625 17.382812 63.65625 18.183594 C 63.65625 19.015625 63.171875 19.566406 62.398438 19.566406 Z M 67.527344 20.515625 C 68.097656 20.515625 68.445312 20.304688 68.667969 20.09375 L 68.160156 19.375 C 68.046875 19.46875 67.886719 19.585938 67.632812 19.585938 C 67.359375 19.585938 67.191406 19.4375 67.191406 18.933594 L 67.191406 16.875 L 68.375 16.875 L 68.375 15.976562 L 67.191406 15.976562 L 67.191406 13.667969 L 66.125 13.667969 L 66.125 15.976562 L 65.460938 15.976562 L 65.460938 16.875 L 66.125 16.875 L 66.125 18.910156 C 66.125 20.09375 66.695312 20.515625 67.527344 20.515625 Z M 67.527344 20.515625 " fill-opacity="1" fill-rule="nonzero"/></svg>