<svg xmlns="http://www.w3.org/2000/svg" xmlns:xlink="http://www.w3.org/1999/xlink" width="96" zoomAndPan="magnify" viewBox="0 0 72 36.000001" height="48" preserveAspectRatio="xMidYMid meet" version="1.0"><path fill="#131b28" d="M 31.300781 16.679688 L 30.894531 18.109375 L 31.300781 16.683594 Z M 33.390625 19.785156 L 32.945312 19.789062 L 33.390625 19.789062 Z M 33.277344 21.921875 L 30.59375 21.929688 Z M 33.835938 19.789062 L 33.386719 19.785156 Z M 33.511719 21.742188 L 33.980469 19.96875 Z M 43.386719 13.589844 L 42.515625 17.652344 Z M 41.148438 13.589844 L 40.488281 16.625 Z M 41.148438 13.589844 " fill-opacity="1" fill-rule="nonzero"/><path fill="#131b28" d="M 43.238281 13.40625 L 41.375 13.40625 C 41.253906 13.410156 41.179688 13.472656 41.148438 13.589844 L 39.828125 19.660156 C 39.796875 19.777344 39.71875 19.839844 39.597656 19.84375 L 38.28125 19.84375 C 36.980469 19.84375 37.128906 18.949219 37.394531 17.726562 L 37.40625 17.6875 L 37.5625 16.851562 L 37.628906 16.507812 L 38.230469 13.59375 C 38.253906 13.492188 38.183594 13.410156 38.082031 13.410156 L 36.171875 13.410156 C 36.066406 13.410156 35.964844 13.492188 35.945312 13.59375 L 35.085938 17.648438 C 34.613281 19.792969 34.738281 21.839844 37.308594 21.902344 L 41.417969 21.902344 C 41.519531 21.902344 41.625 21.820312 41.644531 21.722656 L 43.382812 13.589844 C 43.40625 13.488281 43.339844 13.40625 43.234375 13.40625 Z M 50.660156 19.867188 C 50.710938 19.863281 50.75 19.878906 50.78125 19.917969 C 50.8125 19.957031 50.824219 20 50.808594 20.046875 L 50.628906 20.925781 M 50.449219 21.804688 L 50.628906 20.925781 Z M 50.222656 21.988281 L 46.792969 22.003906 Z M 50.222656 21.988281 " fill-opacity="1" fill-rule="nonzero"/><path fill="#131b28" d="M 45.683594 18.734375 C 45.679688 18.640625 45.792969 18.472656 45.894531 18.472656 L 45.664062 18.46875 C 45.558594 19.511719 45.683594 18.734375 45.683594 18.734375 Z M 46.960938 22.003906 L 46.925781 22.003906 Z M 50.660156 19.867188 C 50.710938 19.863281 50.75 19.878906 50.78125 19.917969 C 50.8125 19.957031 50.824219 20 50.808594 20.046875 L 50.601562 21.070312 M 47.84375 22.003906 L 47.835938 22.003906 Z M 47.386719 22 L 47.359375 22 Z M 47.246094 22 L 47.203125 22 Z M 47.109375 22 L 47.070312 22 Z M 47.363281 22 L 47.25 22 Z M 47.363281 22 " fill-opacity="1" fill-rule="nonzero"/><path fill="#131b28" d="M 47.835938 22.003906 L 47.390625 22.003906 Z M 50.222656 21.988281 L 47.84375 22.003906 Z M 50.445312 21.804688 L 50.597656 21.070312 Z M 47.203125 22 L 47.109375 22 Z M 46.925781 22 L 46.792969 22 Z M 47.066406 22 L 46.960938 22 Z M 19.847656 18.757812 L 20.136719 17.484375 L 19.804688 18.941406 L 19.488281 20.421875 L 19.765625 19.125 L 19.847656 18.761719 Z M 23.304688 13.382812 L 21.261719 13.382812 C 21.140625 13.386719 21.0625 13.449219 21.03125 13.5625 L 20.644531 15.261719 C 20.628906 15.3125 20.640625 15.355469 20.671875 15.390625 C 20.703125 15.429688 20.742188 15.449219 20.789062 15.445312 L 22.851562 15.445312 C 22.972656 15.441406 23.046875 15.378906 23.078125 15.261719 L 23.453125 13.5625 C 23.476562 13.464844 23.410156 13.382812 23.304688 13.382812 Z M 22.859375 16.210938 L 22.261719 18.964844 Z M 16.925781 25.339844 L 18.609375 25.351562 C 18.113281 25.351562 17.289062 25.34375 16.921875 25.339844 Z M 20.421875 16.210938 L 20.136719 17.484375 Z M 20.421875 16.210938 " fill-opacity="1" fill-rule="nonzero"/><path fill="#131b28" d="M 22.710938 16.027344 L 20.652344 16.027344 C 20.53125 16.035156 20.457031 16.09375 20.425781 16.210938 L 19.84375 18.757812 L 19.765625 19.121094 L 19.210938 21.71875 C 19.183594 21.84375 19.148438 21.960938 19.109375 22.078125 C 19.109375 22.078125 18.726562 23.21875 18.078125 23.203125 L 17.4375 23.191406 C 17.316406 23.195312 17.238281 23.253906 17.207031 23.371094 L 16.78125 25.15625 C 16.765625 25.203125 16.773438 25.246094 16.804688 25.28125 C 16.835938 25.320312 16.875 25.339844 16.925781 25.339844 L 18.609375 25.351562 C 20.226562 25.351562 21.078125 24.460938 21.625 21.902344 L 22.863281 16.210938 C 22.886719 16.109375 22.820312 16.027344 22.714844 16.027344 Z M 51.972656 21.902344 C 51.871094 21.902344 51.800781 21.816406 51.824219 21.71875 L 53.375 14.507812 " fill-opacity="1" fill-rule="nonzero"/><path fill="#131b28" d="M 54.125 21.71875 L 54.753906 18.640625 Z M 51.847656 21.8125 C 51.832031 21.761719 51.839844 21.640625 51.863281 21.539062 L 52.59375 18.117188 L 51.820312 21.722656 C 51.800781 21.820312 51.867188 21.902344 51.96875 21.902344 L 52.160156 21.902344 C 52.058594 21.902344 51.859375 21.863281 51.847656 21.808594 Z M 51.847656 21.8125 " fill-opacity="1" fill-rule="nonzero"/><path fill="#131b28" d="M 54.003906 21.859375 C 53.945312 21.882812 53.816406 21.902344 53.714844 21.902344 L 53.902344 21.902344 C 54.007812 21.902344 54.109375 21.816406 54.128906 21.71875 L 54.167969 21.535156 C 54.144531 21.636719 54.0625 21.835938 54.007812 21.859375 Z M 54.441406 20.179688 L 54.714844 18.820312 Z M 54.441406 20.179688 " fill-opacity="1" fill-rule="nonzero"/><path fill="#131b28" d="M 60.554688 14.992188 L 60.636719 15.339844 C 60.660156 15.441406 60.597656 15.523438 60.492188 15.523438 M 54.164062 21.53125 L 54.4375 20.175781 Z M 60.46875 14.628906 L 60.550781 14.988281 Z M 54.714844 18.816406 L 54.792969 18.453125 L 55.085938 17.078125 L 54.753906 18.636719 Z M 53.398438 14.390625 L 52.601562 18.113281 L 53.402344 14.390625 Z M 53.398438 14.390625 " fill-opacity="1" fill-rule="nonzero"/><path fill="#131b28" d="M 60.636719 15.339844 L 60.554688 14.992188 L 60.425781 14.453125 C 60.257812 13.808594 59.765625 13.433594 58.699219 13.433594 L 55.511719 13.429688 L 53.789062 13.429688 C 53.6875 13.429688 53.585938 13.511719 53.5625 13.613281 L 53.488281 13.972656 L 53.371094 14.511719 L 51.863281 21.539062 C 51.839844 21.640625 51.832031 21.761719 51.847656 21.8125 C 51.859375 21.863281 52.058594 21.90625 52.160156 21.90625 L 53.710938 21.90625 C 53.816406 21.90625 53.945312 21.886719 54.003906 21.867188 C 54.058594 21.84375 54.140625 21.644531 54.164062 21.542969 L 54.753906 18.648438 L 55.382812 15.714844 C 55.414062 15.597656 55.488281 15.539062 55.609375 15.53125 L 60.492188 15.53125 C 60.597656 15.53125 60.660156 15.449219 60.636719 15.347656 Z M 66.925781 12.171875 L 66.550781 12.175781 L 64.988281 12.175781 C 64.867188 12.179688 64.769531 12.234375 64.695312 12.328125 L 61.238281 17.355469 C 61.179688 17.441406 61.113281 17.429688 61.089844 17.328125 L 60.835938 16.21875 C 60.804688 16.105469 60.726562 16.042969 60.605469 16.039062 L 58.382812 16.039062 C 58.335938 16.035156 58.296875 16.050781 58.265625 16.089844 C 58.238281 16.128906 58.230469 16.171875 58.246094 16.21875 L 59.242188 19.683594 C 59.273438 19.800781 59.273438 19.921875 59.25 20.042969 L 58.816406 21.71875 C 58.789062 21.820312 58.851562 21.902344 58.957031 21.902344 L 61.152344 21.902344 C 61.253906 21.902344 61.359375 21.820312 61.386719 21.71875 L 61.820312 20.042969 C 61.855469 19.925781 61.910156 19.8125 61.980469 19.714844 L 67.59375 12.3125 C 67.65625 12.230469 67.625 12.164062 67.519531 12.167969 L 66.929688 12.171875 Z M 49.269531 16.511719 C 49.257812 16.621094 49.15625 16.703125 49.046875 16.703125 L 46.230469 16.703125 C 46.132812 16.703125 46.085938 16.636719 46.097656 16.558594 C 46.101562 16.554688 46.101562 16.550781 46.101562 16.550781 C 46.101562 16.546875 46.101562 16.546875 46.101562 16.542969 L 46.113281 16.496094 C 46.382812 15.785156 46.929688 15.316406 47.960938 15.316406 C 49.121094 15.316406 49.347656 15.878906 49.269531 16.511719 Z M 48.445312 13.28125 C 44.828125 13.28125 43.972656 15.464844 43.492188 17.664062 C 43.015625 19.90625 43.050781 22.003906 46.792969 22.003906 L 47.84375 22.003906 L 50.222656 21.988281 C 50.34375 21.980469 50.417969 21.921875 50.449219 21.804688 L 50.808594 20.046875 C 50.824219 20 50.8125 19.957031 50.78125 19.917969 C 50.75 19.878906 50.710938 19.863281 50.660156 19.867188 L 47.296875 19.867188 C 45.957031 19.867188 45.558594 19.511719 45.707031 18.472656 L 51.085938 18.472656 C 51.179688 18.472656 51.246094 18.425781 51.28125 18.335938 C 51.289062 18.320312 51.292969 18.304688 51.296875 18.289062 C 52.09375 15.296875 51.863281 13.28125 48.445312 13.28125 Z M 31.351562 16.5 L 31.300781 16.675781 C 31.300781 16.679688 30.894531 18.109375 30.894531 18.109375 L 30.492188 19.539062 C 30.457031 19.65625 30.375 19.714844 30.253906 19.71875 L 28.105469 19.71875 C 26.476562 19.71875 26.078125 18.453125 26.476562 16.585938 C 26.871094 14.675781 27.648438 13.484375 29.253906 13.367188 C 31.449219 13.203125 31.886719 14.734375 31.355469 16.503906 Z M 32.828125 19.605469 C 32.828125 19.605469 33.839844 17.164062 34.070312 15.75 C 34.382812 13.863281 33.433594 11.121094 29.753906 11.121094 C 26.09375 11.121094 24.507812 13.738281 23.898438 16.585938 C 23.292969 19.449219 24.089844 21.960938 27.726562 21.941406 L 33.277344 21.921875 C 33.398438 21.914062 33.476562 21.855469 33.511719 21.742188 L 33.980469 19.96875 C 34.003906 19.871094 33.941406 19.789062 33.839844 19.789062 L 32.945312 19.785156 C 32.855469 19.78125 32.804688 19.726562 32.816406 19.652344 C 32.820312 19.636719 32.820312 19.625 32.828125 19.609375 Z M 32.828125 19.605469 " fill-opacity="1" fill-rule="nonzero"/><path fill="#131b28" d="M 50.9375 17.972656 C 50.9375 18.042969 50.882812 18.097656 50.8125 18.097656 C 50.730469 18.097656 50.691406 18.054688 50.6875 17.972656 C 50.6875 17.90625 50.746094 17.851562 50.8125 17.851562 C 50.878906 17.851562 50.9375 17.90625 50.9375 17.972656 Z M 50.9375 17.972656 " fill-opacity="1" fill-rule="nonzero"/><path fill="#0868ac" d="M 4.894531 14.796875 C 3.882812 16.238281 4.007812 18.113281 4.78125 19.644531 L 4.875 19.824219 C 4.882812 19.839844 4.890625 19.851562 4.898438 19.863281 C 4.910156 19.886719 4.925781 19.910156 4.9375 19.933594 L 5.011719 20.0625 L 5.054688 20.128906 L 5.175781 20.320312 C 5.214844 20.378906 5.257812 20.4375 5.300781 20.496094 L 5.324219 20.527344 C 5.363281 20.578125 5.398438 20.628906 5.4375 20.675781 L 5.480469 20.730469 L 5.585938 20.859375 L 5.625 20.90625 C 5.671875 20.960938 5.71875 21.015625 5.769531 21.070312 C 5.773438 21.074219 5.777344 21.078125 5.777344 21.078125 C 5.828125 21.132812 5.875 21.183594 5.925781 21.234375 L 6.089844 21.398438 L 6.140625 21.441406 C 6.191406 21.492188 6.246094 21.539062 6.300781 21.589844 C 6.3125 21.597656 6.324219 21.605469 6.332031 21.613281 L 6.476562 21.742188 L 6.542969 21.789062 L 6.664062 21.882812 L 6.730469 21.933594 L 6.867188 22.027344 L 6.914062 22.0625 C 6.921875 22.066406 6.925781 22.070312 6.929688 22.074219 C 6.972656 22.101562 7.019531 22.132812 7.0625 22.160156 L 7.121094 22.199219 C 7.191406 22.242188 7.257812 22.285156 7.328125 22.324219 L 7.386719 22.359375 L 7.542969 22.445312 C 7.574219 22.460938 7.601562 22.476562 7.628906 22.488281 L 7.742188 22.546875 L 7.8125 22.582031 L 7.992188 22.664062 L 8.027344 22.679688 C 8.097656 22.710938 8.167969 22.738281 8.234375 22.765625 L 8.285156 22.785156 L 8.480469 22.855469 L 8.507812 22.867188 C 8.578125 22.890625 8.652344 22.914062 8.722656 22.9375 L 8.777344 22.953125 C 8.851562 22.976562 8.925781 23 9 23.015625 C 13.886719 23.902344 15.304688 20.097656 15.304688 20.097656 C 14.113281 21.640625 11.996094 22.046875 9.992188 21.597656 C 9.917969 21.578125 9.84375 21.554688 9.769531 21.535156 L 9.714844 21.515625 C 9.640625 21.496094 9.570312 21.472656 9.5 21.449219 L 9.46875 21.4375 C 9.40625 21.414062 9.34375 21.390625 9.28125 21.367188 L 9.226562 21.347656 C 9.15625 21.320312 9.089844 21.289062 9.019531 21.261719 L 8.980469 21.242188 L 8.808594 21.164062 L 8.757812 21.140625 L 8.625 21.070312 L 8.535156 21.027344 C 8.480469 20.992188 8.425781 20.964844 8.375 20.9375 L 8.320312 20.90625 C 8.25 20.863281 8.179688 20.824219 8.109375 20.777344 C 8.09375 20.765625 8.074219 20.753906 8.054688 20.742188 L 7.90625 20.648438 L 7.859375 20.613281 L 7.71875 20.511719 L 7.527344 20.371094 L 7.472656 20.324219 L 7.316406 20.195312 C 7.308594 20.1875 7.304688 20.183594 7.296875 20.179688 C 7.242188 20.128906 7.1875 20.078125 7.132812 20.027344 L 7.085938 19.984375 L 6.964844 19.867188 L 6.917969 19.824219 L 6.773438 19.667969 C 6.769531 19.664062 6.769531 19.664062 6.765625 19.660156 C 6.714844 19.605469 6.664062 19.550781 6.617188 19.492188 L 6.578125 19.445312 L 6.472656 19.316406 L 6.433594 19.269531 L 6.308594 19.105469 C 5.195312 17.597656 4.796875 15.515625 5.683594 13.808594 M 8.035156 13.585938 C 7.304688 14.632812 7.34375 16.027344 7.914062 17.132812 C 8.007812 17.320312 8.117188 17.5 8.238281 17.667969 C 8.347656 17.824219 8.46875 18.011719 8.613281 18.136719 C 8.664062 18.195312 8.71875 18.25 8.777344 18.304688 C 8.789062 18.320312 8.804688 18.332031 8.820312 18.347656 L 8.988281 18.503906 C 8.988281 18.507812 8.992188 18.507812 8.992188 18.511719 C 9.058594 18.570312 9.121094 18.621094 9.191406 18.671875 L 9.234375 18.707031 C 9.304688 18.757812 9.371094 18.804688 9.441406 18.855469 C 9.441406 18.855469 9.445312 18.855469 9.445312 18.859375 C 9.476562 18.878906 9.507812 18.898438 9.539062 18.917969 C 9.554688 18.929688 9.570312 18.9375 9.585938 18.949219 C 9.632812 18.980469 9.683594 19.011719 9.734375 19.039062 L 9.757812 19.054688 L 9.890625 19.128906 C 9.90625 19.136719 9.921875 19.144531 9.9375 19.152344 L 10.03125 19.199219 C 10.039062 19.203125 10.042969 19.203125 10.046875 19.207031 C 10.113281 19.238281 10.175781 19.269531 10.242188 19.296875 C 10.257812 19.304688 10.273438 19.308594 10.285156 19.316406 L 10.445312 19.378906 L 10.515625 19.40625 C 10.5625 19.421875 10.613281 19.4375 10.664062 19.457031 L 10.726562 19.476562 C 10.796875 19.5 10.867188 19.523438 10.9375 19.539062 C 14.710938 20.15625 15.582031 17.273438 15.582031 17.273438 C 14.796875 18.394531 13.277344 18.933594 11.65625 18.515625 C 11.582031 18.496094 11.511719 18.472656 11.441406 18.453125 C 11.417969 18.445312 11.398438 18.4375 11.375 18.433594 C 11.328125 18.414062 11.277344 18.398438 11.226562 18.378906 L 11.160156 18.355469 C 11.105469 18.335938 11.050781 18.3125 11 18.289062 L 10.949219 18.269531 C 10.882812 18.242188 10.816406 18.210938 10.753906 18.179688 C 10.71875 18.164062 10.6875 18.144531 10.65625 18.128906 L 10.601562 18.097656 C 10.558594 18.078125 10.515625 18.054688 10.476562 18.03125 L 10.445312 18.011719 C 10.394531 17.984375 10.34375 17.949219 10.292969 17.917969 C 10.277344 17.910156 10.261719 17.898438 10.25 17.886719 L 10.152344 17.828125 C 10.085938 17.777344 10.015625 17.730469 9.949219 17.679688 L 9.902344 17.644531 C 9.195312 17.085938 8.628906 16.324219 8.363281 15.460938 C 8.082031 14.566406 8.140625 13.5625 8.628906 12.746094 M 10.667969 12.671875 C 10.234375 13.304688 10.191406 14.085938 10.492188 14.78125 C 10.808594 15.519531 11.453125 16.097656 12.207031 16.371094 L 12.300781 16.402344 L 12.339844 16.417969 L 12.476562 16.453125 C 14.558594 16.855469 15.125 15.394531 15.277344 15.179688 C 14.78125 15.886719 13.949219 16.054688 12.929688 15.808594 C 12.847656 15.789062 12.765625 15.761719 12.683594 15.734375 C 12.582031 15.699219 12.484375 15.660156 12.390625 15.613281 C 12.207031 15.527344 12.035156 15.421875 11.875 15.300781 C 10.964844 14.613281 10.394531 13.300781 10.992188 12.234375 " fill-opacity="1" fill-rule="nonzero"/></svg>