<svg xmlns="http://www.w3.org/2000/svg" xmlns:xlink="http://www.w3.org/1999/xlink" width="96" zoomAndPan="magnify" viewBox="0 0 72 36.000001" height="48" preserveAspectRatio="xMidYMid meet" version="1.0"><path fill="#4e4e4e" d="M 31.558594 18.890625 C 31.558594 20.203125 31.457031 20.632812 31.191406 20.949219 C 30.898438 21.214844 30.519531 21.367188 30.125 21.363281 L 30.222656 22.144531 C 30.835938 22.152344 31.429688 21.933594 31.890625 21.523438 C 32.367188 21.027344 32.535156 20.335938 32.535156 19.28125 L 32.535156 14.320312 L 31.554688 14.320312 L 31.554688 18.898438 Z M 31.558594 18.890625 " fill-opacity="1" fill-rule="nonzero"/><path fill="#4e4e4e" d="M 38.855469 18.292969 L 38.902344 19.785156 L 38.042969 19.785156 L 37.988281 18.886719 L 37.96875 18.886719 C 37.785156 19.207031 37.53125 19.457031 37.214844 19.636719 C 36.902344 19.816406 36.546875 19.910156 36.1875 19.902344 C 35.34375 19.902344 34.332031 19.425781 34.332031 17.507812 L 34.332031 14.308594 L 35.3125 14.308594 L 35.3125 17.34375 C 35.3125 18.386719 35.621094 19.085938 36.511719 19.085938 C 36.789062 19.078125 37.058594 18.992188 37.289062 18.832031 C 37.519531 18.671875 37.695312 18.449219 37.796875 18.1875 C 37.859375 18.023438 37.886719 17.851562 37.886719 17.679688 L 37.886719 14.3125 L 38.867188 14.3125 L 38.867188 18.292969 Z M 38.855469 18.292969 " fill-opacity="1" fill-rule="nonzero"/><path fill="#4e4e4e" d="M 40.699219 16.097656 L 40.65625 14.304688 L 41.535156 14.304688 L 41.578125 15.242188 L 41.601562 15.242188 C 41.796875 14.898438 42.066406 14.632812 42.410156 14.441406 C 42.753906 14.25 43.121094 14.164062 43.511719 14.179688 C 44.8125 14.179688 45.789062 15.300781 45.789062 16.960938 C 45.789062 18.925781 44.613281 19.898438 43.34375 19.898438 C 43.011719 19.910156 42.699219 19.84375 42.402344 19.6875 C 42.109375 19.535156 41.871094 19.320312 41.6875 19.039062 L 41.667969 19.039062 L 41.667969 22.011719 L 40.699219 22.011719 L 40.699219 16.089844 Z M 41.667969 17.554688 C 41.671875 17.691406 41.6875 17.828125 41.714844 17.960938 C 41.792969 18.300781 41.972656 18.582031 42.246094 18.800781 C 42.519531 19.015625 42.828125 19.125 43.179688 19.125 C 44.210938 19.125 44.8125 18.265625 44.8125 17.011719 C 44.8125 15.917969 44.242188 14.980469 43.210938 14.980469 C 42.867188 14.988281 42.53125 15.117188 42.261719 15.335938 C 41.996094 15.554688 41.808594 15.867188 41.734375 16.207031 C 41.695312 16.339844 41.671875 16.476562 41.667969 16.613281 Z M 41.667969 17.554688 " fill-opacity="1" fill-rule="nonzero"/><path fill="#4e4e4e" d="M 47.519531 14.3125 L 48.695312 17.546875 L 49.042969 18.667969 L 49.0625 18.667969 L 49.410156 17.527344 L 50.476562 14.316406 L 51.511719 14.316406 L 50.046875 18.21875 C 49.34375 20.09375 48.867188 21.054688 48.203125 21.640625 C 47.863281 21.957031 47.449219 22.179688 47.003906 22.285156 L 46.757812 21.449219 C 47.070312 21.34375 47.363281 21.179688 47.613281 20.964844 C 47.96875 20.664062 48.253906 20.285156 48.4375 19.855469 C 48.476562 19.78125 48.503906 19.699219 48.515625 19.617188 C 48.507812 19.527344 48.484375 19.441406 48.449219 19.355469 L 46.460938 14.316406 L 47.527344 14.316406 Z M 47.519531 14.3125 " fill-opacity="1" fill-rule="nonzero"/><path fill="#4e4e4e" d="M 54.078125 12.742188 L 54.078125 14.3125 L 55.476562 14.3125 L 55.476562 15.070312 L 54.078125 15.070312 L 54.078125 18.019531 C 54.078125 18.691406 54.269531 19.082031 54.8125 19.082031 C 55.003906 19.085938 55.195312 19.0625 55.378906 19.015625 L 55.425781 19.761719 C 55.148438 19.859375 54.851562 19.90625 54.558594 19.898438 C 54.363281 19.910156 54.164062 19.878906 53.984375 19.804688 C 53.800781 19.734375 53.636719 19.621094 53.5 19.480469 C 53.21875 19.1875 53.121094 18.699219 53.121094 18.054688 L 53.121094 15.070312 L 52.289062 15.070312 L 52.289062 14.3125 L 53.121094 14.3125 L 53.121094 13 Z M 54.078125 12.742188 " fill-opacity="1" fill-rule="nonzero"/><path fill="#4e4e4e" d="M 57.28125 17.226562 C 57.304688 18.574219 58.148438 19.128906 59.125 19.128906 C 59.636719 19.144531 60.144531 19.046875 60.613281 18.84375 L 60.78125 19.558594 C 60.214844 19.796875 59.609375 19.910156 59 19.894531 C 57.34375 19.894531 56.355469 18.789062 56.355469 17.136719 C 56.355469 15.484375 57.3125 14.1875 58.878906 14.1875 C 60.632812 14.1875 61.101562 15.757812 61.101562 16.765625 C 61.101562 16.917969 61.089844 17.074219 61.066406 17.226562 Z M 60.148438 16.515625 C 60.160156 15.882812 59.890625 14.898438 58.792969 14.898438 C 57.804688 14.898438 57.371094 15.824219 57.292969 16.515625 Z M 60.148438 16.515625 " fill-opacity="1" fill-rule="nonzero"/><path fill="#4e4e4e" d="M 62.523438 16.019531 L 62.480469 14.3125 L 63.335938 14.3125 L 63.371094 15.386719 L 63.414062 15.386719 C 63.660156 14.652344 64.25 14.1875 64.902344 14.1875 C 64.996094 14.1875 65.089844 14.199219 65.183594 14.222656 L 65.183594 15.160156 C 65.074219 15.136719 64.960938 15.125 64.851562 15.128906 C 64.160156 15.128906 63.671875 15.660156 63.539062 16.402344 C 63.511719 16.558594 63.496094 16.710938 63.496094 16.867188 L 63.496094 19.785156 L 62.523438 19.785156 Z M 62.523438 16.019531 " fill-opacity="1" fill-rule="nonzero"/><path fill="#767677" d="M 24.214844 7.054688 C 24.226562 7.332031 24.15625 7.605469 24.011719 7.84375 C 23.871094 8.078125 23.660156 8.269531 23.410156 8.386719 C 23.160156 8.503906 22.882812 8.542969 22.609375 8.5 C 22.332031 8.457031 22.089844 8.339844 21.882812 8.148438 C 21.671875 7.957031 21.535156 7.722656 21.46875 7.445312 C 21.40625 7.175781 21.421875 6.894531 21.515625 6.632812 C 21.609375 6.367188 21.773438 6.148438 22 5.980469 C 22.226562 5.8125 22.480469 5.722656 22.761719 5.710938 C 23.132812 5.695312 23.492188 5.828125 23.761719 6.078125 C 24.035156 6.332031 24.195312 6.679688 24.210938 7.050781 Z M 24.214844 7.054688 " fill-opacity="1" fill-rule="nonzero"/><path fill="#f37726" d="M 16.097656 23.5625 C 12.390625 23.5625 9.152344 22.203125 7.472656 20.191406 C 8.097656 21.996094 9.265625 23.558594 10.808594 24.664062 C 12.355469 25.773438 14.203125 26.363281 16.097656 26.363281 C 17.992188 26.363281 19.84375 25.769531 21.386719 24.664062 C 22.933594 23.558594 24.097656 21.996094 24.726562 20.191406 C 23.039062 22.203125 19.804688 23.5625 16.097656 23.5625 Z M 16.097656 23.5625 " fill-opacity="1" fill-rule="nonzero"/><path fill="#f37726" d="M 16.09375 10.484375 C 19.800781 10.484375 23.039062 11.84375 24.71875 13.851562 C 24.09375 12.046875 22.929688 10.484375 21.382812 9.378906 C 19.835938 8.273438 17.988281 7.679688 16.09375 7.679688 C 14.199219 7.679688 12.351562 8.273438 10.804688 9.378906 C 9.261719 10.484375 8.09375 12.046875 7.46875 13.851562 C 9.152344 11.847656 12.390625 10.484375 16.09375 10.484375 Z M 16.09375 10.484375 " fill-opacity="1" fill-rule="nonzero"/><path fill="#989798" d="M 11.007812 27.46875 C 11.023438 27.828125 10.9375 28.160156 10.753906 28.464844 C 10.574219 28.765625 10.3125 29.003906 9.996094 29.152344 C 9.679688 29.300781 9.335938 29.351562 8.984375 29.296875 C 8.636719 29.242188 8.324219 29.085938 8.066406 28.851562 C 7.8125 28.613281 7.632812 28.304688 7.550781 27.964844 C 7.464844 27.617188 7.484375 27.277344 7.605469 26.9375 C 7.726562 26.609375 7.941406 26.324219 8.222656 26.117188 C 8.503906 25.910156 8.835938 25.792969 9.183594 25.78125 C 9.648438 25.761719 10.097656 25.929688 10.441406 26.246094 C 10.796875 26.574219 10.988281 26.984375 11.007812 27.46875 Z M 11.007812 27.46875 " fill-opacity="1" fill-rule="nonzero"/><path fill="#6f7070" d="M 7.894531 10.027344 C 7.691406 10.039062 7.488281 9.984375 7.316406 9.878906 C 7.140625 9.773438 7.003906 9.613281 6.917969 9.429688 C 6.832031 9.242188 6.800781 9.035156 6.832031 8.832031 C 6.863281 8.628906 6.953125 8.4375 7.089844 8.289062 C 7.230469 8.136719 7.410156 8.03125 7.605469 7.980469 C 7.804688 7.933594 8.011719 7.945312 8.203125 8.015625 C 8.394531 8.085938 8.5625 8.210938 8.679688 8.378906 C 8.824219 8.578125 8.890625 8.800781 8.878906 9.050781 C 8.863281 9.296875 8.773438 9.511719 8.605469 9.695312 C 8.421875 9.894531 8.164062 10.015625 7.894531 10.027344 Z M 7.894531 10.027344 " fill-opacity="1" fill-rule="nonzero"/></svg>