<svg xmlns="http://www.w3.org/2000/svg" xmlns:xlink="http://www.w3.org/1999/xlink" width="96" zoomAndPan="magnify" viewBox="0 0 72 36.000001" height="48" preserveAspectRatio="xMidYMid meet" version="1.0"><path fill="#ef533f" d="M 19.6875 25.894531 C 19.542969 25.894531 19.433594 25.832031 19.359375 25.710938 L 16.488281 20.925781 L 11.125 22.382812 C 10.933594 22.429688 10.792969 22.367188 10.699219 22.195312 L 4.429688 10.40625 C 4.398438 10.351562 4.386719 10.292969 4.382812 10.230469 C 4.382812 10.167969 4.398438 10.109375 4.425781 10.054688 C 4.453125 10 4.492188 9.953125 4.542969 9.917969 C 4.59375 9.882812 4.652344 9.859375 4.710938 9.851562 L 10.035156 9.136719 C 10.203125 9.113281 10.328125 9.171875 10.414062 9.316406 L 16.835938 20.042969 L 24.304688 18.011719 L 21.8125 14.492188 C 21.777344 14.441406 21.753906 14.386719 21.746094 14.324219 C 21.738281 14.261719 21.742188 14.203125 21.765625 14.144531 C 21.785156 14.085938 21.820312 14.035156 21.867188 13.992188 C 21.914062 13.949219 21.964844 13.921875 22.027344 13.90625 L 25.519531 13.078125 C 25.675781 13.042969 25.804688 13.085938 25.902344 13.210938 L 28.925781 16.984375 C 28.96875 17.035156 28.992188 17.09375 29.003906 17.15625 C 29.015625 17.21875 29.011719 17.28125 28.992188 17.339844 C 28.972656 17.402344 28.9375 17.453125 28.894531 17.5 C 28.847656 17.542969 28.792969 17.574219 28.730469 17.589844 L 25.554688 18.457031 L 28.335938 22.367188 C 28.410156 22.46875 28.425781 22.582031 28.386719 22.703125 C 28.347656 22.824219 28.269531 22.902344 28.152344 22.945312 L 19.804688 25.871094 C 19.765625 25.886719 19.726562 25.894531 19.683594 25.894531 Z M 17.25 20.714844 L 19.851562 25.054688 L 27.429688 22.402344 L 24.78125 18.667969 Z M 5.355469 10.527344 L 11.222656 21.570312 L 16.09375 20.25 L 9.890625 9.921875 Z M 22.769531 14.515625 L 25.105469 17.800781 L 28.003906 17.011719 L 25.484375 13.871094 Z M 32.921875 13.367188 L 33.679688 13.367188 L 33.679688 21.507812 L 32.925781 21.507812 Z M 41.09375 15.636719 L 41.09375 21.507812 L 40.347656 21.507812 L 40.347656 20.492188 C 40.058594 20.851562 39.695312 21.148438 39.28125 21.359375 C 39.003906 21.492188 38.707031 21.582031 38.398438 21.625 C 38.089844 21.664062 37.78125 21.660156 37.472656 21.605469 C 37.167969 21.550781 36.875 21.449219 36.601562 21.300781 C 36.324219 21.15625 36.078125 20.972656 35.863281 20.746094 C 35.257812 20.140625 34.964844 19.40625 34.980469 18.546875 C 34.96875 17.699219 35.265625 16.976562 35.871094 16.378906 C 36.457031 15.765625 37.171875 15.464844 38.019531 15.476562 C 38.472656 15.472656 38.921875 15.578125 39.328125 15.785156 C 39.742188 16.011719 40.085938 16.320312 40.355469 16.707031 L 40.355469 15.632812 Z M 38.078125 16.21875 C 37.65625 16.214844 37.269531 16.320312 36.90625 16.53125 C 36.546875 16.742188 36.265625 17.03125 36.0625 17.398438 C 35.640625 18.132812 35.640625 19.035156 36.0625 19.769531 C 36.261719 20.136719 36.558594 20.441406 36.917969 20.652344 C 37.269531 20.863281 37.652344 20.96875 38.066406 20.964844 C 38.484375 20.964844 38.878906 20.863281 39.242188 20.652344 C 39.597656 20.457031 39.894531 20.164062 40.09375 19.808594 C 40.300781 19.429688 40.402344 19.027344 40.394531 18.597656 C 40.414062 17.9375 40.1875 17.367188 39.722656 16.894531 C 39.273438 16.429688 38.722656 16.203125 38.074219 16.21875 Z M 42.507812 15.636719 L 43.28125 15.636719 L 43.28125 16.492188 C 43.476562 16.195312 43.71875 15.941406 44.011719 15.738281 C 44.25 15.570312 44.515625 15.488281 44.808594 15.484375 C 45.050781 15.492188 45.273438 15.558594 45.480469 15.6875 L 45.085938 16.328125 C 44.953125 16.265625 44.820312 16.230469 44.675781 16.226562 C 44.390625 16.234375 44.148438 16.335938 43.945312 16.535156 C 43.671875 16.804688 43.496094 17.125 43.410156 17.5 C 43.320312 17.832031 43.273438 18.507812 43.273438 19.527344 L 43.273438 21.511719 L 42.503906 21.511719 Z M 51.964844 15.636719 L 51.964844 21.507812 L 51.222656 21.507812 L 51.222656 20.492188 C 50.933594 20.851562 50.566406 21.148438 50.15625 21.359375 C 49.875 21.492188 49.578125 21.582031 49.269531 21.625 C 48.960938 21.664062 48.652344 21.660156 48.347656 21.605469 C 48.039062 21.550781 47.75 21.449219 47.472656 21.300781 C 47.199219 21.15625 46.953125 20.972656 46.734375 20.746094 C 46.128906 20.140625 45.835938 19.40625 45.851562 18.546875 C 45.839844 17.734375 46.160156 16.949219 46.742188 16.378906 C 47.328125 15.765625 48.042969 15.464844 48.890625 15.476562 C 49.347656 15.472656 49.796875 15.578125 50.199219 15.785156 C 50.617188 16.011719 50.960938 16.320312 51.230469 16.707031 L 51.230469 15.632812 Z M 48.949219 16.21875 C 48.53125 16.214844 48.140625 16.320312 47.777344 16.53125 C 47.417969 16.742188 47.136719 17.03125 46.933594 17.398438 C 46.511719 18.132812 46.511719 19.035156 46.933594 19.769531 C 47.132812 20.136719 47.429688 20.441406 47.789062 20.652344 C 48.140625 20.863281 48.523438 20.96875 48.9375 20.964844 C 49.355469 20.964844 49.75 20.863281 50.113281 20.652344 C 50.46875 20.457031 50.765625 20.164062 50.964844 19.808594 C 51.171875 19.429688 51.273438 19.027344 51.265625 18.597656 C 51.285156 17.933594 51.0625 17.363281 50.59375 16.890625 C 50.144531 16.425781 49.597656 16.199219 48.949219 16.210938 Z M 53.113281 15.636719 L 53.917969 15.636719 L 55.886719 19.914062 L 57.839844 15.636719 L 58.644531 15.636719 L 55.957031 21.507812 L 55.824219 21.507812 Z M 64.734375 19.558594 L 65.375 19.894531 C 65.195312 20.269531 64.953125 20.597656 64.652344 20.886719 C 64.382812 21.136719 64.074219 21.328125 63.730469 21.460938 C 63.355469 21.597656 62.964844 21.664062 62.566406 21.660156 C 61.609375 21.660156 60.859375 21.347656 60.320312 20.722656 C 59.777344 20.117188 59.511719 19.40625 59.515625 18.59375 C 59.507812 17.871094 59.75 17.167969 60.199219 16.609375 C 60.476562 16.246094 60.816406 15.96875 61.226562 15.769531 C 61.640625 15.574219 62.074219 15.484375 62.527344 15.5 C 62.996094 15.484375 63.441406 15.578125 63.863281 15.777344 C 64.289062 15.976562 64.640625 16.265625 64.925781 16.636719 C 65.351562 17.175781 65.5625 17.84375 65.566406 18.652344 L 60.28125 18.652344 C 60.273438 19.273438 60.507812 19.875 60.933594 20.328125 C 61.359375 20.777344 61.878906 20.996094 62.496094 20.980469 C 62.796875 20.980469 63.085938 20.929688 63.367188 20.824219 C 63.632812 20.730469 63.875 20.59375 64.089844 20.414062 C 64.347656 20.164062 64.5625 19.882812 64.734375 19.570312 Z M 64.734375 17.980469 C 64.65625 17.628906 64.507812 17.308594 64.292969 17.015625 C 64.085938 16.761719 63.828125 16.570312 63.53125 16.433594 C 63.21875 16.289062 62.878906 16.210938 62.535156 16.210938 C 61.964844 16.203125 61.46875 16.386719 61.050781 16.769531 C 60.746094 17.042969 60.519531 17.445312 60.363281 17.976562 Z M 66.859375 13.375 L 67.613281 13.375 L 67.613281 21.511719 L 66.859375 21.511719 Z M 66.859375 13.375 " fill-opacity="1" fill-rule="nonzero"/></svg>