<svg xmlns="http://www.w3.org/2000/svg" xmlns:xlink="http://www.w3.org/1999/xlink" width="96" zoomAndPan="magnify" viewBox="0 0 72 36.000001" height="48" preserveAspectRatio="xMidYMid meet" version="1.0"><defs><clipPath id="cd66de0370"><path d="M 21.632812 2.378906 L 51 2.378906 L 51 21.476562 L 21.632812 21.476562 Z M 21.632812 2.378906 " clip-rule="nonzero"/></clipPath></defs><path fill="#444b5e" d="M 42.742188 26.554688 C 42.117188 25.691406 41.296875 25.261719 40.292969 25.261719 C 39.417969 25.261719 38.667969 25.582031 38.039062 26.226562 C 37.414062 26.863281 37.101562 27.632812 37.101562 28.53125 C 37.101562 29.425781 37.410156 30.199219 38.027344 30.851562 C 38.65625 31.496094 39.421875 31.816406 40.328125 31.816406 C 41.230469 31.816406 42.039062 31.394531 42.742188 30.546875 L 42.742188 31.609375 L 43.523438 31.609375 L 43.523438 25.421875 L 42.742188 25.421875 Z M 42.070312 30.363281 C 41.589844 30.84375 41.011719 31.085938 40.339844 31.085938 C 39.671875 31.085938 39.101562 30.835938 38.621094 30.339844 C 38.140625 29.832031 37.902344 29.238281 37.902344 28.554688 C 37.890625 27.867188 38.128906 27.277344 38.609375 26.785156 C 39.070312 26.269531 39.648438 26.019531 40.339844 26.027344 C 41.027344 26.027344 41.609375 26.273438 42.078125 26.761719 C 42.550781 27.242188 42.789062 27.839844 42.789062 28.546875 C 42.789062 29.273438 42.546875 29.878906 42.066406 30.363281 M 35.527344 25.421875 L 36.328125 25.421875 L 36.328125 31.609375 L 35.527344 31.609375 Z M 14.671875 31.609375 L 15.472656 31.609375 L 16.285156 25.578125 L 19.269531 31.609375 L 19.476562 31.609375 L 22.425781 25.621094 L 23.238281 31.609375 L 24.0625 31.609375 L 22.867188 23.246094 L 22.742188 23.246094 L 19.375 30.105469 L 15.988281 23.246094 L 15.863281 23.246094 Z M 30.121094 26.554688 C 29.496094 25.691406 28.675781 25.261719 27.671875 25.261719 C 26.796875 25.261719 26.046875 25.582031 25.417969 26.226562 C 24.792969 26.863281 24.480469 27.632812 24.480469 28.53125 C 24.46875 29.433594 24.777344 30.207031 25.40625 30.851562 C 26.035156 31.496094 26.800781 31.820312 27.707031 31.820312 C 28.613281 31.820312 29.417969 31.394531 30.121094 30.546875 L 30.121094 31.609375 L 30.902344 31.609375 L 30.902344 25.421875 L 30.121094 25.421875 Z M 29.445312 30.363281 C 28.96875 30.84375 28.390625 31.085938 27.71875 31.085938 C 27.050781 31.085938 26.480469 30.835938 26 30.339844 C 25.519531 29.835938 25.277344 29.242188 25.277344 28.558594 C 25.269531 27.867188 25.503906 27.277344 25.988281 26.785156 C 26.460938 26.28125 27.035156 26.027344 27.714844 26.027344 C 28.40625 26.027344 28.984375 26.273438 29.457031 26.761719 C 29.929688 27.246094 30.164062 27.839844 30.164062 28.546875 C 30.167969 29.277344 29.925781 29.882812 29.445312 30.363281 M 50.203125 24.339844 C 49.800781 23.960938 49.320312 23.679688 48.765625 23.511719 C 48.214844 23.335938 47.347656 23.246094 46.164062 23.246094 L 44.433594 23.246094 L 44.433594 31.609375 L 47.09375 31.609375 C 48.175781 31.609375 49.003906 31.445312 49.578125 31.117188 C 50.152344 30.789062 50.613281 30.3125 50.945312 29.675781 C 51.289062 29.035156 51.460938 28.351562 51.457031 27.625 C 51.457031 26.894531 51.347656 26.261719 51.128906 25.714844 C 50.90625 25.167969 50.601562 24.710938 50.199219 24.339844 M 50.351562 28.972656 C 50.171875 29.402344 49.914062 29.765625 49.566406 30.070312 C 49.226562 30.363281 48.828125 30.5625 48.371094 30.664062 C 47.921875 30.765625 47.195312 30.8125 46.191406 30.8125 L 45.226562 30.8125 L 45.226562 24.058594 L 45.816406 24.058594 C 46.816406 24.058594 47.570312 24.113281 48.082031 24.222656 C 48.601562 24.324219 49.050781 24.527344 49.429688 24.828125 C 49.808594 25.132812 50.097656 25.515625 50.300781 25.984375 C 50.507812 26.449219 50.613281 26.957031 50.613281 27.507812 C 50.613281 28.058594 50.523438 28.550781 50.34375 28.976562 M 55.566406 27.042969 C 55.917969 26.855469 56.179688 26.613281 56.355469 26.308594 C 56.542969 25.996094 56.636719 25.660156 56.636719 25.292969 C 56.636719 24.636719 56.40625 24.128906 55.949219 23.78125 C 55.496094 23.421875 54.839844 23.246094 53.964844 23.246094 L 52.320312 23.246094 L 52.320312 31.609375 L 54.621094 31.609375 C 55.417969 31.609375 56.066406 31.382812 56.570312 30.933594 C 57.074219 30.480469 57.324219 29.902344 57.324219 29.207031 C 57.324219 28.695312 57.175781 28.253906 56.871094 27.878906 C 56.578125 27.507812 56.144531 27.230469 55.570312 27.042969 M 53.144531 24.058594 L 54.109375 24.058594 C 55.222656 24.058594 55.78125 24.472656 55.78125 25.300781 C 55.78125 25.796875 55.601562 26.160156 55.246094 26.394531 C 54.890625 26.628906 54.347656 26.742188 53.621094 26.742188 L 53.144531 26.742188 Z M 56.191406 30.058594 C 56.011719 30.308594 55.78125 30.492188 55.492188 30.617188 C 55.214844 30.734375 54.777344 30.792969 54.183594 30.792969 L 53.148438 30.792969 L 53.148438 27.578125 L 53.613281 27.578125 C 54.363281 27.578125 54.875 27.617188 55.144531 27.695312 C 55.425781 27.773438 55.660156 27.886719 55.855469 28.042969 C 56.058594 28.199219 56.207031 28.375 56.308594 28.578125 C 56.40625 28.785156 56.457031 29.015625 56.457031 29.277344 C 56.457031 29.542969 56.367188 29.804688 56.191406 30.0625 M 35.925781 23.25 C 35.765625 23.25 35.632812 23.304688 35.519531 23.421875 C 35.410156 23.539062 35.355469 23.671875 35.355469 23.835938 C 35.355469 23.992188 35.410156 24.125 35.519531 24.234375 C 35.636719 24.351562 35.765625 24.40625 35.929688 24.40625 C 36.089844 24.410156 36.230469 24.359375 36.34375 24.246094 C 36.457031 24.128906 36.515625 23.992188 36.515625 23.832031 C 36.519531 23.667969 36.460938 23.53125 36.34375 23.421875 C 36.234375 23.300781 36.097656 23.242188 35.933594 23.25 M 34.457031 25.332031 C 33.796875 25.421875 33.238281 25.707031 32.78125 26.1875 L 32.699219 26.28125 L 32.699219 25.429688 L 32.558594 25.429688 L 32.558594 25.417969 L 31.941406 25.417969 L 31.941406 31.605469 L 32.75 31.605469 L 32.75 27.941406 C 32.746094 27.585938 32.84375 27.265625 33.042969 26.972656 C 33.375 26.441406 33.957031 26.085938 34.625 26.074219 L 34.625 25.292969 L 34.460938 25.328125 " fill-opacity="1" fill-rule="nonzero"/><g clip-path="url(#cd66de0370)"><path fill="#444b5e" d="M 46.59375 4.152344 C 45.96875 4.167969 45.605469 4.441406 45.484375 4.960938 C 45.644531 5.097656 45.855469 5.160156 46.070312 5.148438 C 46.539062 5.128906 47.003906 4.769531 46.875 4.164062 C 46.773438 4.15625 46.679688 4.152344 46.59375 4.152344 M 49.792969 2.378906 L 49.738281 2.378906 C 49.292969 2.394531 49.226562 2.636719 48.269531 2.871094 C 47.300781 3.109375 46.367188 2.882812 45.328125 3.320312 C 42.21875 4.625 41.558594 9.136719 38.734375 10.738281 C 36.621094 11.933594 34.582031 12.464844 32.667969 13.066406 C 31.40625 13.464844 30.160156 13.917969 29.019531 14.902344 C 28.132812 15.671875 27.890625 16.265625 26.96875 17.226562 C 26.027344 18.203125 23.136719 16.472656 21.726562 17.738281 C 21.664062 17.792969 21.632812 17.863281 21.636719 17.949219 C 21.636719 18.03125 21.667969 18.101562 21.730469 18.15625 C 22.035156 18.421875 22.617188 19.0625 23.167969 19.257812 C 22.992188 19.589844 22.003906 20.574219 22.207031 21.0625 C 22.417969 21.578125 24.875 21.230469 27.144531 19.855469 C 28.199219 19.214844 29.042969 18.289062 30.691406 18.070312 C 32.820312 17.785156 35.277344 18.253906 37.742188 18.609375 C 37.375 19.703125 36.644531 20.433594 36.054688 21.308594 C 35.871094 21.503906 36.421875 21.527344 37.046875 21.40625 C 38.171875 21.128906 38.980469 20.902344 39.832031 20.40625 C 40.875 19.796875 41.035156 18.238281 42.3125 17.898438 C 42.933594 18.851562 44.472656 19.175781 45.65625 18.664062 C 45.722656 18.636719 45.789062 18.605469 45.851562 18.574219 C 45.992188 18.449219 45.910156 18.300781 45.820312 18.195312 C 45.78125 18.15625 45.738281 18.117188 45.703125 18.074219 C 45.035156 17.355469 44.882812 15.65625 45.175781 14.828125 C 45.515625 13.886719 45.847656 12.382812 46.1875 11.140625 C 46.554688 9.808594 46.6875 8.121094 47.128906 7.441406 C 47.792969 6.417969 48.527344 6.066406 49.167969 5.492188 C 49.804688 4.914062 50.386719 4.351562 50.367188 3.03125 C 50.359375 2.625 50.160156 2.390625 49.792969 2.378906 M 49.859375 3.765625 C 49.726562 4.675781 49.148438 5.175781 48.464844 5.660156 C 47.867188 6.082031 47.203125 6.488281 46.78125 7.152344 C 46.347656 7.828125 46.070312 10.140625 45.398438 12.429688 C 44.84375 14.328125 44.011719 16.203125 42.589844 17.109375 C 42.496094 17.167969 42.375 17.113281 42.355469 17.007812 C 42.257812 16.476562 42.277344 15.507812 42.113281 15.824219 C 41.90625 16.410156 41.671875 16.972656 41.402344 17.496094 C 40.566406 19.101562 39.355469 20.328125 37.398438 20.808594 C 37.320312 20.828125 37.257812 20.804688 37.214844 20.734375 C 37.167969 20.667969 37.171875 20.601562 37.214844 20.535156 C 38.117188 19.28125 38.925781 17.929688 39.023438 15.871094 C 39.03125 15.691406 38.808594 15.609375 38.699219 15.75 C 38.273438 16.277344 38.167969 17.53125 37.542969 17.914062 C 37.054688 17.96875 36.558594 17.96875 36.058594 17.9375 C 34.011719 17.816406 31.910156 17.199219 29.996094 17.816406 C 28.691406 18.234375 27.320312 19.429688 26.214844 19.910156 C 24.917969 20.472656 24.300781 21.003906 22.664062 20.96875 C 22.496094 20.742188 23.347656 19.761719 23.636719 19.339844 C 23.730469 19.203125 23.53125 19.058594 23.347656 18.972656 C 22.902344 18.765625 22.457031 18.210938 21.984375 17.996094 C 22.042969 17.882812 22.257812 17.773438 22.378906 17.703125 C 23.453125 17.078125 26.304688 18.410156 27.070312 17.65625 C 27.542969 17.191406 27.863281 16.78125 28.183594 16.308594 C 28.496094 15.847656 28.96875 15.363281 29.460938 14.960938 C 29.667969 14.792969 29.882812 14.632812 30.105469 14.480469 C 30.941406 13.90625 31.402344 13.863281 32.484375 13.460938 C 33.863281 12.945312 35.566406 12.496094 37.046875 11.929688 C 37.960938 11.578125 38.953125 11.148438 39.761719 10.539062 C 39.953125 10.398438 40.136719 10.242188 40.304688 10.078125 C 42.617188 7.816406 43.074219 3.832031 46.675781 3.457031 C 47.113281 3.414062 47.421875 3.394531 47.75 3.382812 C 48.113281 3.375 48.472656 3.285156 48.832031 3.113281 C 48.941406 3.0625 49.601562 2.664062 49.824219 2.855469 C 49.972656 2.984375 49.863281 3.6875 49.855469 3.761719 " fill-opacity="1" fill-rule="nonzero"/></g></svg>