<svg xmlns="http://www.w3.org/2000/svg" xmlns:xlink="http://www.w3.org/1999/xlink" width="96" zoomAndPan="magnify" viewBox="0 0 72 36.000001" height="48" preserveAspectRatio="xMidYMid meet" version="1.0"><path fill="#599636" d="M 10.398438 3.007812 L 11.035156 4.207031 C 11.175781 4.421875 11.335938 4.621094 11.515625 4.804688 C 12.050781 5.335938 12.558594 5.894531 13.011719 6.492188 C 14.089844 7.910156 14.816406 9.484375 15.339844 11.1875 C 15.648438 12.226562 15.820312 13.292969 15.832031 14.371094 C 15.882812 17.597656 14.777344 20.367188 12.542969 22.667969 C 12.179688 23.03125 11.789062 23.367188 11.375 23.667969 C 11.152344 23.667969 11.046875 23.492188 10.957031 23.34375 C 10.78125 23.050781 10.683594 22.730469 10.632812 22.40625 C 10.554688 22.015625 10.5 21.625 10.527344 21.222656 L 10.527344 21.042969 C 10.515625 21.003906 10.320312 3.101562 10.398438 3.007812 Z M 10.398438 3.007812 " fill-opacity="1" fill-rule="nonzero"/><path fill="#6cac48" d="M 10.398438 2.96875 C 10.375 2.917969 10.347656 2.957031 10.320312 2.984375 C 10.332031 3.242188 10.242188 3.476562 10.097656 3.699219 C 9.945312 3.921875 9.734375 4.089844 9.527344 4.269531 C 8.371094 5.273438 7.460938 6.480469 6.730469 7.832031 C 5.769531 9.652344 5.261719 11.601562 5.121094 13.65625 C 5.054688 14.398438 5.355469 17.011719 5.589844 17.765625 C 6.226562 19.765625 7.371094 21.445312 8.859375 22.898438 C 9.222656 23.25 9.613281 23.574219 10.015625 23.886719 C 10.132812 23.886719 10.144531 23.785156 10.171875 23.707031 C 10.222656 23.539062 10.261719 23.371094 10.289062 23.199219 C 10.40625 22.546875 10.46875 21.898438 10.546875 21.25 L 10.40625 2.96875 Z M 10.398438 2.96875 " fill-opacity="1" fill-rule="nonzero"/><path fill="#c2bfbf" d="M 11.039062 24.460938 C 11.0625 24.160156 11.210938 23.914062 11.363281 23.667969 C 11.207031 23.605469 11.089844 23.472656 11 23.328125 C 10.921875 23.199219 10.855469 23.039062 10.804688 22.898438 C 10.621094 22.355469 10.582031 21.78125 10.53125 21.222656 L 10.53125 20.882812 C 10.464844 20.9375 10.453125 21.378906 10.453125 21.445312 C 10.414062 22.042969 10.335938 22.625 10.21875 23.199219 C 10.179688 23.433594 10.152344 23.667969 10.011719 23.875 C 10.011719 23.902344 10.011719 23.925781 10.023438 23.964844 C 10.257812 24.65625 10.324219 25.355469 10.363281 26.070312 L 10.363281 26.332031 C 10.363281 26.644531 10.347656 26.578125 10.609375 26.683594 C 10.710938 26.722656 10.832031 26.734375 10.933594 26.8125 C 11.011719 26.8125 11.023438 26.746094 11.023438 26.695312 L 10.984375 26.265625 L 10.984375 25.070312 C 10.972656 24.863281 11.011719 24.652344 11.039062 24.457031 Z M 11.039062 24.460938 " fill-opacity="1" fill-rule="nonzero"/><path fill="#47474a" d="M 20.910156 19.023438 L 20.910156 20.261719 C 20.910156 20.3125 20.910156 20.359375 20.917969 20.40625 C 20.933594 20.554688 21.023438 20.644531 21.15625 20.683594 C 21.28125 20.71875 21.40625 20.742188 21.53125 20.757812 C 21.605469 20.765625 21.628906 20.800781 21.636719 20.878906 C 21.644531 21.15625 21.621094 21.1875 21.351562 21.171875 C 20.726562 21.136719 20.097656 21.128906 19.472656 21.171875 L 19.410156 21.171875 C 19.214844 21.179688 19.199219 21.164062 19.199219 20.96875 C 19.199219 20.933594 19.207031 20.894531 19.207031 20.859375 C 19.207031 20.800781 19.25 20.773438 19.304688 20.773438 C 19.4375 20.753906 19.558594 20.722656 19.679688 20.699219 C 19.851562 20.65625 19.949219 20.550781 19.964844 20.378906 C 19.992188 20.195312 19.992188 19.996094 19.992188 19.808594 L 20 17.628906 C 20.003906 17.484375 19.945312 17.382812 19.820312 17.316406 C 19.671875 17.234375 19.515625 17.171875 19.355469 17.121094 C 19.304688 17.105469 19.257812 17.097656 19.214844 17.074219 C 19.097656 17.015625 19.09375 16.910156 19.207031 16.84375 C 19.25 16.820312 19.296875 16.804688 19.347656 16.796875 C 19.84375 16.722656 20.324219 16.601562 20.796875 16.429688 C 20.894531 16.394531 20.917969 16.40625 20.925781 16.503906 C 20.9375 16.5625 20.925781 16.632812 20.917969 16.691406 C 20.902344 16.796875 20.902344 16.902344 20.902344 17 C 20.902344 17.039062 20.910156 17.082031 20.953125 17.105469 C 20.992188 17.128906 21.035156 17.105469 21.070312 17.082031 C 21.242188 16.949219 21.414062 16.828125 21.601562 16.722656 C 21.867188 16.578125 22.15625 16.445312 22.464844 16.40625 C 22.839844 16.359375 23.164062 16.457031 23.449219 16.699219 C 23.570312 16.804688 23.671875 16.925781 23.761719 17.058594 C 23.84375 17.175781 23.851562 17.179688 23.957031 17.097656 C 24.265625 16.871094 24.589844 16.667969 24.941406 16.519531 C 25.308594 16.367188 25.683594 16.339844 26.058594 16.472656 C 26.441406 16.609375 26.703125 16.878906 26.855469 17.246094 C 26.988281 17.539062 27.042969 17.839844 27.042969 18.15625 L 27.042969 20.339844 C 27.042969 20.488281 27.101562 20.578125 27.246094 20.648438 C 27.402344 20.710938 27.574219 20.738281 27.738281 20.773438 C 27.84375 20.796875 27.84375 20.796875 27.84375 20.902344 C 27.828125 21.171875 27.800781 21.1875 27.539062 21.171875 C 26.886719 21.136719 26.230469 21.136719 25.578125 21.171875 C 25.445312 21.179688 25.445312 21.179688 25.441406 21.050781 L 25.441406 21.007812 C 25.429688 20.789062 25.429688 20.789062 25.644531 20.742188 L 25.855469 20.683594 C 26.023438 20.644531 26.105469 20.539062 26.109375 20.367188 L 26.132812 19.753906 L 26.117188 18.160156 C 26.109375 18.015625 26.078125 17.875 26.027344 17.742188 C 25.820312 17.246094 25.375 17.066406 24.941406 17.117188 C 24.617188 17.148438 24.332031 17.277344 24.0625 17.464844 C 24.003906 17.507812 23.964844 17.554688 23.972656 17.636719 C 24.046875 18.160156 23.996094 18.679688 24.003906 19.203125 L 24.003906 20.335938 C 24.003906 20.539062 24.085938 20.636719 24.28125 20.683594 L 24.660156 20.765625 C 24.714844 20.773438 24.746094 20.800781 24.746094 20.863281 L 24.746094 20.921875 C 24.738281 21.152344 24.722656 21.164062 24.496094 21.160156 C 23.84375 21.128906 23.191406 21.136719 22.546875 21.160156 C 22.328125 21.167969 22.308594 21.144531 22.320312 20.921875 C 22.328125 20.789062 22.34375 20.78125 22.464844 20.757812 L 22.734375 20.710938 C 22.972656 20.660156 23.0625 20.570312 23.078125 20.320312 L 23.101562 19.773438 L 23.085938 18.136719 C 23.070312 17.929688 23.023438 17.734375 22.914062 17.546875 C 22.75 17.246094 22.496094 17.09375 22.148438 17.074219 C 21.796875 17.050781 21.488281 17.183594 21.195312 17.34375 C 20.988281 17.464844 20.902344 17.605469 20.917969 17.839844 L 20.917969 19.03125 Z M 36.257812 19.074219 L 36.257812 20.222656 C 36.257812 20.304688 36.265625 20.386719 36.273438 20.464844 C 36.28125 20.589844 36.347656 20.667969 36.46875 20.695312 C 36.609375 20.734375 36.753906 20.761719 36.902344 20.769531 C 36.984375 20.777344 37 20.808594 37.007812 20.875 L 37.007812 20.929688 C 37 21.214844 36.964844 21.25 36.6875 21.234375 C 36.070312 21.191406 35.453125 21.199219 34.832031 21.234375 L 34.59375 21.242188 C 34.542969 21.242188 34.535156 21.21875 34.519531 21.183594 C 34.496094 21.070312 34.496094 20.957031 34.519531 20.839844 C 34.527344 20.792969 34.5625 20.78125 34.609375 20.769531 C 34.730469 20.753906 34.832031 20.726562 34.945312 20.707031 C 35.148438 20.660156 35.21875 20.578125 35.226562 20.367188 L 35.253906 19.683594 L 35.253906 17.679688 C 35.253906 17.53125 35.195312 17.441406 35.066406 17.375 C 34.917969 17.292969 34.761719 17.238281 34.601562 17.179688 C 34.550781 17.164062 34.503906 17.148438 34.460938 17.125 C 34.355469 17.050781 34.34375 16.945312 34.445312 16.863281 C 34.492188 16.824219 34.546875 16.800781 34.609375 16.796875 C 35.128906 16.714844 35.636719 16.601562 36.125 16.40625 C 36.179688 16.382812 36.207031 16.398438 36.230469 16.445312 C 36.253906 16.496094 36.261719 16.554688 36.253906 16.609375 L 36.230469 16.992188 C 36.230469 17.042969 36.207031 17.113281 36.246094 17.128906 C 36.292969 17.164062 36.328125 17.089844 36.367188 17.070312 C 36.609375 16.867188 36.875 16.699219 37.160156 16.566406 C 37.410156 16.445312 37.671875 16.371094 37.964844 16.386719 C 38.511719 16.421875 38.902344 16.699219 39.15625 17.179688 C 39.285156 17.429688 39.339844 17.707031 39.367188 17.992188 L 39.390625 18.589844 L 39.398438 20.390625 C 39.40625 20.527344 39.457031 20.617188 39.59375 20.667969 C 39.738281 20.714844 39.882812 20.75 40.035156 20.773438 C 40.164062 20.789062 40.171875 20.8125 40.179688 20.933594 L 40.179688 20.976562 C 40.164062 21.253906 40.148438 21.261719 39.871094 21.242188 C 39.261719 21.210938 38.652344 21.210938 38.046875 21.242188 C 37.964844 21.253906 37.882812 21.242188 37.808594 21.253906 C 37.757812 21.253906 37.726562 21.242188 37.71875 21.195312 C 37.703125 21.089844 37.683594 20.984375 37.710938 20.867188 C 37.71875 20.820312 37.742188 20.796875 37.796875 20.789062 L 38.175781 20.726562 C 38.304688 20.695312 38.378906 20.609375 38.394531 20.488281 L 38.410156 20.261719 L 38.402344 18.558594 C 38.402344 18.363281 38.394531 18.167969 38.355469 17.972656 C 38.257812 17.554688 37.9375 17.257812 37.507812 17.214844 C 37.132812 17.175781 36.792969 17.273438 36.480469 17.476562 C 36.324219 17.574219 36.261719 17.710938 36.261719 17.882812 L 36.261719 19.113281 C 36.261719 19.089844 36.261719 19.089844 36.269531 19.089844 Z M 36.257812 19.074219 " fill-opacity="1" fill-rule="nonzero"/><path fill="#c2bfbf" d="M 60.117188 16.765625 C 60.027344 16.171875 59.808594 15.644531 59.425781 15.179688 C 59.085938 14.761719 58.667969 14.453125 58.171875 14.25 C 57.65625 14.039062 57.109375 13.972656 56.558594 13.957031 C 56.328125 13.949219 53.21875 13.996094 52.988281 13.957031 C 52.933594 13.949219 52.890625 13.964844 52.859375 14.011719 C 52.816406 14.074219 52.777344 14.136719 52.75 14.199219 C 52.652344 14.421875 52.652344 14.40625 52.890625 14.4375 C 53.085938 14.46875 53.273438 14.484375 53.460938 14.542969 C 53.632812 14.601562 53.753906 14.699219 53.792969 14.886719 C 53.808594 14.972656 53.828125 17.84375 53.828125 19.179688 L 53.792969 20.132812 C 53.785156 20.207031 53.777344 20.277344 53.753906 20.34375 C 53.722656 20.441406 53.664062 20.523438 53.566406 20.5625 C 53.457031 20.617188 53.34375 20.644531 53.222656 20.652344 C 53.003906 20.675781 52.972656 20.6875 52.898438 20.929688 L 52.875 21.019531 C 52.859375 21.125 52.867188 21.144531 52.972656 21.144531 L 55.40625 21.167969 L 56.363281 21.148438 L 57.023438 21.070312 C 57.769531 20.929688 58.4375 20.621094 59.007812 20.125 C 59.339844 19.832031 59.597656 19.492188 59.792969 19.097656 C 60.019531 18.640625 60.117188 18.144531 60.140625 17.640625 C 60.183594 17.355469 60.164062 17.0625 60.117188 16.769531 Z M 58.9375 17.921875 C 58.902344 18.445312 58.796875 18.949219 58.527344 19.40625 C 58.1875 20 57.699219 20.417969 57.023438 20.5625 C 56.730469 20.621094 56.4375 20.652344 56.128906 20.613281 C 55.90625 20.585938 55.695312 20.5625 55.492188 20.488281 C 55.125 20.359375 54.996094 20.132812 54.988281 19.773438 L 54.980469 14.863281 C 54.980469 14.570312 55.109375 14.503906 55.320312 14.496094 C 55.640625 14.472656 55.964844 14.480469 56.28125 14.511719 C 56.625 14.542969 56.953125 14.625 57.269531 14.75 C 57.503906 14.847656 57.71875 14.980469 57.914062 15.148438 C 58.351562 15.523438 58.644531 15.996094 58.808594 16.550781 C 58.9375 17 58.960938 17.453125 58.9375 17.910156 Z M 66.886719 18.722656 C 66.886719 18.671875 66.886719 18.632812 66.878906 18.585938 C 66.808594 18.136719 66.570312 17.792969 66.203125 17.53125 C 65.96875 17.363281 65.699219 17.25 65.421875 17.167969 C 65.375 17.152344 65.332031 17.132812 65.285156 17.125 C 65.292969 17.085938 65.316406 17.078125 65.339844 17.070312 C 65.503906 16.988281 65.660156 16.898438 65.796875 16.777344 C 66.050781 16.5625 66.214844 16.300781 66.300781 15.984375 C 66.351562 15.8125 66.351562 15.644531 66.335938 15.464844 C 66.304688 15.015625 66.109375 14.660156 65.738281 14.402344 C 65.363281 14.125 64.925781 14.011719 64.46875 14.003906 C 63.589844 13.988281 62.703125 14.003906 61.820312 14.003906 C 61.570312 14.003906 61.316406 14.019531 61.054688 13.980469 C 61.007812 13.972656 60.9375 13.957031 60.902344 14.011719 C 60.839844 14.121094 60.769531 14.226562 60.746094 14.347656 C 60.738281 14.40625 60.753906 14.4375 60.820312 14.445312 L 61.382812 14.527344 C 61.601562 14.558594 61.757812 14.683594 61.773438 14.878906 C 61.789062 15.011719 61.796875 15.148438 61.796875 15.285156 L 61.78125 16.808594 L 61.773438 19.820312 C 61.773438 20 61.75 20.171875 61.714844 20.351562 C 61.695312 20.476562 61.625 20.558594 61.503906 20.59375 C 61.339844 20.644531 61.1875 20.691406 61.015625 20.691406 C 60.90625 20.683594 60.835938 20.730469 60.804688 20.832031 C 60.769531 20.90625 60.742188 20.988281 60.730469 21.058594 C 60.714844 21.15625 60.738281 21.191406 60.835938 21.179688 C 60.910156 21.171875 63.597656 21.234375 64.101562 21.1875 C 64.402344 21.15625 64.699219 21.113281 65 21.023438 C 65.511719 20.863281 65.984375 20.625 66.359375 20.226562 C 66.667969 19.898438 66.847656 19.507812 66.863281 19.050781 C 66.886719 18.945312 66.886719 18.839844 66.886719 18.726562 Z M 62.9375 15.382812 L 62.960938 14.734375 C 62.960938 14.609375 63.011719 14.554688 63.132812 14.527344 C 63.328125 14.488281 63.523438 14.503906 63.71875 14.511719 C 63.914062 14.527344 64.101562 14.554688 64.296875 14.609375 C 64.65625 14.714844 64.933594 14.921875 65.097656 15.261719 C 65.171875 15.417969 65.210938 15.585938 65.210938 15.757812 C 65.21875 15.988281 65.203125 16.207031 65.113281 16.425781 C 64.972656 16.726562 64.753906 16.925781 64.4375 16.980469 C 64.117188 17.039062 63.214844 17.015625 63.074219 17.015625 C 62.953125 17.015625 62.945312 16.996094 62.945312 16.875 L 62.945312 16.109375 C 62.925781 15.871094 62.921875 15.628906 62.9375 15.390625 Z M 65.585938 19.765625 C 65.445312 20.132812 65.191406 20.386719 64.835938 20.523438 C 64.640625 20.597656 64.445312 20.644531 64.238281 20.628906 C 63.984375 20.621094 63.734375 20.628906 63.480469 20.582031 C 63.140625 20.507812 62.984375 20.183594 62.960938 19.945312 C 62.917969 19.53125 62.945312 19.105469 62.9375 18.796875 L 62.9375 17.722656 C 62.9375 17.589844 62.953125 17.550781 63.089844 17.550781 L 63.855469 17.558594 L 64.378906 17.617188 C 64.746094 17.699219 65.078125 17.839844 65.339844 18.125 C 65.550781 18.351562 65.667969 18.628906 65.691406 18.929688 C 65.714844 19.214844 65.699219 19.492188 65.59375 19.761719 Z M 65.585938 19.765625 " fill-opacity="1" fill-rule="nonzero"/><path fill="#47474a" d="M 44.886719 17.3125 L 45.097656 17.34375 C 45.324219 17.355469 45.59375 17.273438 45.675781 16.953125 C 45.722656 16.800781 45.722656 16.644531 45.675781 16.488281 C 45.625 16.488281 45.601562 16.53125 45.578125 16.546875 C 45.457031 16.644531 45.316406 16.703125 45.171875 16.71875 C 44.878906 16.75 44.582031 16.734375 44.296875 16.628906 L 43.898438 16.488281 C 43.617188 16.398438 43.332031 16.359375 43.035156 16.375 C 42.621094 16.410156 42.226562 16.546875 41.863281 16.742188 C 41.472656 16.953125 41.195312 17.273438 41.0625 17.703125 C 40.988281 17.957031 40.980469 18.21875 41.015625 18.480469 C 41.097656 19.074219 41.40625 19.488281 41.960938 19.707031 C 41.992188 19.71875 42.015625 19.734375 42.046875 19.742188 C 42.121094 19.78125 42.128906 19.824219 42.066406 19.878906 L 41.859375 20.019531 L 41.371094 20.320312 C 41.25 20.394531 41.234375 20.449219 41.273438 20.582031 C 41.324219 20.734375 41.410156 20.867188 41.535156 20.972656 C 41.648438 21.066406 41.773438 21.144531 41.910156 21.199219 C 42 21.242188 42 21.257812 41.917969 21.332031 L 41.453125 21.664062 C 41.296875 21.785156 41.144531 21.902344 41.011719 22.054688 C 40.816406 22.265625 40.753906 22.511719 40.816406 22.789062 C 40.878906 23.078125 41.019531 23.324219 41.242188 23.523438 C 41.457031 23.722656 41.707031 23.855469 41.988281 23.929688 C 42.445312 24.0625 42.917969 24.066406 43.382812 23.976562 C 44.050781 23.855469 44.636719 23.5625 45.09375 23.058594 C 45.410156 22.722656 45.597656 22.332031 45.617188 21.867188 C 45.632812 21.585938 45.558594 21.335938 45.394531 21.109375 C 45.226562 20.886719 45.007812 20.742188 44.734375 20.675781 L 44.296875 20.59375 L 42.953125 20.476562 C 42.804688 20.46875 42.660156 20.441406 42.535156 20.371094 C 42.382812 20.273438 42.339844 20.085938 42.4375 19.960938 C 42.511719 19.871094 42.601562 19.816406 42.714844 19.808594 L 42.976562 19.785156 C 43.503906 19.730469 43.964844 19.519531 44.351562 19.15625 C 44.558594 18.964844 44.695312 18.734375 44.769531 18.464844 C 44.867188 18.113281 44.867188 17.75 44.785156 17.390625 C 44.761719 17.300781 44.769531 17.292969 44.882812 17.308594 Z M 42.886719 21.371094 C 42.9375 21.378906 42.984375 21.371094 43.035156 21.371094 C 43.378906 21.386719 43.726562 21.410156 44.0625 21.5 C 44.171875 21.535156 44.277344 21.574219 44.378906 21.625 C 44.707031 21.800781 44.828125 22.113281 44.785156 22.445312 C 44.738281 22.8125 44.535156 23.074219 44.214844 23.246094 C 44.003906 23.363281 43.769531 23.417969 43.523438 23.441406 C 43.433594 23.449219 43.351562 23.441406 43.261719 23.441406 C 42.976562 23.449219 42.699219 23.417969 42.433594 23.300781 C 42.246094 23.230469 42.089844 23.125 41.953125 22.976562 C 41.667969 22.691406 41.535156 22.167969 41.960938 21.746094 C 42.21875 21.507812 42.515625 21.339844 42.886719 21.371094 Z M 43.816406 18.828125 C 43.644531 19.261719 43.269531 19.390625 42.898438 19.332031 C 42.554688 19.285156 42.300781 19.097656 42.140625 18.789062 C 41.929688 18.371094 41.871094 17.941406 41.992188 17.492188 C 42.082031 17.15625 42.285156 16.90625 42.644531 16.847656 C 43.101562 16.765625 43.539062 16.929688 43.769531 17.386719 C 43.886719 17.605469 43.941406 17.875 43.941406 18.257812 C 43.929688 18.414062 43.898438 18.625 43.816406 18.828125 Z M 33.554688 18.273438 C 33.480469 17.835938 33.316406 17.433594 33.015625 17.101562 C 32.566406 16.605469 31.996094 16.386719 31.355469 16.382812 C 30.792969 16.375 30.261719 16.539062 29.789062 16.832031 C 29.304688 17.121094 28.988281 17.535156 28.835938 18.078125 C 28.699219 18.550781 28.703125 19.03125 28.8125 19.511719 C 29.097656 20.800781 30.089844 21.351562 31.28125 21.273438 C 31.628906 21.25 31.964844 21.132812 32.28125 20.980469 C 32.753906 20.757812 33.097656 20.40625 33.332031 19.945312 C 33.519531 19.5625 33.601562 19.152344 33.59375 18.6875 L 33.550781 18.273438 Z M 32.398438 20.082031 C 32.335938 20.269531 32.230469 20.425781 32.078125 20.550781 C 31.925781 20.675781 31.753906 20.746094 31.558594 20.765625 C 31.199219 20.816406 30.863281 20.726562 30.5625 20.515625 C 30.34375 20.351562 30.171875 20.148438 30.050781 19.902344 C 29.714844 19.21875 29.660156 18.503906 29.828125 17.769531 C 29.886719 17.539062 30 17.339844 30.171875 17.175781 C 30.472656 16.898438 30.824219 16.832031 31.214844 16.914062 C 31.589844 16.996094 31.875 17.199219 32.109375 17.507812 C 32.34375 17.820312 32.453125 18.175781 32.515625 18.550781 C 32.550781 18.738281 32.550781 18.933594 32.558594 19.058594 C 32.558594 19.449219 32.523438 19.773438 32.402344 20.082031 Z M 51.351562 18.339844 C 51.292969 17.867188 51.117188 17.433594 50.78125 17.078125 C 50.34375 16.597656 49.773438 16.394531 49.136719 16.382812 C 48.589844 16.375 48.085938 16.53125 47.621094 16.800781 C 47.101562 17.109375 46.742188 17.550781 46.605469 18.144531 C 46.433594 18.8125 46.5 19.460938 46.800781 20.082031 C 47.066406 20.652344 47.523438 21.019531 48.128906 21.183594 C 48.796875 21.363281 49.429688 21.28125 50.050781 20.980469 C 50.585938 20.71875 50.96875 20.3125 51.191406 19.757812 C 51.320312 19.429688 51.371094 19.082031 51.378906 18.671875 C 51.386719 18.597656 51.371094 18.46875 51.355469 18.339844 Z M 50.230469 19.976562 C 50.097656 20.417969 49.820312 20.703125 49.359375 20.769531 C 49.015625 20.816406 48.691406 20.734375 48.394531 20.539062 C 48.144531 20.367188 47.964844 20.140625 47.832031 19.871094 C 47.6875 19.585938 47.605469 19.285156 47.574219 18.976562 C 47.523438 18.59375 47.523438 18.21875 47.613281 17.835938 C 47.632812 17.757812 47.65625 17.6875 47.6875 17.617188 C 47.914062 17.042969 48.421875 16.785156 49.015625 16.914062 C 49.414062 17.003906 49.714844 17.226562 49.945312 17.558594 C 50.164062 17.886719 50.269531 18.242188 50.320312 18.632812 C 50.34375 18.785156 50.351562 18.949219 50.34375 19.085938 C 50.34375 19.40625 50.320312 19.699219 50.222656 19.984375 Z M 50.230469 19.976562 " fill-opacity="1" fill-rule="nonzero"/></svg>