<svg xmlns="http://www.w3.org/2000/svg" xmlns:xlink="http://www.w3.org/1999/xlink" width="96" zoomAndPan="magnify" viewBox="0 0 72 36.000001" height="48" preserveAspectRatio="xMidYMid meet" version="1.0"><path fill="#00678c" d="M 12.074219 19.917969 C 11.566406 19.90625 11.171875 19.957031 10.84375 20.101562 C 10.746094 20.136719 10.59375 20.136719 10.582031 20.261719 C 10.632812 20.3125 10.640625 20.394531 10.6875 20.464844 C 10.773438 20.617188 10.882812 20.746094 11.015625 20.859375 L 11.425781 21.15625 C 11.671875 21.308594 11.949219 21.398438 12.191406 21.550781 C 12.332031 21.640625 12.46875 21.753906 12.570312 21.851562 C 12.640625 21.902344 12.6875 21.988281 12.773438 22.015625 L 12.773438 21.996094 C 12.726562 21.941406 12.714844 21.855469 12.671875 21.792969 L 12.480469 21.609375 C 12.292969 21.359375 12.074219 21.144531 11.824219 20.960938 C 11.621094 20.820312 11.175781 20.628906 11.09375 20.390625 L 11.082031 20.378906 C 11.222656 20.371094 11.386719 20.316406 11.519531 20.277344 C 11.734375 20.21875 11.929688 20.230469 12.152344 20.171875 L 12.457031 20.085938 L 12.457031 20.027344 C 12.34375 19.910156 12.261719 19.757812 12.140625 19.648438 C 11.820312 19.367188 11.464844 19.089844 11.097656 18.859375 C 10.898438 18.734375 10.648438 18.648438 10.4375 18.539062 C 10.363281 18.5 10.238281 18.480469 10.191406 18.417969 C 10.078125 18.273438 10.011719 18.089844 9.933594 17.925781 L 9.414062 16.808594 C 9.296875 16.558594 9.230469 16.308594 9.089844 16.074219 C 8.492188 15.046875 7.675781 14.246094 6.636719 13.671875 C 6.402344 13.539062 6.125 13.480469 5.828125 13.410156 L 5.351562 13.382812 C 5.25 13.335938 5.152344 13.21875 5.058594 13.160156 C 4.699219 12.929688 3.765625 12.429688 3.539062 13.089844 C 3.367188 13.507812 3.792969 13.917969 3.9375 14.132812 C 4.042969 14.277344 4.183594 14.445312 4.261719 14.613281 C 4.308594 14.71875 4.320312 14.835938 4.363281 14.953125 L 4.695312 15.808594 C 4.761719 15.949219 4.84375 16.082031 4.929688 16.207031 C 4.980469 16.277344 5.070312 16.308594 5.089844 16.425781 C 5.003906 16.554688 4.996094 16.746094 4.945312 16.90625 C 4.71875 17.632812 4.804688 18.53125 5.128906 19.0625 C 5.230469 19.226562 5.507812 19.574219 5.792969 19.441406 C 6.078125 19.324219 6.015625 18.960938 6.097656 18.640625 C 6.117188 18.5625 6.105469 18.511719 6.144531 18.460938 L 6.144531 18.472656 L 6.402344 19.003906 C 6.597656 19.316406 6.941406 19.644531 7.226562 19.859375 C 7.378906 19.976562 7.5 20.175781 7.691406 20.246094 L 7.691406 20.226562 L 7.664062 20.226562 C 7.625 20.167969 7.570312 20.140625 7.519531 20.101562 C 7.398438 19.980469 7.289062 19.851562 7.1875 19.714844 C 6.917969 19.34375 6.683594 18.957031 6.476562 18.546875 C 6.375 18.347656 6.289062 18.132812 6.203125 17.933594 C 6.167969 17.855469 6.167969 17.738281 6.101562 17.699219 C 6.007812 17.84375 5.867188 17.960938 5.796875 18.136719 C 5.675781 18.414062 5.664062 18.75 5.617188 19.105469 C 5.390625 19.066406 5.320312 18.855469 5.246094 18.675781 C 5.054688 18.21875 5.027344 17.480469 5.1875 16.960938 C 5.234375 16.828125 5.425781 16.402344 5.347656 16.277344 C 5.3125 16.152344 5.183594 16.082031 5.113281 15.988281 C 5.03125 15.863281 4.941406 15.710938 4.886719 15.574219 C 4.773438 15.214844 4.660156 14.8125 4.496094 14.453125 C 4.421875 14.289062 4.289062 14.121094 4.179688 13.964844 C 4.058594 13.789062 3.925781 13.664062 3.832031 13.464844 C 3.796875 13.386719 3.753906 13.273438 3.804688 13.195312 C 3.816406 13.144531 3.84375 13.125 3.894531 13.109375 C 3.976562 13.042969 4.207031 13.128906 4.292969 13.167969 C 4.527344 13.265625 4.722656 13.351562 4.917969 13.488281 C 5.007812 13.554688 5.101562 13.671875 5.214844 13.707031 L 5.347656 13.707031 C 5.550781 13.753906 5.777344 13.71875 5.96875 13.777344 C 6.304688 13.882812 6.605469 14.046875 6.878906 14.21875 C 7.734375 14.769531 8.394531 15.503906 8.859375 16.414062 C 8.933594 16.5625 8.964844 16.695312 9.035156 16.847656 L 9.464844 17.792969 C 9.597656 18.09375 9.722656 18.402344 9.914062 18.652344 C 10.007812 18.785156 10.390625 18.855469 10.5625 18.929688 C 10.6875 18.988281 10.882812 19.035156 11 19.109375 L 11.632812 19.546875 C 11.734375 19.621094 12.011719 19.785156 12.070312 19.910156 Z M 12.074219 19.917969 " fill-opacity="1" fill-rule="evenodd"/><path fill="#00678c" d="M 5.609375 14.339844 C 5.503906 14.339844 5.429688 14.351562 5.351562 14.371094 L 5.351562 14.382812 L 5.363281 14.382812 C 5.414062 14.484375 5.503906 14.554688 5.566406 14.644531 L 5.710938 14.953125 L 5.722656 14.941406 C 5.808594 14.875 5.855469 14.773438 5.855469 14.621094 C 5.816406 14.574219 5.808594 14.53125 5.777344 14.484375 C 5.742188 14.417969 5.65625 14.390625 5.605469 14.339844 Z M 5.609375 14.339844 " fill-opacity="1" fill-rule="evenodd"/><path fill="#ce8b2c" d="M 39.234375 21.589844 L 44.683594 21.589844 C 45.324219 21.589844 45.933594 21.457031 46.425781 21.222656 C 47.25 20.839844 47.644531 20.328125 47.644531 19.652344 L 47.644531 18.242188 C 47.644531 17.703125 47.195312 17.183594 46.296875 16.835938 C 45.777344 16.648438 45.242188 16.554688 44.6875 16.558594 L 42.398438 16.558594 C 41.632812 16.558594 41.269531 16.324219 41.167969 15.808594 C 41.152344 15.753906 41.152344 15.695312 41.152344 15.632812 L 41.152344 14.765625 C 41.152344 14.71875 41.152344 14.664062 41.167969 14.605469 C 41.269531 14.207031 41.472656 14.105469 42.140625 14.027344 L 47.722656 14.027344 L 47.722656 12.75 L 42.410156 12.75 C 41.644531 12.75 41.234375 12.792969 40.875 12.910156 C 39.757812 13.257812 39.265625 13.820312 39.265625 14.804688 L 39.265625 15.921875 C 39.265625 16.789062 40.226562 17.523438 41.851562 17.691406 C 42.027344 17.707031 42.214844 17.707031 42.402344 17.707031 L 44.363281 17.707031 C 44.4375 17.707031 44.507812 17.707031 44.5625 17.722656 C 45.15625 17.78125 45.417969 17.886719 45.589844 18.109375 C 45.703125 18.222656 45.734375 18.328125 45.734375 18.464844 L 45.734375 19.578125 C 45.734375 19.710938 45.648438 19.886719 45.46875 20.035156 C 45.289062 20.179688 45.019531 20.285156 44.65625 20.304688 C 44.578125 20.304688 44.539062 20.320312 44.464844 20.320312 L 39.234375 20.320312 Z M 59.4375 19.371094 C 59.4375 20.679688 60.414062 21.414062 62.355469 21.558594 L 62.90625 21.589844 L 67.832031 21.589844 L 67.832031 20.320312 L 62.863281 20.320312 C 61.722656 20.320312 61.34375 20.042969 61.34375 19.363281 L 61.34375 12.753906 L 59.441406 12.753906 L 59.441406 19.375 Z M 48.84375 19.429688 L 48.84375 14.882812 C 48.84375 13.726562 49.652344 13.019531 51.238281 12.800781 L 51.746094 12.773438 L 55.339844 12.773438 C 55.53125 12.773438 55.691406 12.785156 55.875 12.800781 C 57.453125 13.023438 58.25 13.726562 58.25 14.882812 L 58.25 19.433594 C 58.25 20.371094 57.914062 20.875 57.132812 21.203125 L 58.988281 22.90625 L 56.796875 22.90625 L 55.289062 21.527344 L 53.765625 21.617188 L 51.738281 21.617188 C 51.402344 21.617188 51.027344 21.578125 50.597656 21.46875 C 49.394531 21.132812 48.796875 20.484375 48.796875 19.429688 Z M 50.890625 19.328125 C 50.890625 19.386719 50.917969 19.445312 50.933594 19.523438 C 51.039062 20.050781 51.527344 20.34375 52.28125 20.34375 L 53.992188 20.34375 L 52.425781 18.902344 L 54.613281 18.902344 L 55.992188 20.164062 C 56.257812 20.019531 56.410156 19.8125 56.46875 19.550781 C 56.484375 19.492188 56.484375 19.417969 56.484375 19.355469 L 56.484375 15.003906 C 56.484375 14.949219 56.484375 14.890625 56.46875 14.828125 C 56.367188 14.328125 55.878906 14.050781 55.140625 14.050781 L 52.289062 14.050781 C 51.453125 14.050781 50.898438 14.414062 50.898438 15.003906 Z M 50.890625 19.328125 " fill-opacity="1" fill-rule="evenodd"/><path fill="#00678c" d="M 14.070312 21.597656 L 15.957031 21.597656 L 15.957031 14.035156 L 18.898438 20.628906 C 19.234375 21.421875 19.710938 21.714844 20.640625 21.714844 C 21.566406 21.714844 22.015625 21.421875 22.363281 20.628906 L 25.292969 14.035156 L 25.292969 21.597656 L 27.191406 21.597656 L 27.191406 14.035156 C 27.191406 13.304688 26.90625 12.949219 26.296875 12.757812 C 24.863281 12.316406 23.902344 12.699219 23.46875 13.679688 L 20.578125 20.199219 L 17.796875 13.679688 C 17.378906 12.699219 16.402344 12.316406 14.957031 12.757812 C 14.363281 12.949219 14.070312 13.296875 14.070312 14.035156 Z M 28.753906 15.445312 L 30.65625 15.445312 L 30.65625 19.601562 C 30.640625 19.832031 30.734375 20.367188 31.796875 20.378906 L 35.871094 20.378906 L 35.871094 15.414062 L 37.773438 15.414062 L 37.773438 22.210938 C 37.773438 23.886719 35.726562 24.25 34.769531 24.265625 L 28.800781 24.265625 L 28.800781 22.988281 L 34.789062 22.988281 C 36.003906 22.855469 35.859375 22.242188 35.859375 22.03125 L 35.859375 21.53125 L 31.84375 21.53125 C 29.972656 21.515625 28.769531 20.683594 28.753906 19.722656 Z M 28.753906 15.445312 " fill-opacity="1" fill-rule="evenodd"/></svg>