<svg xmlns="http://www.w3.org/2000/svg" xmlns:xlink="http://www.w3.org/1999/xlink" width="96" zoomAndPan="magnify" viewBox="0 0 72 36.000001" height="48" preserveAspectRatio="xMidYMid meet" version="1.0"><path fill="#83cd29" d="M 62.015625 15.054688 C 61.863281 15.054688 61.71875 15.085938 61.589844 15.15625 L 57.503906 17.53125 C 57.238281 17.683594 57.078125 17.976562 57.078125 18.28125 L 57.078125 23.023438 C 57.078125 23.332031 57.238281 23.621094 57.503906 23.773438 L 58.570312 24.394531 C 59.089844 24.652344 59.28125 24.644531 59.515625 24.644531 C 60.285156 24.644531 60.722656 24.175781 60.722656 23.363281 L 60.722656 18.6875 C 60.722656 18.621094 60.664062 18.574219 60.601562 18.574219 L 60.089844 18.574219 C 60.023438 18.574219 59.96875 18.621094 59.96875 18.6875 L 59.96875 23.367188 C 59.96875 23.726562 59.59375 24.089844 58.988281 23.785156 L 57.878906 23.128906 C 57.839844 23.109375 57.808594 23.070312 57.808594 23.023438 L 57.808594 18.285156 C 57.808594 18.238281 57.839844 18.195312 57.878906 18.171875 L 61.953125 15.804688 C 61.992188 15.78125 62.039062 15.78125 62.074219 15.804688 L 66.152344 18.171875 C 66.191406 18.195312 66.222656 18.238281 66.222656 18.285156 L 66.222656 23.023438 C 66.222656 23.070312 66.199219 23.117188 66.160156 23.136719 L 62.074219 25.503906 C 62.039062 25.527344 61.992188 25.527344 61.953125 25.503906 L 60.90625 24.875 C 60.875 24.859375 60.832031 24.859375 60.800781 24.875 C 60.511719 25.042969 60.457031 25.058594 60.183594 25.15625 C 60.117188 25.179688 60.015625 25.214844 60.21875 25.332031 L 61.589844 26.144531 C 61.722656 26.21875 61.867188 26.257812 62.015625 26.257812 C 62.167969 26.257812 62.308594 26.21875 62.441406 26.144531 L 66.527344 23.777344 C 66.789062 23.621094 66.949219 23.335938 66.949219 23.027344 L 66.949219 18.285156 C 66.949219 17.976562 66.789062 17.6875 66.527344 17.535156 L 62.441406 15.160156 C 62.3125 15.085938 62.164062 15.054688 62.015625 15.054688 Z M 63.105469 18.441406 C 61.945312 18.441406 61.25 18.9375 61.25 19.765625 C 61.25 20.664062 61.9375 20.914062 63.054688 21.023438 C 64.390625 21.15625 64.496094 21.355469 64.496094 21.617188 C 64.496094 22.078125 64.132812 22.273438 63.273438 22.273438 C 62.191406 22.273438 61.953125 22 61.875 21.460938 C 61.867188 21.402344 61.820312 21.355469 61.761719 21.355469 L 61.230469 21.355469 C 61.152344 21.355469 61.113281 21.398438 61.109375 21.476562 C 61.109375 22.167969 61.484375 22.988281 63.269531 22.988281 C 64.5625 22.988281 65.308594 22.476562 65.308594 21.582031 C 65.308594 20.695312 64.707031 20.457031 63.453125 20.289062 C 62.1875 20.121094 62.066406 20.039062 62.066406 19.738281 C 62.066406 19.492188 62.167969 19.164062 63.105469 19.164062 C 63.945312 19.164062 64.253906 19.34375 64.382812 19.914062 C 64.390625 19.96875 64.4375 20.011719 64.492188 20.011719 L 65.023438 20.011719 C 65.054688 20.011719 65.089844 19.992188 65.109375 19.96875 C 65.132812 19.941406 65.148438 19.914062 65.144531 19.878906 C 65.0625 18.902344 64.414062 18.441406 63.105469 18.441406 Z M 63.105469 18.441406 " fill-opacity="1" fill-rule="nonzero"/><path fill="#404137" d="M 37.996094 8.839844 C 37.949219 8.839844 37.90625 8.851562 37.867188 8.875 C 37.78125 8.925781 37.738281 9 37.738281 9.101562 L 37.738281 15.777344 C 37.738281 15.84375 37.707031 15.902344 37.652344 15.9375 C 37.589844 15.972656 37.527344 15.972656 37.46875 15.9375 L 36.382812 15.308594 C 36.210938 15.207031 36.039062 15.207031 35.863281 15.308594 L 31.535156 17.820312 C 31.375 17.914062 31.273438 18.097656 31.273438 18.285156 L 31.273438 23.3125 C 31.273438 23.515625 31.363281 23.667969 31.535156 23.765625 L 35.863281 26.28125 C 36.035156 26.382812 36.210938 26.382812 36.382812 26.28125 L 40.710938 23.765625 C 40.886719 23.667969 40.972656 23.515625 40.972656 23.3125 L 40.972656 10.777344 C 40.972656 10.585938 40.867188 10.40625 40.703125 10.3125 L 38.128906 8.863281 C 38.085938 8.84375 38.042969 8.835938 37.996094 8.839844 Z M 10.15625 15.117188 C 10.074219 15.117188 9.996094 15.132812 9.921875 15.175781 L 5.59375 17.691406 C 5.417969 17.792969 5.332031 17.941406 5.332031 18.144531 L 5.34375 24.894531 C 5.34375 24.988281 5.390625 25.074219 5.472656 25.121094 C 5.554688 25.167969 5.652344 25.167969 5.734375 25.121094 L 8.300781 23.636719 C 8.460938 23.539062 8.570312 23.371094 8.570312 23.183594 L 8.570312 20.03125 C 8.570312 19.84375 8.667969 19.671875 8.828125 19.578125 L 9.921875 18.941406 C 10.003906 18.890625 10.089844 18.871094 10.183594 18.871094 C 10.273438 18.867188 10.363281 18.890625 10.441406 18.941406 L 11.535156 19.578125 C 11.695312 19.667969 11.792969 19.84375 11.792969 20.03125 L 11.792969 23.183594 C 11.792969 23.371094 11.902344 23.539062 12.0625 23.636719 L 14.632812 25.121094 C 14.710938 25.167969 14.8125 25.167969 14.890625 25.121094 C 14.96875 25.074219 15.019531 24.988281 15.019531 24.894531 L 15.03125 18.144531 C 15.03125 17.941406 14.945312 17.789062 14.769531 17.691406 L 10.441406 15.175781 C 10.367188 15.132812 10.289062 15.117188 10.207031 15.117188 Z M 49.046875 15.175781 C 48.953125 15.175781 48.867188 15.199219 48.785156 15.246094 L 44.457031 17.761719 C 44.296875 17.855469 44.199219 18.027344 44.199219 18.214844 L 44.199219 23.242188 C 44.199219 23.433594 44.304688 23.605469 44.46875 23.695312 L 48.761719 26.160156 C 48.917969 26.25 49.113281 26.257812 49.273438 26.167969 L 51.875 24.710938 C 51.957031 24.664062 52.011719 24.578125 52.011719 24.484375 C 52.011719 24.390625 51.964844 24.304688 51.882812 24.257812 L 47.527344 21.742188 C 47.445312 21.695312 47.390625 21.601562 47.390625 21.507812 L 47.390625 19.933594 C 47.390625 19.839844 47.449219 19.753906 47.527344 19.707031 L 48.882812 18.921875 C 48.960938 18.875 49.0625 18.875 49.140625 18.921875 L 50.496094 19.707031 C 50.582031 19.757812 50.625 19.832031 50.625 19.933594 L 50.625 21.175781 C 50.625 21.273438 50.667969 21.351562 50.753906 21.402344 C 50.835938 21.449219 50.933594 21.449219 51.015625 21.402344 L 53.609375 19.882812 C 53.769531 19.789062 53.871094 19.617188 53.871094 19.429688 L 53.871094 18.214844 C 53.871094 18.011719 53.78125 17.863281 53.609375 17.761719 L 49.308594 15.246094 C 49.226562 15.199219 49.140625 15.175781 49.046875 15.175781 Z M 36.105469 18.929688 C 36.132812 18.929688 36.152344 18.9375 36.175781 18.949219 L 37.660156 19.8125 C 37.699219 19.835938 37.726562 19.878906 37.726562 19.925781 L 37.726562 21.65625 C 37.726562 21.703125 37.699219 21.746094 37.660156 21.769531 L 36.175781 22.632812 C 36.136719 22.65625 36.085938 22.65625 36.046875 22.632812 L 34.5625 21.769531 C 34.523438 21.746094 34.492188 21.699219 34.492188 21.65625 L 34.492188 19.925781 C 34.492188 19.878906 34.523438 19.835938 34.5625 19.8125 L 36.046875 18.949219 C 36.066406 18.9375 36.082031 18.929688 36.105469 18.929688 Z M 36.105469 18.929688 " fill-opacity="1" fill-rule="nonzero"/><path fill="#83cd29" d="M 23.15625 15.148438 C 23.0625 15.148438 22.976562 15.171875 22.898438 15.21875 L 18.570312 17.726562 C 18.40625 17.820312 18.308594 18 18.308594 18.1875 L 18.308594 23.21875 C 18.308594 23.417969 18.394531 23.570312 18.570312 23.671875 L 22.898438 26.183594 C 23.070312 26.285156 23.242188 26.285156 23.417969 26.183594 L 27.746094 23.671875 C 27.917969 23.570312 28.003906 23.417969 28.003906 23.21875 L 28.003906 18.1875 C 28.003906 18 27.90625 17.820312 27.746094 17.726562 L 23.417969 15.21875 C 23.335938 15.171875 23.25 15.148438 23.15625 15.148438 Z M 49.039062 19.636719 C 49.023438 19.636719 49.003906 19.636719 48.988281 19.644531 L 48.152344 20.136719 C 48.121094 20.152344 48.101562 20.183594 48.101562 20.222656 L 48.101562 21.183594 C 48.101562 21.21875 48.121094 21.253906 48.152344 21.269531 L 48.988281 21.75 C 49.019531 21.769531 49.050781 21.769531 49.082031 21.75 L 49.914062 21.269531 C 49.945312 21.253906 49.964844 21.21875 49.964844 21.183594 L 49.964844 20.222656 C 49.964844 20.1875 49.945312 20.152344 49.914062 20.136719 L 49.082031 19.644531 C 49.066406 19.636719 49.054688 19.636719 49.039062 19.636719 Z M 49.039062 19.636719 " fill-opacity="1" fill-rule="nonzero"/></svg>