<svg xmlns="http://www.w3.org/2000/svg" xmlns:xlink="http://www.w3.org/1999/xlink" width="96" zoomAndPan="magnify" viewBox="0 0 72 36.000001" height="48" preserveAspectRatio="xMidYMid meet" version="1.0"><path fill="#cb3837" d="M 9.253906 7.082031 L 9.253906 24.949219 L 24.125 24.949219 L 24.125 27.945312 L 36 27.945312 L 36 24.949219 L 62.746094 24.949219 L 62.746094 7.082031 Z M 9.253906 7.082031 " fill-opacity="1" fill-rule="nonzero"/><path fill="#ffffff" d="M 18.136719 10.078125 L 12.25 10.078125 L 12.25 21.953125 L 18.136719 21.953125 L 18.136719 13.074219 L 21.128906 13.074219 L 21.128906 21.953125 L 24.125 21.953125 L 24.125 10.078125 Z M 27.125 10.078125 L 27.125 24.949219 L 33.113281 24.949219 L 33.113281 21.953125 L 38.996094 21.953125 L 38.996094 10.078125 Z M 36 18.957031 L 33.109375 18.957031 L 33.109375 13.074219 L 36 13.074219 Z M 47.875 10.078125 L 41.988281 10.078125 L 41.988281 21.953125 L 47.875 21.953125 L 47.875 13.074219 L 50.871094 13.074219 L 50.871094 21.953125 L 53.867188 21.953125 L 53.867188 13.074219 L 56.859375 13.074219 L 56.859375 21.953125 L 59.855469 21.953125 L 59.855469 10.078125 Z M 47.875 10.078125 " fill-opacity="1" fill-rule="nonzero"/></svg>