<svg xmlns="http://www.w3.org/2000/svg" xmlns:xlink="http://www.w3.org/1999/xlink" width="96" zoomAndPan="magnify" viewBox="0 0 72 36.000001" height="48" preserveAspectRatio="xMidYMid meet" version="1.0"><path fill="#e30613" d="M 31.492188 18.738281 L 35.800781 18.738281 L 33.515625 15.089844 L 29.335938 21.730469 L 27.445312 21.730469 L 32.496094 13.773438 C 32.71875 13.464844 33.070312 13.246094 33.507812 13.246094 C 33.90625 13.246094 34.257812 13.421875 34.476562 13.730469 L 39.578125 21.691406 L 37.691406 21.691406 L 36.8125 20.195312 L 32.457031 20.195312 Z M 51.242188 20.191406 L 51.242188 13.285156 L 49.613281 13.285156 L 49.613281 20.851562 C 49.613281 21.070312 49.703125 21.246094 49.832031 21.421875 C 50.007812 21.597656 50.1875 21.6875 50.40625 21.6875 L 57.75 21.6875 L 58.71875 20.191406 Z M 24.585938 18.964844 C 26.167969 18.964844 27.398438 17.691406 27.398438 16.148438 C 27.398438 14.566406 26.125 13.335938 24.585938 13.335938 L 17.546875 13.335938 L 17.546875 21.738281 L 19.175781 21.738281 L 19.175781 14.785156 L 24.496094 14.785156 C 24.675781 14.789062 24.851562 14.824219 25.015625 14.890625 C 25.183594 14.960938 25.332031 15.058594 25.457031 15.1875 C 25.585938 15.316406 25.683594 15.460938 25.753906 15.628906 C 25.824219 15.796875 25.859375 15.96875 25.859375 16.148438 C 25.859375 16.332031 25.824219 16.503906 25.753906 16.671875 C 25.683594 16.835938 25.585938 16.984375 25.457031 17.113281 C 25.332031 17.238281 25.183594 17.335938 25.015625 17.40625 C 24.851562 17.476562 24.675781 17.511719 24.496094 17.511719 L 19.96875 17.511719 L 24.761719 21.691406 L 27.09375 21.691406 L 23.839844 18.964844 Z M 7.5625 21.691406 C 5.230469 21.691406 3.382812 19.800781 3.382812 17.515625 C 3.382812 15.183594 5.273438 13.335938 7.5625 13.335938 L 12.445312 13.335938 C 14.777344 13.335938 16.625 15.226562 16.625 17.515625 C 16.625 19.847656 14.730469 21.691406 12.445312 21.691406 Z M 12.355469 20.195312 C 12.71875 20.195312 13.066406 20.125 13.398438 19.984375 C 13.730469 19.847656 14.023438 19.648438 14.28125 19.394531 C 14.535156 19.136719 14.734375 18.84375 14.871094 18.511719 C 15.011719 18.179688 15.082031 17.832031 15.085938 17.46875 C 15.082031 17.109375 15.011719 16.761719 14.871094 16.429688 C 14.734375 16.09375 14.535156 15.800781 14.28125 15.546875 C 14.023438 15.289062 13.730469 15.09375 13.398438 14.953125 C 13.066406 14.816406 12.71875 14.746094 12.355469 14.742188 L 7.695312 14.742188 C 7.332031 14.746094 6.984375 14.816406 6.652344 14.953125 C 6.320312 15.09375 6.027344 15.289062 5.769531 15.546875 C 5.515625 15.800781 5.316406 16.09375 5.179688 16.429688 C 5.039062 16.761719 4.96875 17.109375 4.964844 17.46875 C 4.96875 17.832031 5.039062 18.179688 5.179688 18.511719 C 5.316406 18.84375 5.515625 19.136719 5.769531 19.394531 C 6.027344 19.648438 6.320312 19.847656 6.652344 19.984375 C 6.984375 20.125 7.332031 20.195312 7.695312 20.195312 Z M 42.972656 21.691406 C 40.640625 21.691406 38.792969 19.800781 38.792969 17.515625 C 38.792969 15.183594 40.683594 13.335938 42.972656 13.335938 L 48.777344 13.335938 L 47.808594 14.832031 L 43.058594 14.832031 C 42.699219 14.832031 42.351562 14.902344 42.019531 15.042969 C 41.683594 15.183594 41.390625 15.378906 41.136719 15.632812 C 40.878906 15.890625 40.683594 16.183594 40.542969 16.515625 C 40.40625 16.851562 40.335938 17.199219 40.332031 17.558594 C 40.335938 17.917969 40.40625 18.265625 40.542969 18.601562 C 40.683594 18.933594 40.878906 19.226562 41.136719 19.480469 C 41.390625 19.738281 41.683594 19.933594 42.019531 20.074219 C 42.351562 20.214844 42.699219 20.285156 43.058594 20.285156 L 48.867188 20.285156 L 47.898438 21.78125 L 42.972656 21.78125 Z M 62.722656 20.195312 C 61.496094 20.195312 60.433594 19.359375 60.128906 18.21875 L 67.035156 18.21875 L 68 16.722656 L 60.171875 16.722656 C 60.480469 15.578125 61.535156 14.742188 62.765625 14.742188 L 67.519531 14.742188 L 68.484375 13.246094 L 62.679688 13.246094 C 60.347656 13.246094 58.5 15.140625 58.5 17.425781 C 58.5 19.757812 60.390625 21.605469 62.679688 21.605469 L 67.648438 21.605469 L 68.617188 20.109375 L 62.722656 20.109375 Z M 62.722656 20.195312 " fill-opacity="1" fill-rule="nonzero"/></svg>