<svg xmlns="http://www.w3.org/2000/svg" xmlns:xlink="http://www.w3.org/1999/xlink" width="96" zoomAndPan="magnify" viewBox="0 0 72 36.000001" height="48" preserveAspectRatio="xMidYMid meet" version="1.0"><defs><clipPath id="10d409712a"><path d="M 7.9375 2.863281 L 64.421875 2.863281 L 64.421875 32.164062 L 7.9375 32.164062 Z M 7.9375 2.863281 " clip-rule="nonzero"/></clipPath><clipPath id="3690dd1481"><path d="M 7.992188 17.511719 C 7.992188 25.574219 20.613281 32.109375 36.179688 32.109375 C 51.75 32.109375 64.371094 25.574219 64.371094 17.511719 C 64.371094 9.453125 51.75 2.917969 36.179688 2.917969 C 20.613281 2.917969 7.992188 9.453125 7.992188 17.511719 " clip-rule="nonzero"/></clipPath><clipPath id="b9157b645c"><path d="M 7.992188 17.511719 C 7.992188 25.574219 20.613281 32.109375 36.179688 32.109375 C 51.75 32.109375 64.371094 25.574219 64.371094 17.511719 C 64.371094 9.453125 51.75 2.917969 36.179688 2.917969 C 20.613281 2.917969 7.992188 9.453125 7.992188 17.511719 " clip-rule="nonzero"/></clipPath><radialGradient gradientTransform="matrix(1.00798, 0, 0, 0.99202, 24.916218, 8.050305)" gradientUnits="userSpaceOnUse" r="36.724093" cx="0" id="bc21257ab0" cy="0" fx="0" fy="0"><stop stop-opacity="1" stop-color="rgb(68.199158%, 69.799805%, 83.499146%)" offset="0"/><stop stop-opacity="1" stop-color="rgb(68.199158%, 69.799805%, 83.499146%)" offset="0.25"/><stop stop-opacity="1" stop-color="rgb(68.164062%, 69.764709%, 83.473206%)" offset="0.296875"/><stop stop-opacity="1" stop-color="rgb(67.956543%, 69.555664%, 83.317566%)" offset="0.300781"/><stop stop-opacity="1" stop-color="rgb(67.608643%, 69.20929%, 83.059692%)" offset="0.304688"/><stop stop-opacity="1" stop-color="rgb(67.260742%, 68.861389%, 82.800293%)" offset="0.308594"/><stop stop-opacity="1" stop-color="rgb(66.914368%, 68.513489%, 82.542419%)" offset="0.3125"/><stop stop-opacity="1" stop-color="rgb(66.566467%, 68.167114%, 82.28302%)" offset="0.316406"/><stop stop-opacity="1" stop-color="rgb(66.220093%, 67.819214%, 82.025146%)" offset="0.320312"/><stop stop-opacity="1" stop-color="rgb(65.872192%, 67.472839%, 81.765747%)" offset="0.324219"/><stop stop-opacity="1" stop-color="rgb(65.525818%, 67.124939%, 81.506348%)" offset="0.328125"/><stop stop-opacity="1" stop-color="rgb(65.177917%, 66.778564%, 81.248474%)" offset="0.332031"/><stop stop-opacity="1" stop-color="rgb(64.831543%, 66.430664%, 80.989075%)" offset="0.335938"/><stop stop-opacity="1" stop-color="rgb(64.483643%, 66.08429%, 80.731201%)" offset="0.339844"/><stop stop-opacity="1" stop-color="rgb(64.135742%, 65.736389%, 80.471802%)" offset="0.34375"/><stop stop-opacity="1" stop-color="rgb(63.789368%, 65.388489%, 80.213928%)" offset="0.347656"/><stop stop-opacity="1" stop-color="rgb(63.441467%, 65.042114%, 79.954529%)" offset="0.351562"/><stop stop-opacity="1" stop-color="rgb(63.095093%, 64.694214%, 79.696655%)" offset="0.355469"/><stop stop-opacity="1" stop-color="rgb(62.747192%, 64.347839%, 79.437256%)" offset="0.359375"/><stop stop-opacity="1" stop-color="rgb(62.400818%, 63.999939%, 79.179382%)" offset="0.363281"/><stop stop-opacity="1" stop-color="rgb(62.052917%, 63.653564%, 78.919983%)" offset="0.367188"/><stop stop-opacity="1" stop-color="rgb(61.706543%, 63.305664%, 78.662109%)" offset="0.371094"/><stop stop-opacity="1" stop-color="rgb(61.358643%, 62.95929%, 78.40271%)" offset="0.375"/><stop stop-opacity="1" stop-color="rgb(61.010742%, 62.611389%, 78.144836%)" offset="0.378906"/><stop stop-opacity="1" stop-color="rgb(60.664368%, 62.263489%, 77.885437%)" offset="0.382812"/><stop stop-opacity="1" stop-color="rgb(60.316467%, 61.917114%, 77.627563%)" offset="0.386719"/><stop stop-opacity="1" stop-color="rgb(59.970093%, 61.569214%, 77.368164%)" offset="0.390625"/><stop stop-opacity="1" stop-color="rgb(59.622192%, 61.222839%, 77.108765%)" offset="0.394531"/><stop stop-opacity="1" stop-color="rgb(59.275818%, 60.874939%, 76.850891%)" offset="0.398438"/><stop stop-opacity="1" stop-color="rgb(58.927917%, 60.528564%, 76.591492%)" offset="0.402344"/><stop stop-opacity="1" stop-color="rgb(58.581543%, 60.180664%, 76.333618%)" offset="0.40625"/><stop stop-opacity="1" stop-color="rgb(58.233643%, 59.83429%, 76.074219%)" offset="0.410156"/><stop stop-opacity="1" stop-color="rgb(57.885742%, 59.486389%, 75.816345%)" offset="0.414062"/><stop stop-opacity="1" stop-color="rgb(57.539368%, 59.138489%, 75.556946%)" offset="0.417969"/><stop stop-opacity="1" stop-color="rgb(57.191467%, 58.792114%, 75.299072%)" offset="0.421875"/><stop stop-opacity="1" stop-color="rgb(56.845093%, 58.444214%, 75.039673%)" offset="0.425781"/><stop stop-opacity="1" stop-color="rgb(56.497192%, 58.097839%, 74.781799%)" offset="0.429688"/><stop stop-opacity="1" stop-color="rgb(56.150818%, 57.749939%, 74.5224%)" offset="0.433594"/><stop stop-opacity="1" stop-color="rgb(55.802917%, 57.403564%, 74.264526%)" offset="0.4375"/><stop stop-opacity="1" stop-color="rgb(55.456543%, 57.055664%, 74.005127%)" offset="0.441406"/><stop stop-opacity="1" stop-color="rgb(55.108643%, 56.70929%, 73.747253%)" offset="0.445312"/><stop stop-opacity="1" stop-color="rgb(54.760742%, 56.361389%, 73.487854%)" offset="0.449219"/><stop stop-opacity="1" stop-color="rgb(54.414368%, 56.013489%, 73.22998%)" offset="0.453125"/><stop stop-opacity="1" stop-color="rgb(54.066467%, 55.667114%, 72.970581%)" offset="0.457031"/><stop stop-opacity="1" stop-color="rgb(53.720093%, 55.319214%, 72.711182%)" offset="0.460938"/><stop stop-opacity="1" stop-color="rgb(53.372192%, 54.972839%, 72.453308%)" offset="0.464844"/><stop stop-opacity="1" stop-color="rgb(53.025818%, 54.624939%, 72.193909%)" offset="0.46875"/><stop stop-opacity="1" stop-color="rgb(52.677917%, 54.278564%, 71.936035%)" offset="0.472656"/><stop stop-opacity="1" stop-color="rgb(52.331543%, 53.930664%, 71.676636%)" offset="0.476562"/><stop stop-opacity="1" stop-color="rgb(51.983643%, 53.58429%, 71.418762%)" offset="0.480469"/><stop stop-opacity="1" stop-color="rgb(51.635742%, 53.236389%, 71.159363%)" offset="0.484375"/><stop stop-opacity="1" stop-color="rgb(51.289368%, 52.888489%, 70.901489%)" offset="0.488281"/><stop stop-opacity="1" stop-color="rgb(50.941467%, 52.542114%, 70.64209%)" offset="0.492188"/><stop stop-opacity="1" stop-color="rgb(50.595093%, 52.194214%, 70.384216%)" offset="0.496094"/><stop stop-opacity="1" stop-color="rgb(50.247192%, 51.847839%, 70.124817%)" offset="0.5"/><stop stop-opacity="1" stop-color="rgb(49.900818%, 51.499939%, 69.866943%)" offset="0.503906"/><stop stop-opacity="1" stop-color="rgb(49.552917%, 51.153564%, 69.607544%)" offset="0.507812"/><stop stop-opacity="1" stop-color="rgb(49.206543%, 50.805664%, 69.34967%)" offset="0.511719"/><stop stop-opacity="1" stop-color="rgb(48.858643%, 50.45929%, 69.090271%)" offset="0.515625"/><stop stop-opacity="1" stop-color="rgb(48.510742%, 50.111389%, 68.832397%)" offset="0.519531"/><stop stop-opacity="1" stop-color="rgb(48.164368%, 49.763489%, 68.572998%)" offset="0.523438"/><stop stop-opacity="1" stop-color="rgb(47.816467%, 49.417114%, 68.313599%)" offset="0.527344"/><stop stop-opacity="1" stop-color="rgb(47.470093%, 49.069214%, 68.055725%)" offset="0.53125"/><stop stop-opacity="1" stop-color="rgb(47.122192%, 48.722839%, 67.796326%)" offset="0.535156"/><stop stop-opacity="1" stop-color="rgb(46.775818%, 48.374939%, 67.538452%)" offset="0.539062"/><stop stop-opacity="1" stop-color="rgb(46.427917%, 48.028564%, 67.279053%)" offset="0.542969"/><stop stop-opacity="1" stop-color="rgb(46.081543%, 47.680664%, 67.021179%)" offset="0.546875"/><stop stop-opacity="1" stop-color="rgb(45.733643%, 47.33429%, 66.76178%)" offset="0.550781"/><stop stop-opacity="1" stop-color="rgb(45.385742%, 46.986389%, 66.503906%)" offset="0.554688"/><stop stop-opacity="1" stop-color="rgb(45.039368%, 46.638489%, 66.244507%)" offset="0.558594"/><stop stop-opacity="1" stop-color="rgb(44.691467%, 46.292114%, 65.986633%)" offset="0.5625"/><stop stop-opacity="1" stop-color="rgb(44.345093%, 45.944214%, 65.727234%)" offset="0.566406"/><stop stop-opacity="1" stop-color="rgb(43.997192%, 45.597839%, 65.46936%)" offset="0.570312"/><stop stop-opacity="1" stop-color="rgb(43.650818%, 45.249939%, 65.209961%)" offset="0.574219"/><stop stop-opacity="1" stop-color="rgb(43.302917%, 44.903564%, 64.952087%)" offset="0.578125"/><stop stop-opacity="1" stop-color="rgb(42.956543%, 44.555664%, 64.692688%)" offset="0.582031"/><stop stop-opacity="1" stop-color="rgb(42.608643%, 44.20929%, 64.434814%)" offset="0.585938"/><stop stop-opacity="1" stop-color="rgb(42.260742%, 43.861389%, 64.175415%)" offset="0.589844"/><stop stop-opacity="1" stop-color="rgb(41.914368%, 43.513489%, 63.916016%)" offset="0.59375"/><stop stop-opacity="1" stop-color="rgb(41.566467%, 43.167114%, 63.658142%)" offset="0.597656"/><stop stop-opacity="1" stop-color="rgb(41.220093%, 42.819214%, 63.398743%)" offset="0.601562"/><stop stop-opacity="1" stop-color="rgb(40.872192%, 42.472839%, 63.140869%)" offset="0.605469"/><stop stop-opacity="1" stop-color="rgb(40.525818%, 42.124939%, 62.88147%)" offset="0.609375"/><stop stop-opacity="1" stop-color="rgb(40.177917%, 41.778564%, 62.623596%)" offset="0.613281"/><stop stop-opacity="1" stop-color="rgb(39.831543%, 41.430664%, 62.364197%)" offset="0.617188"/><stop stop-opacity="1" stop-color="rgb(39.483643%, 41.08429%, 62.106323%)" offset="0.621094"/><stop stop-opacity="1" stop-color="rgb(39.135742%, 40.736389%, 61.846924%)" offset="0.625"/><stop stop-opacity="1" stop-color="rgb(38.789368%, 40.388489%, 61.58905%)" offset="0.628906"/><stop stop-opacity="1" stop-color="rgb(38.441467%, 40.042114%, 61.329651%)" offset="0.632812"/><stop stop-opacity="1" stop-color="rgb(38.095093%, 39.694214%, 61.071777%)" offset="0.636719"/><stop stop-opacity="1" stop-color="rgb(37.747192%, 39.347839%, 60.812378%)" offset="0.640625"/><stop stop-opacity="1" stop-color="rgb(37.400818%, 38.999939%, 60.554504%)" offset="0.644531"/><stop stop-opacity="1" stop-color="rgb(37.052917%, 38.653564%, 60.295105%)" offset="0.648438"/><stop stop-opacity="1" stop-color="rgb(36.706543%, 38.305664%, 60.037231%)" offset="0.652344"/><stop stop-opacity="1" stop-color="rgb(36.358643%, 37.95929%, 59.777832%)" offset="0.65625"/><stop stop-opacity="1" stop-color="rgb(36.010742%, 37.611389%, 59.518433%)" offset="0.660156"/><stop stop-opacity="1" stop-color="rgb(35.664368%, 37.263489%, 59.260559%)" offset="0.664062"/><stop stop-opacity="1" stop-color="rgb(35.316467%, 36.917114%, 59.00116%)" offset="0.667969"/><stop stop-opacity="1" stop-color="rgb(34.970093%, 36.569214%, 58.743286%)" offset="0.671875"/><stop stop-opacity="1" stop-color="rgb(34.622192%, 36.222839%, 58.483887%)" offset="0.675781"/><stop stop-opacity="1" stop-color="rgb(34.275818%, 35.874939%, 58.226013%)" offset="0.679688"/><stop stop-opacity="1" stop-color="rgb(33.927917%, 35.528564%, 57.966614%)" offset="0.683594"/><stop stop-opacity="1" stop-color="rgb(33.581543%, 35.180664%, 57.70874%)" offset="0.6875"/><stop stop-opacity="1" stop-color="rgb(33.233643%, 34.83429%, 57.449341%)" offset="0.691406"/><stop stop-opacity="1" stop-color="rgb(32.885742%, 34.486389%, 57.191467%)" offset="0.695312"/><stop stop-opacity="1" stop-color="rgb(32.539368%, 34.138489%, 56.932068%)" offset="0.699219"/><stop stop-opacity="1" stop-color="rgb(32.191467%, 33.792114%, 56.674194%)" offset="0.703125"/><stop stop-opacity="1" stop-color="rgb(31.845093%, 33.444214%, 56.414795%)" offset="0.707031"/><stop stop-opacity="1" stop-color="rgb(31.497192%, 33.097839%, 56.156921%)" offset="0.710938"/><stop stop-opacity="1" stop-color="rgb(31.150818%, 32.749939%, 55.897522%)" offset="0.714844"/><stop stop-opacity="1" stop-color="rgb(30.802917%, 32.403564%, 55.639648%)" offset="0.71875"/><stop stop-opacity="1" stop-color="rgb(30.456543%, 32.055664%, 55.380249%)" offset="0.722656"/><stop stop-opacity="1" stop-color="rgb(30.108643%, 31.70929%, 55.122375%)" offset="0.726562"/><stop stop-opacity="1" stop-color="rgb(29.760742%, 31.361389%, 54.862976%)" offset="0.730469"/><stop stop-opacity="1" stop-color="rgb(29.414368%, 31.013489%, 54.603577%)" offset="0.734375"/><stop stop-opacity="1" stop-color="rgb(29.066467%, 30.667114%, 54.345703%)" offset="0.738281"/><stop stop-opacity="1" stop-color="rgb(28.720093%, 30.319214%, 54.086304%)" offset="0.742188"/><stop stop-opacity="1" stop-color="rgb(28.372192%, 29.972839%, 53.82843%)" offset="0.746094"/><stop stop-opacity="1" stop-color="rgb(28.199768%, 29.798889%, 53.69873%)" offset="1"/></radialGradient></defs><g clip-path="url(#10d409712a)"><g clip-path="url(#3690dd1481)"><g clip-path="url(#b9157b645c)"><path fill="url(#bc21257ab0)" d="M 7.992188 2.917969 L 7.992188 32.109375 L 64.371094 32.109375 L 64.371094 2.917969 Z M 7.992188 2.917969 " fill-rule="nonzero"/></g></g></g><path fill="#777bb3" d="M 36.179688 31.023438 C 51.140625 31.023438 63.269531 24.976562 63.269531 17.511719 C 63.269531 10.050781 51.140625 4.003906 36.179688 4.003906 C 21.21875 4.003906 9.09375 10.050781 9.09375 17.511719 C 9.09375 24.976562 21.21875 31.023438 36.179688 31.023438 " fill-opacity="1" fill-rule="nonzero"/><path fill="#000000" d="M 23.308594 19.1875 C 24.535156 19.1875 25.457031 18.964844 26.035156 18.523438 C 26.609375 18.089844 27.007812 17.335938 27.214844 16.28125 C 27.410156 15.296875 27.335938 14.609375 26.996094 14.242188 C 26.648438 13.863281 25.898438 13.667969 24.765625 13.667969 L 22.796875 13.667969 L 21.707031 19.1875 Z M 16.875 25.988281 C 16.785156 25.988281 16.699219 25.945312 16.640625 25.878906 C 16.578125 25.804688 16.558594 25.722656 16.578125 25.628906 L 19.464844 11.003906 C 19.496094 10.839844 19.597656 10.757812 19.765625 10.757812 L 25.988281 10.757812 C 27.945312 10.757812 29.402344 11.28125 30.316406 12.3125 C 31.238281 13.351562 31.523438 14.800781 31.164062 16.621094 C 31.015625 17.363281 30.765625 18.050781 30.414062 18.667969 C 30.0625 19.285156 29.601562 19.859375 29.035156 20.367188 C 28.363281 20.988281 27.597656 21.4375 26.769531 21.703125 C 25.953125 21.964844 24.90625 22.097656 23.65625 22.097656 L 21.132812 22.097656 L 20.414062 25.742188 C 20.382812 25.90625 20.28125 25.988281 20.113281 25.988281 Z M 16.875 25.988281 " fill-opacity="1" fill-rule="nonzero"/><path fill="#ffffff" d="M 23.050781 13.96875 L 24.765625 13.96875 C 26.132812 13.96875 26.609375 14.265625 26.769531 14.441406 C 27.039062 14.734375 27.089844 15.351562 26.917969 16.226562 C 26.722656 17.203125 26.363281 17.898438 25.851562 18.285156 C 25.324219 18.683594 24.46875 18.886719 23.308594 18.886719 L 22.078125 18.886719 Z M 25.992188 10.457031 L 19.765625 10.457031 C 19.617188 10.457031 19.488281 10.503906 19.375 10.597656 C 19.261719 10.6875 19.191406 10.804688 19.164062 10.945312 L 16.277344 25.570312 C 16.257812 25.660156 16.261719 25.746094 16.285156 25.835938 C 16.304688 25.921875 16.347656 26 16.40625 26.070312 C 16.464844 26.136719 16.535156 26.191406 16.617188 26.230469 C 16.699219 26.269531 16.785156 26.289062 16.875 26.289062 L 20.113281 26.289062 C 20.261719 26.289062 20.390625 26.242188 20.503906 26.152344 C 20.617188 26.058594 20.6875 25.941406 20.714844 25.800781 L 21.386719 22.398438 L 23.65625 22.398438 C 24.9375 22.398438 26.019531 22.261719 26.863281 21.992188 C 27.734375 21.710938 28.535156 21.238281 29.246094 20.585938 C 29.832031 20.054688 30.316406 19.460938 30.679688 18.816406 C 31.046875 18.171875 31.308594 17.453125 31.464844 16.679688 C 31.84375 14.761719 31.535156 13.226562 30.546875 12.117188 C 29.574219 11.015625 28.039062 10.457031 25.992188 10.457031 M 21.335938 19.488281 L 23.308594 19.488281 C 24.613281 19.488281 25.585938 19.246094 26.222656 18.765625 C 26.863281 18.28125 27.292969 17.472656 27.515625 16.339844 C 27.730469 15.253906 27.632812 14.484375 27.222656 14.039062 C 26.816406 13.59375 25.996094 13.367188 24.765625 13.367188 L 22.546875 13.367188 L 21.335938 19.488281 M 25.992188 11.0625 C 27.863281 11.0625 29.230469 11.542969 30.089844 12.511719 C 30.945312 13.480469 31.207031 14.828125 30.863281 16.5625 C 30.722656 17.277344 30.484375 17.929688 30.148438 18.523438 C 29.8125 19.113281 29.371094 19.65625 28.828125 20.144531 C 28.183594 20.742188 27.464844 21.164062 26.675781 21.417969 C 25.886719 21.671875 24.878906 21.796875 23.65625 21.796875 L 20.882812 21.796875 L 20.113281 25.6875 L 16.878906 25.6875 L 19.765625 11.0625 L 25.992188 11.0625 " fill-opacity="1" fill-rule="nonzero"/><path fill="#000000" d="M 38.585938 22.097656 C 38.492188 22.097656 38.40625 22.058594 38.347656 21.988281 C 38.292969 21.917969 38.265625 21.828125 38.285156 21.738281 L 39.5625 15.269531 C 39.683594 14.652344 39.652344 14.210938 39.476562 14.023438 C 39.371094 13.910156 39.046875 13.71875 38.089844 13.71875 L 35.777344 13.71875 L 34.167969 21.855469 C 34.136719 22.015625 34.039062 22.097656 33.871094 22.097656 L 30.65625 22.097656 C 30.5625 22.097656 30.484375 22.0625 30.421875 21.988281 C 30.359375 21.914062 30.339844 21.832031 30.359375 21.738281 L 33.246094 7.113281 C 33.277344 6.953125 33.378906 6.871094 33.546875 6.871094 L 36.757812 6.871094 C 36.855469 6.871094 36.933594 6.90625 36.992188 6.980469 C 37.054688 7.054688 37.078125 7.136719 37.058594 7.230469 L 36.359375 10.757812 L 38.851562 10.757812 C 40.75 10.757812 42.035156 11.089844 42.785156 11.765625 C 43.546875 12.457031 43.785156 13.5625 43.492188 15.050781 L 42.148438 21.855469 C 42.117188 22.015625 42.015625 22.097656 41.847656 22.097656 Z M 38.585938 22.097656 " fill-opacity="1" fill-rule="nonzero"/><path fill="#ffffff" d="M 36.757812 6.570312 L 33.546875 6.570312 C 33.398438 6.570312 33.269531 6.617188 33.15625 6.707031 C 33.042969 6.800781 32.972656 6.914062 32.945312 7.058594 L 30.058594 21.683594 C 30.039062 21.769531 30.042969 21.859375 30.066406 21.945312 C 30.085938 22.03125 30.128906 22.109375 30.1875 22.179688 C 30.242188 22.25 30.3125 22.304688 30.398438 22.34375 C 30.480469 22.378906 30.566406 22.398438 30.65625 22.398438 L 33.871094 22.398438 C 34.015625 22.398438 34.144531 22.355469 34.257812 22.261719 C 34.371094 22.171875 34.441406 22.054688 34.46875 21.914062 L 36.027344 14.019531 L 38.089844 14.019531 C 39.046875 14.019531 39.246094 14.222656 39.253906 14.230469 C 39.3125 14.292969 39.386719 14.574219 39.261719 15.210938 L 37.984375 21.683594 C 37.96875 21.769531 37.96875 21.859375 37.992188 21.945312 C 38.015625 22.03125 38.054688 22.109375 38.113281 22.179688 C 38.171875 22.25 38.242188 22.304688 38.324219 22.34375 C 38.40625 22.378906 38.492188 22.398438 38.585938 22.398438 L 41.847656 22.398438 C 41.996094 22.398438 42.125 22.355469 42.238281 22.261719 C 42.351562 22.171875 42.421875 22.054688 42.449219 21.914062 L 43.792969 15.105469 C 44.109375 13.507812 43.839844 12.308594 42.992188 11.542969 C 42.183594 10.8125 40.828125 10.457031 38.851562 10.457031 L 36.730469 10.457031 L 37.359375 7.285156 C 37.375 7.199219 37.375 7.109375 37.351562 7.023438 C 37.328125 6.9375 37.289062 6.859375 37.230469 6.789062 C 37.171875 6.71875 37.101562 6.664062 37.019531 6.628906 C 36.9375 6.589844 36.847656 6.570312 36.757812 6.570312 M 36.757812 7.171875 L 35.992188 11.0625 L 38.851562 11.0625 C 40.652344 11.0625 41.894531 11.371094 42.578125 11.988281 C 43.261719 12.605469 43.464844 13.605469 43.191406 14.992188 L 41.847656 21.796875 L 38.585938 21.796875 L 39.863281 15.328125 C 40.007812 14.589844 39.957031 14.089844 39.703125 13.820312 C 39.449219 13.550781 38.914062 13.417969 38.089844 13.417969 L 35.523438 13.417969 L 33.871094 21.796875 L 30.65625 21.796875 L 33.546875 7.171875 L 36.757812 7.171875 " fill-opacity="1" fill-rule="nonzero"/><path fill="#000000" d="M 48.574219 19.1875 C 49.804688 19.1875 50.722656 18.964844 51.304688 18.523438 C 51.878906 18.089844 52.273438 17.335938 52.484375 16.28125 C 52.675781 15.296875 52.601562 14.609375 52.261719 14.242188 C 51.917969 13.863281 51.164062 13.667969 50.03125 13.667969 L 48.066406 13.667969 L 46.976562 19.1875 Z M 42.144531 25.988281 C 42.054688 25.988281 41.964844 25.945312 41.90625 25.878906 C 41.847656 25.804688 41.824219 25.722656 41.84375 25.628906 L 44.730469 11.003906 C 44.765625 10.839844 44.863281 10.757812 45.03125 10.757812 L 51.257812 10.757812 C 53.214844 10.757812 54.671875 11.28125 55.585938 12.3125 C 56.503906 13.351562 56.789062 14.800781 56.429688 16.621094 C 56.285156 17.363281 56.03125 18.050781 55.679688 18.667969 C 55.332031 19.285156 54.867188 19.859375 54.304688 20.367188 C 53.628906 20.988281 52.867188 21.4375 52.035156 21.703125 C 51.222656 21.964844 50.171875 22.097656 48.921875 22.097656 L 46.402344 22.097656 L 45.679688 25.742188 C 45.648438 25.90625 45.550781 25.988281 45.382812 25.988281 Z M 42.144531 25.988281 " fill-opacity="1" fill-rule="nonzero"/><path fill="#ffffff" d="M 48.316406 13.96875 L 50.03125 13.96875 C 51.398438 13.96875 51.875 14.265625 52.035156 14.441406 C 52.304688 14.734375 52.355469 15.351562 52.183594 16.226562 C 51.988281 17.203125 51.632812 17.898438 51.117188 18.285156 C 50.589844 18.683594 49.734375 18.886719 48.574219 18.886719 L 47.347656 18.886719 Z M 51.257812 10.457031 L 45.03125 10.457031 C 44.886719 10.457031 44.757812 10.503906 44.644531 10.597656 C 44.53125 10.6875 44.460938 10.804688 44.433594 10.945312 L 41.542969 25.570312 C 41.527344 25.660156 41.527344 25.746094 41.550781 25.835938 C 41.574219 25.921875 41.613281 26 41.671875 26.070312 C 41.730469 26.136719 41.800781 26.191406 41.882812 26.230469 C 41.964844 26.269531 42.054688 26.289062 42.144531 26.289062 L 45.382812 26.289062 C 45.527344 26.289062 45.65625 26.242188 45.769531 26.152344 C 45.882812 26.058594 45.953125 25.941406 45.980469 25.800781 L 46.652344 22.398438 L 48.921875 22.398438 C 50.203125 22.398438 51.285156 22.261719 52.132812 21.992188 C 53.003906 21.710938 53.804688 21.238281 54.511719 20.585938 C 55.101562 20.054688 55.582031 19.460938 55.949219 18.816406 C 56.316406 18.171875 56.578125 17.453125 56.730469 16.679688 C 57.109375 14.761719 56.800781 13.226562 55.816406 12.117188 C 54.839844 11.015625 53.304688 10.457031 51.257812 10.457031 M 46.605469 19.488281 L 48.574219 19.488281 C 49.878906 19.488281 50.851562 19.246094 51.488281 18.765625 C 52.128906 18.28125 52.558594 17.472656 52.785156 16.339844 C 53 15.253906 52.902344 14.484375 52.492188 14.039062 C 52.082031 13.59375 51.261719 13.367188 50.03125 13.367188 L 47.8125 13.367188 L 46.605469 19.488281 M 51.257812 11.0625 C 53.128906 11.0625 54.496094 11.542969 55.355469 12.511719 C 56.214844 13.480469 56.472656 14.828125 56.128906 16.5625 C 55.988281 17.277344 55.75 17.929688 55.414062 18.523438 C 55.078125 19.113281 54.640625 19.65625 54.097656 20.144531 C 53.449219 20.742188 52.734375 21.164062 51.941406 21.417969 C 51.152344 21.671875 50.144531 21.796875 48.921875 21.796875 L 46.148438 21.796875 L 45.382812 25.6875 L 42.144531 25.6875 L 45.03125 11.0625 L 51.257812 11.0625 " fill-opacity="1" fill-rule="nonzero"/></svg>