<svg xmlns="http://www.w3.org/2000/svg" xmlns:xlink="http://www.w3.org/1999/xlink" width="96" zoomAndPan="magnify" viewBox="0 0 72 36.000001" height="48" preserveAspectRatio="xMidYMid meet" version="1.0"><defs><clipPath id="39c1b1d276"><path d="M 26.988281 8.5 L 45.230469 8.5 L 45.230469 26.746094 L 26.988281 26.746094 Z M 26.988281 8.5 " clip-rule="nonzero"/></clipPath></defs><g clip-path="url(#39c1b1d276)"><path fill="#ff6c37" d="M 45.15625 18.78125 C 45.792969 13.785156 42.265625 9.214844 37.277344 8.574219 C 32.289062 7.9375 27.699219 11.46875 27.0625 16.457031 C 26.425781 21.445312 29.953125 26.023438 34.941406 26.671875 C 39.941406 27.308594 44.507812 23.777344 45.15625 18.78125 Z M 45.15625 18.78125 " fill-opacity="1" fill-rule="nonzero"/></g><path fill="#ffffff" d="M 39.402344 14.359375 L 35.554688 18.207031 L 34.46875 17.121094 C 38.253906 13.335938 38.625 13.664062 39.402344 14.359375 Z M 39.402344 14.359375 " fill-opacity="1" fill-rule="nonzero"/><path fill="#ff6c37" d="M 35.554688 18.296875 C 35.527344 18.296875 35.507812 18.289062 35.488281 18.269531 L 34.394531 17.183594 C 34.359375 17.148438 34.359375 17.09375 34.394531 17.058594 C 38.242188 13.207031 38.644531 13.574219 39.457031 14.304688 C 39.476562 14.320312 39.484375 14.339844 39.484375 14.367188 C 39.484375 14.394531 39.476562 14.414062 39.457031 14.429688 L 35.609375 18.269531 C 35.597656 18.289062 35.570312 18.296875 35.554688 18.296875 Z M 34.59375 17.121094 L 35.554688 18.078125 L 39.265625 14.367188 C 38.589844 13.765625 38.132812 13.582031 34.59375 17.121094 Z M 34.59375 17.121094 " fill-opacity="1" fill-rule="nonzero"/><path fill="#ffffff" d="M 36.65625 19.308594 L 35.609375 18.261719 L 39.457031 14.414062 C 40.488281 15.453125 38.945312 17.140625 36.65625 19.308594 Z M 36.65625 19.308594 " fill-opacity="1" fill-rule="nonzero"/><path fill="#ff6c37" d="M 36.65625 19.402344 C 36.628906 19.402344 36.609375 19.390625 36.59375 19.375 L 35.542969 18.324219 C 35.527344 18.308594 35.527344 18.289062 35.527344 18.261719 C 35.527344 18.234375 35.535156 18.214844 35.554688 18.199219 L 39.402344 14.347656 C 39.4375 14.3125 39.492188 14.3125 39.53125 14.347656 C 39.765625 14.566406 39.894531 14.878906 39.886719 15.195312 C 39.867188 16.210938 38.71875 17.496094 36.730469 19.375 C 36.703125 19.390625 36.675781 19.402344 36.65625 19.402344 Z M 35.734375 18.261719 C 36.320312 18.855469 36.566406 19.089844 36.65625 19.183594 C 38.1875 17.722656 39.675781 16.226562 39.683594 15.195312 C 39.695312 14.960938 39.601562 14.722656 39.449219 14.539062 Z M 35.734375 18.261719 " fill-opacity="1" fill-rule="nonzero"/><path fill="#ffffff" d="M 34.484375 17.148438 L 35.261719 17.925781 C 35.28125 17.941406 35.28125 17.960938 35.261719 17.980469 C 35.253906 17.988281 35.253906 17.988281 35.242188 17.988281 L 33.636719 18.335938 C 33.554688 18.34375 33.484375 18.289062 33.464844 18.207031 C 33.457031 18.160156 33.472656 18.117188 33.5 18.089844 L 34.429688 17.15625 C 34.449219 17.140625 34.476562 17.128906 34.484375 17.148438 Z M 34.484375 17.148438 " fill-opacity="1" fill-rule="nonzero"/><path fill="#ff6c37" d="M 33.609375 18.425781 C 33.472656 18.425781 33.375 18.316406 33.375 18.179688 C 33.375 18.117188 33.402344 18.050781 33.445312 18.007812 L 34.375 17.074219 C 34.429688 17.03125 34.503906 17.03125 34.558594 17.074219 L 35.335938 17.851562 C 35.390625 17.898438 35.390625 17.980469 35.335938 18.035156 C 35.316406 18.050781 35.296875 18.0625 35.269531 18.070312 L 33.664062 18.417969 C 33.648438 18.417969 33.628906 18.425781 33.609375 18.425781 Z M 34.457031 17.25 L 33.566406 18.144531 C 33.546875 18.160156 33.539062 18.1875 33.554688 18.214844 C 33.566406 18.242188 33.59375 18.253906 33.621094 18.242188 L 35.125 17.914062 Z M 34.457031 17.25 " fill-opacity="1" fill-rule="nonzero"/><path fill="#ffffff" d="M 41.433594 12.222656 C 40.851562 11.660156 39.914062 11.675781 39.347656 12.269531 C 38.78125 12.863281 38.800781 13.792969 39.394531 14.359375 C 39.875 14.824219 40.605469 14.90625 41.179688 14.558594 L 40.140625 13.519531 Z M 41.433594 12.222656 " fill-opacity="1" fill-rule="nonzero"/><path fill="#ff6c37" d="M 40.414062 14.859375 C 39.546875 14.859375 38.84375 14.15625 38.84375 13.289062 C 38.84375 12.425781 39.546875 11.722656 40.414062 11.722656 C 40.816406 11.722656 41.207031 11.878906 41.5 12.160156 C 41.519531 12.179688 41.527344 12.195312 41.527344 12.222656 C 41.527344 12.25 41.519531 12.269531 41.5 12.289062 L 40.269531 13.519531 L 41.234375 14.484375 C 41.269531 14.523438 41.269531 14.578125 41.234375 14.613281 C 41.226562 14.621094 41.226562 14.621094 41.214844 14.632812 C 40.980469 14.777344 40.695312 14.859375 40.414062 14.859375 Z M 40.414062 11.914062 C 39.648438 11.914062 39.027344 12.535156 39.035156 13.300781 C 39.035156 14.066406 39.65625 14.6875 40.421875 14.675781 C 40.632812 14.675781 40.84375 14.632812 41.035156 14.53125 L 40.078125 13.582031 C 40.058594 13.566406 40.050781 13.546875 40.050781 13.519531 C 40.050781 13.492188 40.058594 13.472656 40.078125 13.457031 L 41.296875 12.234375 C 41.050781 12.023438 40.742188 11.914062 40.414062 11.914062 Z M 40.414062 11.914062 " fill-opacity="1" fill-rule="nonzero"/><path fill="#ffffff" d="M 41.460938 12.25 L 41.445312 12.234375 L 40.140625 13.519531 L 41.171875 14.550781 C 41.269531 14.484375 41.371094 14.414062 41.453125 14.332031 C 42.039062 13.757812 42.039062 12.824219 41.460938 12.25 Z M 41.460938 12.25 " fill-opacity="1" fill-rule="nonzero"/><path fill="#ff6c37" d="M 41.179688 14.648438 C 41.152344 14.648438 41.132812 14.640625 41.117188 14.621094 L 40.078125 13.582031 C 40.058594 13.566406 40.050781 13.546875 40.050781 13.519531 C 40.050781 13.492188 40.058594 13.472656 40.078125 13.457031 L 41.371094 12.160156 C 41.40625 12.125 41.460938 12.125 41.5 12.160156 L 41.527344 12.179688 C 42.136719 12.789062 42.136719 13.773438 41.535156 14.394531 C 41.445312 14.484375 41.34375 14.566406 41.234375 14.632812 C 41.207031 14.640625 41.1875 14.648438 41.179688 14.648438 Z M 40.269531 13.519531 L 41.1875 14.441406 C 41.261719 14.394531 41.335938 14.332031 41.390625 14.277344 C 41.910156 13.757812 41.9375 12.90625 41.433594 12.359375 Z M 40.269531 13.519531 " fill-opacity="1" fill-rule="nonzero"/><path fill="#ffffff" d="M 39.558594 14.523438 C 39.339844 14.304688 38.980469 14.304688 38.761719 14.523438 L 35.324219 17.960938 L 35.898438 18.535156 L 39.539062 15.34375 C 39.777344 15.140625 39.792969 14.785156 39.59375 14.550781 C 39.574219 14.539062 39.566406 14.53125 39.558594 14.523438 Z M 39.558594 14.523438 " fill-opacity="1" fill-rule="nonzero"/><path fill="#ff6c37" d="M 35.890625 18.625 C 35.863281 18.625 35.84375 18.617188 35.828125 18.597656 L 35.253906 18.023438 C 35.214844 17.988281 35.214844 17.933594 35.253906 17.898438 L 38.691406 14.457031 C 38.945312 14.203125 39.355469 14.203125 39.613281 14.457031 C 39.867188 14.714844 39.867188 15.125 39.613281 15.378906 C 39.601562 15.386719 39.59375 15.398438 39.585938 15.40625 L 35.945312 18.597656 C 35.9375 18.617188 35.917969 18.625 35.890625 18.625 Z M 35.453125 17.960938 L 35.898438 18.40625 L 39.476562 15.269531 C 39.675781 15.105469 39.695312 14.804688 39.53125 14.605469 C 39.367188 14.402344 39.0625 14.386719 38.863281 14.550781 C 38.855469 14.558594 38.84375 14.566406 38.828125 14.578125 Z M 35.453125 17.960938 " fill-opacity="1" fill-rule="nonzero"/><path fill="#ffffff" d="M 32.691406 21.871094 C 32.652344 21.890625 32.632812 21.925781 32.644531 21.964844 L 32.800781 22.621094 C 32.835938 22.710938 32.78125 22.820312 32.679688 22.847656 C 32.605469 22.875 32.523438 22.847656 32.480469 22.792969 L 31.476562 21.800781 L 34.75 18.527344 L 35.882812 18.542969 L 36.648438 19.308594 C 36.464844 19.464844 35.363281 20.53125 32.691406 21.871094 Z M 32.691406 21.871094 " fill-opacity="1" fill-rule="nonzero"/><path fill="#ff6c37" d="M 32.617188 22.941406 C 32.542969 22.941406 32.46875 22.914062 32.425781 22.859375 L 31.429688 21.863281 C 31.414062 21.84375 31.402344 21.828125 31.402344 21.800781 C 31.402344 21.773438 31.414062 21.753906 31.429688 21.734375 L 34.703125 18.460938 C 34.722656 18.445312 34.75 18.433594 34.769531 18.433594 L 35.898438 18.453125 C 35.925781 18.453125 35.945312 18.460938 35.964844 18.480469 L 36.730469 19.246094 C 36.746094 19.265625 36.757812 19.292969 36.757812 19.320312 C 36.757812 19.347656 36.746094 19.363281 36.71875 19.382812 L 36.65625 19.4375 C 35.691406 20.285156 34.375 21.132812 32.746094 21.945312 L 32.898438 22.59375 C 32.925781 22.710938 32.871094 22.839844 32.761719 22.902344 C 32.707031 22.929688 32.660156 22.941406 32.617188 22.941406 Z M 31.613281 21.800781 L 32.550781 22.730469 C 32.578125 22.777344 32.632812 22.792969 32.679688 22.765625 C 32.726562 22.738281 32.746094 22.683594 32.71875 22.640625 L 32.5625 21.980469 C 32.542969 21.898438 32.578125 21.828125 32.652344 21.789062 C 34.265625 20.980469 35.570312 20.140625 36.527344 19.308594 L 35.855469 18.636719 L 34.804688 18.617188 Z M 31.613281 21.800781 " fill-opacity="1" fill-rule="nonzero"/><path fill="#ffffff" d="M 30.703125 22.585938 L 31.484375 21.800781 L 32.652344 22.96875 L 30.792969 22.839844 C 30.710938 22.832031 30.65625 22.757812 30.664062 22.675781 C 30.664062 22.640625 30.675781 22.601562 30.703125 22.585938 Z M 30.703125 22.585938 " fill-opacity="1" fill-rule="nonzero"/><path fill="#ff6c37" d="M 32.652344 23.050781 L 30.785156 22.921875 C 30.648438 22.914062 30.554688 22.792969 30.566406 22.65625 C 30.574219 22.601562 30.59375 22.546875 30.636719 22.511719 L 31.421875 21.726562 C 31.457031 21.691406 31.511719 21.691406 31.550781 21.726562 L 32.71875 22.894531 C 32.746094 22.921875 32.753906 22.957031 32.734375 22.996094 C 32.71875 23.03125 32.691406 23.050781 32.652344 23.050781 Z M 31.484375 21.925781 L 30.765625 22.648438 C 30.738281 22.667969 30.738281 22.710938 30.765625 22.730469 C 30.773438 22.738281 30.785156 22.75 30.800781 22.75 L 32.414062 22.859375 Z M 31.484375 21.925781 " fill-opacity="1" fill-rule="nonzero"/><path fill="#ff6c37" d="M 34.429688 18.945312 C 34.375 18.945312 34.339844 18.898438 34.339844 18.855469 C 34.339844 18.828125 34.347656 18.808594 34.367188 18.789062 L 35.253906 17.90625 C 35.289062 17.871094 35.34375 17.871094 35.378906 17.90625 L 35.953125 18.480469 C 35.980469 18.507812 35.992188 18.535156 35.980469 18.570312 C 35.972656 18.597656 35.945312 18.625 35.910156 18.636719 L 34.449219 18.945312 C 34.441406 18.945312 34.429688 18.945312 34.429688 18.945312 Z M 35.316406 18.097656 L 34.714844 18.699219 L 35.699219 18.488281 Z M 35.316406 18.097656 " fill-opacity="1" fill-rule="nonzero"/><path fill="#ffffff" d="M 35.882812 18.542969 L 34.878906 18.761719 C 34.804688 18.78125 34.730469 18.734375 34.714844 18.664062 C 34.703125 18.617188 34.714844 18.570312 34.75 18.535156 L 35.308594 17.980469 Z M 35.882812 18.542969 " fill-opacity="1" fill-rule="nonzero"/><path fill="#ff6c37" d="M 34.859375 18.855469 C 34.730469 18.855469 34.632812 18.753906 34.632812 18.625 C 34.632812 18.5625 34.660156 18.507812 34.695312 18.460938 L 35.253906 17.90625 C 35.289062 17.871094 35.34375 17.871094 35.378906 17.90625 L 35.953125 18.480469 C 35.980469 18.507812 35.992188 18.535156 35.980469 18.570312 C 35.972656 18.597656 35.945312 18.625 35.910156 18.636719 L 34.90625 18.855469 C 34.886719 18.855469 34.871094 18.855469 34.859375 18.855469 Z M 35.316406 18.097656 L 34.824219 18.589844 C 34.804688 18.609375 34.804688 18.625 34.8125 18.644531 C 34.824219 18.664062 34.839844 18.671875 34.871094 18.671875 L 35.707031 18.488281 Z M 35.316406 18.097656 " fill-opacity="1" fill-rule="nonzero"/><path fill="#ff6c37" d="M 41.472656 13.125 C 41.453125 13.070312 41.390625 13.042969 41.335938 13.0625 C 41.28125 13.082031 41.253906 13.144531 41.269531 13.199219 C 41.269531 13.207031 41.28125 13.21875 41.28125 13.226562 C 41.335938 13.335938 41.316406 13.472656 41.242188 13.574219 C 41.207031 13.621094 41.214844 13.683594 41.253906 13.71875 C 41.296875 13.757812 41.363281 13.746094 41.398438 13.703125 C 41.535156 13.527344 41.5625 13.308594 41.472656 13.125 Z M 41.472656 13.125 " fill-opacity="1" fill-rule="nonzero"/></svg>