<svg xmlns="http://www.w3.org/2000/svg" xmlns:xlink="http://www.w3.org/1999/xlink" width="96" zoomAndPan="magnify" viewBox="0 0 72 36.000001" height="48" preserveAspectRatio="xMidYMid meet" version="1.0"><defs><clipPath id="062580211c"><path d="M 5 9 L 17 9 L 17 22 L 5 22 Z M 5 9 " clip-rule="nonzero"/></clipPath><clipPath id="38a66f1d64"><path d="M 12.792969 9.746094 C 12.148438 9.746094 11.53125 9.800781 10.988281 9.898438 C 9.386719 10.175781 9.097656 10.757812 9.097656 11.832031 L 9.097656 13.253906 L 12.878906 13.253906 L 12.878906 13.726562 L 7.675781 13.726562 C 6.578125 13.726562 5.617188 14.378906 5.316406 15.617188 C 4.96875 17.035156 4.949219 17.921875 5.316406 19.402344 C 5.585938 20.507812 6.226562 21.292969 7.324219 21.292969 L 8.625 21.292969 L 8.625 19.589844 C 8.625 18.359375 9.703125 17.273438 10.988281 17.273438 L 14.761719 17.273438 C 15.8125 17.273438 16.652344 16.421875 16.652344 15.382812 L 16.652344 11.835938 C 16.652344 10.828125 15.789062 10.070312 14.761719 9.898438 C 14.113281 9.792969 13.441406 9.746094 12.792969 9.746094 Z M 10.75 10.886719 C 11.140625 10.886719 11.457031 11.207031 11.457031 11.597656 C 11.457031 11.992188 11.140625 12.308594 10.75 12.308594 C 10.359375 12.308594 10.039062 11.988281 10.039062 11.597656 C 10.039062 11.207031 10.355469 10.886719 10.75 10.886719 Z M 10.75 10.886719 " clip-rule="nonzero"/></clipPath><linearGradient x1="9.859225" gradientTransform="matrix(0.407242, 0, 0, 0.401351, 0.977153, 5.294781)" y1="10.963716" x2="40.485014" gradientUnits="userSpaceOnUse" y2="37.566931" id="87a39ef343"><stop stop-opacity="1" stop-color="rgb(35.299683%, 62.399292%, 83.099365%)" offset="0"/><stop stop-opacity="1" stop-color="rgb(35.168457%, 62.229919%, 82.911682%)" offset="0.015625"/><stop stop-opacity="1" stop-color="rgb(34.944153%, 61.941528%, 82.592773%)" offset="0.0234375"/><stop stop-opacity="1" stop-color="rgb(34.757996%, 61.703491%, 82.327271%)" offset="0.03125"/><stop stop-opacity="1" stop-color="rgb(34.571838%, 61.463928%, 82.063293%)" offset="0.0390625"/><stop stop-opacity="1" stop-color="rgb(34.385681%, 61.225891%, 81.797791%)" offset="0.046875"/><stop stop-opacity="1" stop-color="rgb(34.199524%, 60.986328%, 81.533813%)" offset="0.0546875"/><stop stop-opacity="1" stop-color="rgb(34.013367%, 60.748291%, 81.268311%)" offset="0.0625"/><stop stop-opacity="1" stop-color="rgb(33.828735%, 60.508728%, 81.004333%)" offset="0.0703125"/><stop stop-opacity="1" stop-color="rgb(33.642578%, 60.270691%, 80.738831%)" offset="0.078125"/><stop stop-opacity="1" stop-color="rgb(33.456421%, 60.031128%, 80.474854%)" offset="0.0859375"/><stop stop-opacity="1" stop-color="rgb(33.270264%, 59.791565%, 80.209351%)" offset="0.09375"/><stop stop-opacity="1" stop-color="rgb(33.084106%, 59.553528%, 79.945374%)" offset="0.101562"/><stop stop-opacity="1" stop-color="rgb(32.897949%, 59.313965%, 79.679871%)" offset="0.109375"/><stop stop-opacity="1" stop-color="rgb(32.713318%, 59.075928%, 79.414368%)" offset="0.117188"/><stop stop-opacity="1" stop-color="rgb(32.527161%, 58.836365%, 79.150391%)" offset="0.125"/><stop stop-opacity="1" stop-color="rgb(32.341003%, 58.598328%, 78.884888%)" offset="0.132812"/><stop stop-opacity="1" stop-color="rgb(32.154846%, 58.358765%, 78.620911%)" offset="0.140625"/><stop stop-opacity="1" stop-color="rgb(31.968689%, 58.120728%, 78.355408%)" offset="0.148438"/><stop stop-opacity="1" stop-color="rgb(31.782532%, 57.881165%, 78.091431%)" offset="0.15625"/><stop stop-opacity="1" stop-color="rgb(31.596375%, 57.641602%, 77.825928%)" offset="0.164062"/><stop stop-opacity="1" stop-color="rgb(31.411743%, 57.403564%, 77.561951%)" offset="0.171875"/><stop stop-opacity="1" stop-color="rgb(31.225586%, 57.164001%, 77.296448%)" offset="0.179687"/><stop stop-opacity="1" stop-color="rgb(31.039429%, 56.925964%, 77.032471%)" offset="0.1875"/><stop stop-opacity="1" stop-color="rgb(30.853271%, 56.686401%, 76.766968%)" offset="0.195312"/><stop stop-opacity="1" stop-color="rgb(30.667114%, 56.448364%, 76.502991%)" offset="0.203125"/><stop stop-opacity="1" stop-color="rgb(30.480957%, 56.208801%, 76.237488%)" offset="0.210937"/><stop stop-opacity="1" stop-color="rgb(30.296326%, 55.970764%, 75.973511%)" offset="0.21875"/><stop stop-opacity="1" stop-color="rgb(30.110168%, 55.731201%, 75.708008%)" offset="0.226562"/><stop stop-opacity="1" stop-color="rgb(29.924011%, 55.491638%, 75.442505%)" offset="0.234375"/><stop stop-opacity="1" stop-color="rgb(29.737854%, 55.253601%, 75.178528%)" offset="0.242187"/><stop stop-opacity="1" stop-color="rgb(29.551697%, 55.014038%, 74.913025%)" offset="0.25"/><stop stop-opacity="1" stop-color="rgb(29.36554%, 54.776001%, 74.649048%)" offset="0.257812"/><stop stop-opacity="1" stop-color="rgb(29.179382%, 54.536438%, 74.383545%)" offset="0.265625"/><stop stop-opacity="1" stop-color="rgb(28.994751%, 54.298401%, 74.119568%)" offset="0.273437"/><stop stop-opacity="1" stop-color="rgb(28.808594%, 54.058838%, 73.854065%)" offset="0.28125"/><stop stop-opacity="1" stop-color="rgb(28.622437%, 53.820801%, 73.590088%)" offset="0.289062"/><stop stop-opacity="1" stop-color="rgb(28.436279%, 53.581238%, 73.324585%)" offset="0.296875"/><stop stop-opacity="1" stop-color="rgb(28.250122%, 53.343201%, 73.060608%)" offset="0.304688"/><stop stop-opacity="1" stop-color="rgb(28.063965%, 53.103638%, 72.795105%)" offset="0.3125"/><stop stop-opacity="1" stop-color="rgb(27.879333%, 52.864075%, 72.531128%)" offset="0.320312"/><stop stop-opacity="1" stop-color="rgb(27.693176%, 52.626038%, 72.265625%)" offset="0.328125"/><stop stop-opacity="1" stop-color="rgb(27.507019%, 52.386475%, 72.000122%)" offset="0.335937"/><stop stop-opacity="1" stop-color="rgb(27.320862%, 52.148438%, 71.736145%)" offset="0.34375"/><stop stop-opacity="1" stop-color="rgb(27.134705%, 51.908875%, 71.470642%)" offset="0.351563"/><stop stop-opacity="1" stop-color="rgb(26.948547%, 51.670837%, 71.206665%)" offset="0.359375"/><stop stop-opacity="1" stop-color="rgb(26.763916%, 51.431274%, 70.941162%)" offset="0.367188"/><stop stop-opacity="1" stop-color="rgb(26.577759%, 51.193237%, 70.677185%)" offset="0.375"/><stop stop-opacity="1" stop-color="rgb(26.391602%, 50.953674%, 70.411682%)" offset="0.382812"/><stop stop-opacity="1" stop-color="rgb(26.205444%, 50.714111%, 70.147705%)" offset="0.390625"/><stop stop-opacity="1" stop-color="rgb(26.019287%, 50.476074%, 69.882202%)" offset="0.398437"/><stop stop-opacity="1" stop-color="rgb(25.83313%, 50.236511%, 69.618225%)" offset="0.40625"/><stop stop-opacity="1" stop-color="rgb(25.646973%, 49.998474%, 69.352722%)" offset="0.414062"/><stop stop-opacity="1" stop-color="rgb(25.462341%, 49.758911%, 69.088745%)" offset="0.421875"/><stop stop-opacity="1" stop-color="rgb(25.276184%, 49.520874%, 68.823242%)" offset="0.429688"/><stop stop-opacity="1" stop-color="rgb(25.090027%, 49.281311%, 68.557739%)" offset="0.4375"/><stop stop-opacity="1" stop-color="rgb(24.90387%, 49.043274%, 68.293762%)" offset="0.445313"/><stop stop-opacity="1" stop-color="rgb(24.717712%, 48.803711%, 68.028259%)" offset="0.453125"/><stop stop-opacity="1" stop-color="rgb(24.531555%, 48.564148%, 67.764282%)" offset="0.460938"/><stop stop-opacity="1" stop-color="rgb(24.346924%, 48.326111%, 67.498779%)" offset="0.465132"/><stop stop-opacity="1" stop-color="rgb(24.253845%, 48.207092%, 67.367554%)" offset="0.46875"/><stop stop-opacity="1" stop-color="rgb(24.160767%, 48.086548%, 67.234802%)" offset="0.476563"/><stop stop-opacity="1" stop-color="rgb(23.974609%, 47.848511%, 66.969299%)" offset="0.484375"/><stop stop-opacity="1" stop-color="rgb(23.788452%, 47.608948%, 66.705322%)" offset="0.492188"/><stop stop-opacity="1" stop-color="rgb(23.602295%, 47.370911%, 66.439819%)" offset="0.5"/><stop stop-opacity="1" stop-color="rgb(23.416138%, 47.131348%, 66.175842%)" offset="0.507812"/><stop stop-opacity="1" stop-color="rgb(23.22998%, 46.893311%, 65.910339%)" offset="0.515625"/><stop stop-opacity="1" stop-color="rgb(23.045349%, 46.653748%, 65.646362%)" offset="0.523438"/><stop stop-opacity="1" stop-color="rgb(22.859192%, 46.414185%, 65.380859%)" offset="0.53125"/><stop stop-opacity="1" stop-color="rgb(22.673035%, 46.176147%, 65.115356%)" offset="0.534868"/><stop stop-opacity="1" stop-color="rgb(22.579956%, 46.057129%, 64.984131%)" offset="0.539062"/><stop stop-opacity="1" stop-color="rgb(22.486877%, 45.936584%, 64.851379%)" offset="0.546875"/><stop stop-opacity="1" stop-color="rgb(22.30072%, 45.698547%, 64.585876%)" offset="0.554688"/><stop stop-opacity="1" stop-color="rgb(22.114563%, 45.458984%, 64.321899%)" offset="0.5625"/><stop stop-opacity="1" stop-color="rgb(21.929932%, 45.220947%, 64.056396%)" offset="0.570312"/><stop stop-opacity="1" stop-color="rgb(21.743774%, 44.981384%, 63.792419%)" offset="0.578125"/><stop stop-opacity="1" stop-color="rgb(21.557617%, 44.743347%, 63.526917%)" offset="0.585938"/><stop stop-opacity="1" stop-color="rgb(21.37146%, 44.503784%, 63.262939%)" offset="0.59375"/><stop stop-opacity="1" stop-color="rgb(21.185303%, 44.264221%, 62.997437%)" offset="0.601562"/><stop stop-opacity="1" stop-color="rgb(20.999146%, 44.026184%, 62.733459%)" offset="0.609375"/><stop stop-opacity="1" stop-color="rgb(20.812988%, 43.786621%, 62.467957%)" offset="0.617188"/><stop stop-opacity="1" stop-color="rgb(20.628357%, 43.548584%, 62.203979%)" offset="0.625"/><stop stop-opacity="1" stop-color="rgb(20.4422%, 43.309021%, 61.938477%)" offset="0.632812"/><stop stop-opacity="1" stop-color="rgb(20.256042%, 43.070984%, 61.672974%)" offset="0.640625"/><stop stop-opacity="1" stop-color="rgb(20.069885%, 42.831421%, 61.408997%)" offset="0.648438"/><stop stop-opacity="1" stop-color="rgb(19.883728%, 42.593384%, 61.143494%)" offset="0.65625"/><stop stop-opacity="1" stop-color="rgb(19.697571%, 42.353821%, 60.879517%)" offset="0.664062"/><stop stop-opacity="1" stop-color="rgb(19.512939%, 42.115784%, 60.614014%)" offset="0.671875"/><stop stop-opacity="1" stop-color="rgb(19.326782%, 41.876221%, 60.350037%)" offset="0.679688"/><stop stop-opacity="1" stop-color="rgb(19.140625%, 41.636658%, 60.084534%)" offset="0.6875"/><stop stop-opacity="1" stop-color="rgb(18.922424%, 41.357422%, 59.776306%)" offset="0.75"/><stop stop-opacity="1" stop-color="rgb(18.798828%, 41.19873%, 59.599304%)" offset="1"/></linearGradient><clipPath id="0dea84cdde"><path d="M 9 13 L 21 13 L 21 26 L 9 26 Z M 9 13 " clip-rule="nonzero"/></clipPath><clipPath id="d0b24aff51"><path d="M 17.125 13.726562 L 17.125 15.382812 C 17.125 16.664062 16.027344 17.742188 14.761719 17.742188 L 10.988281 17.742188 C 9.953125 17.742188 9.097656 18.617188 9.097656 19.636719 L 9.097656 23.183594 C 9.097656 24.195312 9.988281 24.789062 10.988281 25.078125 C 12.183594 25.425781 13.332031 25.488281 14.761719 25.078125 C 15.714844 24.808594 16.652344 24.261719 16.652344 23.183594 L 16.652344 21.765625 L 12.875 21.765625 L 12.875 21.292969 L 18.542969 21.292969 C 19.640625 21.292969 20.050781 20.535156 20.433594 19.402344 C 20.828125 18.234375 20.8125 17.113281 20.433594 15.617188 C 20.164062 14.539062 19.644531 13.726562 18.542969 13.726562 Z M 15 22.710938 C 15.394531 22.710938 15.710938 23.027344 15.710938 23.417969 C 15.710938 23.808594 15.394531 24.132812 15 24.132812 C 14.609375 24.132812 14.292969 23.8125 14.292969 23.417969 C 14.292969 23.027344 14.609375 22.710938 15 22.710938 Z M 15 22.710938 " clip-rule="nonzero"/></clipPath><linearGradient x1="41.55427" gradientTransform="matrix(0.407242, 0, 0, 0.401351, 0.977153, 5.294781)" y1="55.348113" x2="18.312031" gradientUnits="userSpaceOnUse" y2="22.146225" id="9186ce6c24"><stop stop-opacity="1" stop-color="rgb(100%, 83.099365%, 23.098755%)" offset="0"/><stop stop-opacity="1" stop-color="rgb(100%, 83.099365%, 23.098755%)" offset="0.25"/><stop stop-opacity="1" stop-color="rgb(100%, 83.099365%, 23.098755%)" offset="0.3125"/><stop stop-opacity="1" stop-color="rgb(100%, 83.152771%, 23.248291%)" offset="0.320313"/><stop stop-opacity="1" stop-color="rgb(100%, 83.302307%, 23.661804%)" offset="0.324219"/><stop stop-opacity="1" stop-color="rgb(100%, 83.396912%, 23.925781%)" offset="0.328125"/><stop stop-opacity="1" stop-color="rgb(100%, 83.491516%, 24.189758%)" offset="0.332031"/><stop stop-opacity="1" stop-color="rgb(100%, 83.586121%, 24.453735%)" offset="0.335938"/><stop stop-opacity="1" stop-color="rgb(100%, 83.680725%, 24.716187%)" offset="0.339844"/><stop stop-opacity="1" stop-color="rgb(100%, 83.77533%, 24.980164%)" offset="0.34375"/><stop stop-opacity="1" stop-color="rgb(100%, 83.869934%, 25.242615%)" offset="0.347656"/><stop stop-opacity="1" stop-color="rgb(100%, 83.964539%, 25.506592%)" offset="0.351562"/><stop stop-opacity="1" stop-color="rgb(100%, 84.059143%, 25.770569%)" offset="0.355469"/><stop stop-opacity="1" stop-color="rgb(100%, 84.153748%, 26.034546%)" offset="0.359375"/><stop stop-opacity="1" stop-color="rgb(100%, 84.248352%, 26.296997%)" offset="0.363281"/><stop stop-opacity="1" stop-color="rgb(100%, 84.342957%, 26.560974%)" offset="0.367188"/><stop stop-opacity="1" stop-color="rgb(100%, 84.437561%, 26.823425%)" offset="0.371094"/><stop stop-opacity="1" stop-color="rgb(100%, 84.532166%, 27.087402%)" offset="0.375"/><stop stop-opacity="1" stop-color="rgb(100%, 84.62677%, 27.349854%)" offset="0.378906"/><stop stop-opacity="1" stop-color="rgb(100%, 84.721375%, 27.613831%)" offset="0.382813"/><stop stop-opacity="1" stop-color="rgb(100%, 84.815979%, 27.877808%)" offset="0.386719"/><stop stop-opacity="1" stop-color="rgb(100%, 84.910583%, 28.141785%)" offset="0.390625"/><stop stop-opacity="1" stop-color="rgb(100%, 85.005188%, 28.404236%)" offset="0.394531"/><stop stop-opacity="1" stop-color="rgb(100%, 85.099792%, 28.668213%)" offset="0.398438"/><stop stop-opacity="1" stop-color="rgb(100%, 85.194397%, 28.930664%)" offset="0.402344"/><stop stop-opacity="1" stop-color="rgb(100%, 85.289001%, 29.194641%)" offset="0.40625"/><stop stop-opacity="1" stop-color="rgb(100%, 85.38208%, 29.458618%)" offset="0.410156"/><stop stop-opacity="1" stop-color="rgb(100%, 85.476685%, 29.722595%)" offset="0.414063"/><stop stop-opacity="1" stop-color="rgb(100%, 85.571289%, 29.985046%)" offset="0.417969"/><stop stop-opacity="1" stop-color="rgb(100%, 85.665894%, 30.249023%)" offset="0.421875"/><stop stop-opacity="1" stop-color="rgb(100%, 85.760498%, 30.511475%)" offset="0.425781"/><stop stop-opacity="1" stop-color="rgb(100%, 85.855103%, 30.775452%)" offset="0.429688"/><stop stop-opacity="1" stop-color="rgb(100%, 85.949707%, 31.039429%)" offset="0.433594"/><stop stop-opacity="1" stop-color="rgb(100%, 86.044312%, 31.303406%)" offset="0.4375"/><stop stop-opacity="1" stop-color="rgb(100%, 86.138916%, 31.565857%)" offset="0.441406"/><stop stop-opacity="1" stop-color="rgb(100%, 86.233521%, 31.829834%)" offset="0.445313"/><stop stop-opacity="1" stop-color="rgb(100%, 86.328125%, 32.092285%)" offset="0.449219"/><stop stop-opacity="1" stop-color="rgb(100%, 86.422729%, 32.356262%)" offset="0.453125"/><stop stop-opacity="1" stop-color="rgb(100%, 86.517334%, 32.618713%)" offset="0.457031"/><stop stop-opacity="1" stop-color="rgb(100%, 86.611938%, 32.88269%)" offset="0.460938"/><stop stop-opacity="1" stop-color="rgb(100%, 86.706543%, 33.146667%)" offset="0.464844"/><stop stop-opacity="1" stop-color="rgb(100%, 86.801147%, 33.410645%)" offset="0.46875"/><stop stop-opacity="1" stop-color="rgb(100%, 86.895752%, 33.673096%)" offset="0.472656"/><stop stop-opacity="1" stop-color="rgb(100%, 86.990356%, 33.937073%)" offset="0.476562"/><stop stop-opacity="1" stop-color="rgb(100%, 87.084961%, 34.199524%)" offset="0.480469"/><stop stop-opacity="1" stop-color="rgb(100%, 87.179565%, 34.463501%)" offset="0.484375"/><stop stop-opacity="1" stop-color="rgb(100%, 87.27417%, 34.727478%)" offset="0.488281"/><stop stop-opacity="1" stop-color="rgb(100%, 87.368774%, 34.991455%)" offset="0.492188"/><stop stop-opacity="1" stop-color="rgb(100%, 87.463379%, 35.253906%)" offset="0.496094"/><stop stop-opacity="1" stop-color="rgb(100%, 87.557983%, 35.517883%)" offset="0.5"/><stop stop-opacity="1" stop-color="rgb(100%, 87.652588%, 35.780334%)" offset="0.503906"/><stop stop-opacity="1" stop-color="rgb(100%, 87.747192%, 36.044312%)" offset="0.507812"/><stop stop-opacity="1" stop-color="rgb(100%, 87.841797%, 36.306763%)" offset="0.511719"/><stop stop-opacity="1" stop-color="rgb(100%, 87.936401%, 36.57074%)" offset="0.515625"/><stop stop-opacity="1" stop-color="rgb(100%, 88.031006%, 36.834717%)" offset="0.519531"/><stop stop-opacity="1" stop-color="rgb(100%, 88.12561%, 37.098694%)" offset="0.523438"/><stop stop-opacity="1" stop-color="rgb(100%, 88.220215%, 37.361145%)" offset="0.527344"/><stop stop-opacity="1" stop-color="rgb(100%, 88.314819%, 37.625122%)" offset="0.53125"/><stop stop-opacity="1" stop-color="rgb(100%, 88.409424%, 37.887573%)" offset="0.535156"/><stop stop-opacity="1" stop-color="rgb(100%, 88.504028%, 38.15155%)" offset="0.539062"/><stop stop-opacity="1" stop-color="rgb(100%, 88.598633%, 38.415527%)" offset="0.542969"/><stop stop-opacity="1" stop-color="rgb(100%, 88.693237%, 38.679504%)" offset="0.546875"/><stop stop-opacity="1" stop-color="rgb(100%, 88.787842%, 38.941956%)" offset="0.550781"/><stop stop-opacity="1" stop-color="rgb(100%, 88.882446%, 39.205933%)" offset="0.554688"/><stop stop-opacity="1" stop-color="rgb(100%, 88.977051%, 39.468384%)" offset="0.558594"/><stop stop-opacity="1" stop-color="rgb(100%, 89.071655%, 39.732361%)" offset="0.5625"/><stop stop-opacity="1" stop-color="rgb(100%, 89.16626%, 39.996338%)" offset="0.566406"/><stop stop-opacity="1" stop-color="rgb(100%, 89.260864%, 40.260315%)" offset="0.570312"/><stop stop-opacity="1" stop-color="rgb(100%, 89.355469%, 40.522766%)" offset="0.574219"/><stop stop-opacity="1" stop-color="rgb(100%, 89.450073%, 40.786743%)" offset="0.578125"/><stop stop-opacity="1" stop-color="rgb(100%, 89.544678%, 41.049194%)" offset="0.582031"/><stop stop-opacity="1" stop-color="rgb(100%, 89.639282%, 41.313171%)" offset="0.585938"/><stop stop-opacity="1" stop-color="rgb(100%, 89.733887%, 41.575623%)" offset="0.589844"/><stop stop-opacity="1" stop-color="rgb(100%, 89.828491%, 41.8396%)" offset="0.59375"/><stop stop-opacity="1" stop-color="rgb(100%, 89.923096%, 42.103577%)" offset="0.597656"/><stop stop-opacity="1" stop-color="rgb(100%, 90.0177%, 42.367554%)" offset="0.601562"/><stop stop-opacity="1" stop-color="rgb(100%, 90.112305%, 42.630005%)" offset="0.605469"/><stop stop-opacity="1" stop-color="rgb(100%, 90.206909%, 42.893982%)" offset="0.609375"/><stop stop-opacity="1" stop-color="rgb(100%, 90.301514%, 43.156433%)" offset="0.613281"/><stop stop-opacity="1" stop-color="rgb(100%, 90.396118%, 43.42041%)" offset="0.617188"/><stop stop-opacity="1" stop-color="rgb(100%, 90.490723%, 43.684387%)" offset="0.621094"/><stop stop-opacity="1" stop-color="rgb(100%, 90.585327%, 43.948364%)" offset="0.625"/><stop stop-opacity="1" stop-color="rgb(100%, 90.679932%, 44.210815%)" offset="0.628906"/><stop stop-opacity="1" stop-color="rgb(100%, 90.774536%, 44.474792%)" offset="0.632812"/><stop stop-opacity="1" stop-color="rgb(100%, 90.869141%, 44.737244%)" offset="0.636719"/><stop stop-opacity="1" stop-color="rgb(100%, 90.963745%, 45.001221%)" offset="0.640625"/><stop stop-opacity="1" stop-color="rgb(100%, 90.98053%, 45.050049%)" offset="0.65625"/><stop stop-opacity="1" stop-color="rgb(100%, 90.99884%, 45.098877%)" offset="0.6875"/><stop stop-opacity="1" stop-color="rgb(100%, 90.99884%, 45.098877%)" offset="0.75"/><stop stop-opacity="1" stop-color="rgb(100%, 90.99884%, 45.098877%)" offset="1"/></linearGradient></defs><path fill="#646464" d="M 30.292969 17.460938 C 30.292969 15.4375 29.707031 14.398438 28.535156 14.34375 C 28.066406 14.320312 27.613281 14.394531 27.171875 14.5625 C 26.820312 14.683594 26.582031 14.8125 26.457031 14.933594 L 26.457031 19.765625 C 27.207031 20.230469 27.871094 20.449219 28.453125 20.410156 C 29.679688 20.328125 30.292969 19.347656 30.292969 17.460938 Z M 31.738281 17.542969 C 31.738281 18.570312 31.492188 19.421875 31.003906 20.101562 C 30.457031 20.871094 29.695312 21.265625 28.722656 21.289062 C 27.992188 21.308594 27.238281 21.085938 26.460938 20.609375 L 26.460938 25 L 25.203125 24.558594 L 25.203125 14.8125 C 25.410156 14.566406 25.675781 14.351562 25.996094 14.167969 C 26.746094 13.738281 27.652344 13.519531 28.722656 13.507812 L 28.738281 13.527344 C 29.71875 13.515625 30.472656 13.910156 31 14.710938 C 31.492188 15.445312 31.742188 16.390625 31.742188 17.542969 Z M 39.414062 20.425781 C 39.414062 21.804688 39.273438 22.757812 38.992188 23.289062 C 38.714844 23.820312 38.175781 24.246094 37.382812 24.5625 C 36.742188 24.808594 36.050781 24.945312 35.308594 24.96875 L 35.105469 24.1875 C 35.863281 24.085938 36.394531 23.984375 36.703125 23.882812 C 37.3125 23.679688 37.730469 23.371094 37.960938 22.953125 C 38.144531 22.613281 38.234375 21.964844 38.234375 21.003906 L 38.234375 20.679688 C 37.378906 21.066406 36.476562 21.257812 35.535156 21.257812 C 34.914062 21.257812 34.371094 21.066406 33.898438 20.679688 C 33.371094 20.261719 33.109375 19.730469 33.109375 19.085938 L 33.109375 13.9375 L 34.363281 13.511719 L 34.363281 18.699219 C 34.363281 19.253906 34.546875 19.679688 34.910156 19.984375 C 35.269531 20.285156 35.742188 20.425781 36.316406 20.414062 C 36.894531 20.402344 37.511719 20.183594 38.167969 19.753906 L 38.167969 13.699219 L 39.421875 13.699219 L 39.421875 20.425781 Z M 44.320312 21.222656 L 43.90625 21.242188 C 43.195312 21.242188 42.640625 21.074219 42.246094 20.738281 C 41.847656 20.402344 41.652344 19.941406 41.652344 19.351562 L 41.652344 14.476562 L 40.792969 14.476562 L 40.792969 13.699219 L 41.652344 13.699219 L 41.652344 11.632812 L 42.90625 11.191406 L 42.90625 13.699219 L 44.316406 13.699219 L 44.316406 14.476562 L 42.90625 14.476562 L 42.90625 19.320312 C 42.90625 19.785156 43.027344 20.113281 43.285156 20.304688 C 43.503906 20.464844 43.847656 20.554688 44.316406 20.578125 L 44.316406 21.222656 Z M 51.925781 21.121094 L 50.667969 21.121094 L 50.667969 16.34375 C 50.667969 15.855469 50.554688 15.4375 50.324219 15.089844 C 50.058594 14.691406 49.691406 14.496094 49.214844 14.496094 C 48.640625 14.496094 47.921875 14.792969 47.054688 15.394531 L 47.054688 21.121094 L 45.800781 21.121094 L 45.800781 9.699219 L 47.054688 9.308594 L 47.054688 14.511719 C 47.859375 13.933594 48.734375 13.648438 49.6875 13.648438 C 50.355469 13.648438 50.890625 13.867188 51.304688 14.308594 C 51.71875 14.75 51.925781 15.296875 51.925781 15.953125 Z M 58.601562 17.265625 C 58.601562 16.488281 58.453125 15.847656 58.152344 15.339844 C 57.800781 14.71875 57.25 14.394531 56.503906 14.359375 C 55.125 14.4375 54.4375 15.410156 54.4375 17.273438 C 54.4375 18.128906 54.582031 18.84375 54.871094 19.417969 C 55.238281 20.148438 55.789062 20.507812 56.527344 20.496094 C 57.910156 20.484375 58.601562 19.40625 58.601562 17.265625 Z M 59.976562 17.273438 C 59.976562 18.378906 59.691406 19.300781 59.117188 20.039062 C 58.484375 20.859375 57.609375 21.273438 56.503906 21.273438 C 55.398438 21.273438 54.542969 20.859375 53.921875 20.039062 C 53.359375 19.300781 53.078125 18.378906 53.078125 17.273438 C 53.078125 16.234375 53.382812 15.359375 53.988281 14.648438 C 54.632812 13.890625 55.476562 13.511719 56.515625 13.511719 C 57.554688 13.511719 58.40625 13.890625 59.0625 14.648438 C 59.667969 15.359375 59.972656 16.234375 59.972656 17.273438 Z M 67.179688 21.121094 L 65.921875 21.121094 L 65.921875 16.070312 C 65.921875 15.515625 65.753906 15.085938 65.414062 14.773438 C 65.078125 14.460938 64.628906 14.3125 64.066406 14.324219 C 63.46875 14.335938 62.898438 14.527344 62.363281 14.902344 L 62.363281 21.121094 L 61.105469 21.121094 L 61.105469 14.746094 C 61.828125 14.226562 62.492188 13.890625 63.101562 13.730469 C 63.675781 13.585938 64.179688 13.511719 64.617188 13.511719 C 64.914062 13.511719 65.195312 13.539062 65.460938 13.597656 C 65.953125 13.710938 66.355469 13.917969 66.664062 14.222656 C 67.007812 14.5625 67.179688 14.96875 67.179688 15.445312 Z M 67.179688 21.121094 " fill-opacity="1" fill-rule="nonzero"/><g clip-path="url(#062580211c)"><g clip-path="url(#38a66f1d64)"><path fill="url(#87a39ef343)" d="M 4.949219 9.746094 L 4.949219 21.292969 L 16.652344 21.292969 L 16.652344 9.746094 Z M 4.949219 9.746094 " fill-rule="nonzero"/></g></g><g clip-path="url(#0dea84cdde)"><g clip-path="url(#d0b24aff51)"><path fill="url(#9186ce6c24)" d="M 9.097656 13.726562 L 9.097656 25.488281 L 20.828125 25.488281 L 20.828125 13.726562 Z M 9.097656 13.726562 " fill-rule="nonzero"/></g></g></svg>