<svg xmlns="http://www.w3.org/2000/svg" xmlns:xlink="http://www.w3.org/1999/xlink" width="96" zoomAndPan="magnify" viewBox="0 0 72 36.000001" height="48" preserveAspectRatio="xMidYMid meet" version="1.0"><defs><clipPath id="596cd00df5"><path d="M 0.972656 7 L 33 7 L 33 28 L 0.972656 28 Z M 0.972656 7 " clip-rule="nonzero"/></clipPath></defs><path fill="#00d8ff" d="M 18.203125 17.496094 C 18.203125 17.765625 18.152344 18.023438 18.050781 18.269531 C 17.945312 18.519531 17.800781 18.738281 17.609375 18.929688 C 17.417969 19.121094 17.199219 19.265625 16.953125 19.371094 C 16.703125 19.472656 16.445312 19.523438 16.175781 19.523438 C 15.90625 19.523438 15.648438 19.472656 15.398438 19.371094 C 15.148438 19.265625 14.929688 19.121094 14.738281 18.929688 C 14.550781 18.738281 14.402344 18.519531 14.300781 18.269531 C 14.199219 18.023438 14.144531 17.765625 14.144531 17.496094 C 14.144531 17.226562 14.199219 16.96875 14.300781 16.71875 C 14.402344 16.46875 14.550781 16.25 14.738281 16.058594 C 14.929688 15.871094 15.148438 15.722656 15.398438 15.621094 C 15.648438 15.515625 15.90625 15.464844 16.175781 15.464844 C 16.445312 15.464844 16.703125 15.515625 16.953125 15.621094 C 17.199219 15.722656 17.417969 15.871094 17.609375 16.058594 C 17.800781 16.25 17.945312 16.46875 18.050781 16.71875 C 18.152344 16.96875 18.203125 17.226562 18.203125 17.496094 Z M 18.203125 17.496094 " fill-opacity="1" fill-rule="nonzero"/><g clip-path="url(#596cd00df5)"><path stroke-linecap="butt" transform="matrix(0.0404445, 0, 0, 0.0404445, 5.273939, 7.884195)" fill="none" stroke-linejoin="miter" d="M 269.550394 135.66474 C 336.868654 135.66474 399.454355 145.323027 446.683378 161.54895 C 503.474106 181.05869 538.437105 210.806214 538.437105 237.656252 C 538.437105 265.665284 501.349283 297.1513 440.308909 317.33712 C 394.23888 332.693797 333.488254 340.613592 269.550394 340.613592 C 203.970624 340.613592 141.867838 333.176711 95.218312 317.143954 C 36.206178 296.958134 0.663682 265.085787 0.663682 237.656252 C 0.663682 210.999379 33.984772 181.541604 90.002837 162.031864 C 137.425026 145.516193 201.45947 135.66474 269.550394 135.66474 Z M 269.550394 135.66474 " stroke="#00d8ff" stroke-width="24" stroke-opacity="1" stroke-miterlimit="4"/></g><path stroke-linecap="butt" transform="matrix(0.0404445, 0, 0, 0.0404445, 5.273939, 7.884195)" fill="none" stroke-linejoin="miter" d="M 180.694152 186.950245 C 214.401574 128.614191 254.000551 79.163761 291.667871 46.422168 C 336.965237 7.016357 380.13778 -8.436903 403.414252 4.891533 C 427.656553 18.89605 436.445594 66.704571 423.503489 129.773185 C 413.652037 177.38854 390.278982 233.986103 358.310052 289.328088 C 325.568458 346.118816 288.094305 396.148743 250.909899 428.600587 C 203.970624 469.648307 158.576675 484.522069 134.720706 470.807302 C 111.6374 457.478865 102.848359 413.919991 113.955389 355.583937 C 123.323927 306.326673 146.793565 245.865796 180.694152 186.950245 Z M 180.694152 186.950245 " stroke="#00d8ff" stroke-width="24" stroke-opacity="1" stroke-miterlimit="4"/><path stroke-linecap="butt" transform="matrix(0.0404445, 0, 0, 0.0404445, 5.273939, 7.884195)" fill="none" stroke-linejoin="miter" d="M 180.790735 289.521253 C 147.083313 231.185199 124.09659 172.173065 114.534886 123.20555 C 102.944942 64.193416 111.154486 19.089215 134.334375 5.664196 C 158.576675 -8.34032 204.453539 7.885602 252.551808 50.575231 C 288.866968 82.83391 326.244539 131.415094 358.213469 186.757079 C 391.051645 243.547807 415.680277 301.014615 425.241981 349.402633 C 437.411423 410.53959 427.55997 457.382283 403.800584 471.09705 C 380.717278 484.425486 338.607146 470.324387 293.599528 431.594656 C 255.545877 398.853063 214.884489 348.340222 180.790735 289.521253 Z M 180.790735 289.521253 " stroke="#00d8ff" stroke-width="24" stroke-opacity="1" stroke-miterlimit="4"/><path fill="#00d8ff" d="M 38.695312 22.679688 L 36.210938 18.921875 C 37.46875 18.8125 38.597656 17.898438 38.597656 16.234375 C 38.597656 14.542969 37.398438 13.460938 35.710938 13.460938 L 32.011719 13.460938 L 32.011719 22.671875 L 33.15625 22.671875 L 33.15625 19.011719 L 34.996094 19.011719 L 37.34375 22.671875 Z M 35.574219 18.011719 L 33.160156 18.011719 L 33.160156 14.488281 L 35.574219 14.488281 C 36.667969 14.488281 37.414062 15.207031 37.414062 16.242188 C 37.414062 17.277344 36.667969 18.011719 35.574219 18.011719 Z M 42.964844 22.84375 C 44.058594 22.84375 44.953125 22.484375 45.617188 21.824219 L 45.121094 21.144531 C 44.59375 21.683594 43.820312 21.988281 43.0625 21.988281 C 41.625 21.988281 40.742188 20.9375 40.660156 19.683594 L 46.058594 19.683594 L 46.058594 19.417969 C 46.058594 17.417969 44.871094 15.839844 42.855469 15.839844 C 40.949219 15.839844 39.566406 17.402344 39.566406 19.335938 C 39.566406 21.421875 40.988281 22.839844 42.964844 22.839844 Z M 45.039062 18.921875 L 40.660156 18.921875 C 40.714844 17.898438 41.417969 16.695312 42.839844 16.695312 C 44.359375 16.695312 45.023438 17.925781 45.039062 18.921875 Z M 52.9375 22.679688 L 52.9375 18.09375 C 52.9375 16.476562 51.765625 15.839844 50.355469 15.839844 C 49.265625 15.839844 48.410156 16.199219 47.691406 16.945312 L 48.171875 17.664062 C 48.765625 17.027344 49.417969 16.738281 50.21875 16.738281 C 51.183594 16.738281 51.902344 17.25 51.902344 18.148438 L 51.902344 19.347656 C 51.363281 18.726562 50.605469 18.4375 49.691406 18.4375 C 48.5625 18.4375 47.359375 19.140625 47.359375 20.632812 C 47.359375 22.082031 48.558594 22.84375 49.691406 22.84375 C 50.589844 22.84375 51.351562 22.527344 51.902344 21.917969 L 51.902344 22.675781 Z M 50.066406 22.097656 C 49.097656 22.097656 48.421875 21.492188 48.421875 20.648438 C 48.421875 19.792969 49.097656 19.183594 50.066406 19.183594 C 50.796875 19.183594 51.503906 19.460938 51.902344 20.011719 L 51.902344 21.269531 C 51.503906 21.820312 50.796875 22.097656 50.066406 22.097656 Z M 57.949219 22.84375 C 59.164062 22.84375 59.878906 22.347656 60.390625 21.683594 L 59.703125 21.050781 C 59.257812 21.644531 58.695312 21.917969 58.007812 21.917969 C 56.585938 21.917969 55.703125 20.8125 55.703125 19.335938 C 55.703125 17.859375 56.585938 16.765625 58.007812 16.765625 C 58.699219 16.765625 59.265625 17.03125 59.703125 17.636719 L 60.390625 17.003906 C 59.882812 16.339844 59.164062 15.84375 57.949219 15.84375 C 55.957031 15.84375 54.617188 17.363281 54.617188 19.335938 C 54.617188 21.324219 55.957031 22.839844 57.949219 22.839844 Z M 63.527344 22.84375 C 64.136719 22.84375 64.507812 22.664062 64.773438 22.417969 L 64.46875 21.644531 C 64.328125 21.792969 64.058594 21.917969 63.761719 21.917969 C 63.308594 21.917969 63.085938 21.558594 63.085938 21.0625 L 63.085938 16.917969 L 64.441406 16.917969 L 64.441406 16.007812 L 63.085938 16.007812 L 63.085938 14.183594 L 62.050781 14.183594 L 62.050781 16.007812 L 60.945312 16.007812 L 60.945312 16.917969 L 62.050781 16.917969 L 62.050781 21.285156 C 62.050781 22.277344 62.546875 22.84375 63.527344 22.84375 Z M 63.527344 22.84375 " fill-opacity="1" fill-rule="evenodd"/></svg>