<svg xmlns="http://www.w3.org/2000/svg" xmlns:xlink="http://www.w3.org/1999/xlink" width="96" zoomAndPan="magnify" viewBox="0 0 72 36.000001" height="48" preserveAspectRatio="xMidYMid meet" version="1.0"><path fill="#68bd45" d="M 23.839844 7.742188 C 23.53125 8.480469 23.144531 9.167969 22.671875 9.8125 C 19.882812 7.023438 15.8125 5.953125 12.011719 7.011719 C 8.210938 8.070312 5.269531 11.070312 4.308594 14.898438 C 3.351562 18.722656 4.527344 22.765625 7.382812 25.488281 L 7.789062 25.84375 C 8.558594 26.496094 9.40625 27.027344 10.324219 27.445312 C 11.246094 27.863281 12.203125 28.144531 13.203125 28.296875 C 14.199219 28.445312 15.199219 28.460938 16.203125 28.332031 C 17.203125 28.207031 18.167969 27.949219 19.097656 27.554688 C 20.027344 27.164062 20.886719 26.652344 21.675781 26.019531 C 22.464844 25.390625 23.152344 24.664062 23.738281 23.84375 C 24.328125 23.023438 24.792969 22.136719 25.136719 21.1875 C 25.476562 20.238281 25.683594 19.261719 25.757812 18.253906 C 26.054688 15.464844 25.238281 11.9375 23.839844 7.746094 Z M 8.941406 25.550781 C 8.703125 25.84375 8.308594 25.964844 7.945312 25.859375 C 7.582031 25.753906 7.320312 25.4375 7.28125 25.058594 C 7.242188 24.683594 7.433594 24.320312 7.765625 24.140625 C 8.097656 23.957031 8.507812 23.996094 8.800781 24.234375 C 9.203125 24.558594 9.265625 25.148438 8.9375 25.550781 Z M 23.792969 22.273438 C 21.09375 25.871094 15.324219 24.65625 11.625 24.832031 C 11.625 24.832031 10.96875 24.871094 10.308594 24.976562 C 10.308594 24.976562 10.554688 24.871094 10.875 24.753906 C 13.472656 23.847656 14.699219 23.675781 16.277344 22.863281 C 19.25 21.351562 22.1875 18.042969 22.800781 14.605469 C 21.667969 17.914062 18.238281 20.757812 15.113281 21.914062 C 12.972656 22.703125 9.101562 23.46875 9.101562 23.46875 L 8.949219 23.386719 C 6.316406 22.109375 6.234375 16.40625 11.015625 14.570312 C 13.117188 13.761719 15.113281 14.207031 17.378906 13.664062 C 19.796875 13.089844 22.589844 11.277344 23.730469 8.917969 C 25.003906 12.695312 26.535156 18.609375 23.785156 22.273438 Z M 23.792969 22.273438 " fill-opacity="1" fill-rule="nonzero"/><path fill="#68bd45" d="M 28.09375 21.078125 C 27.855469 20.933594 27.742188 20.722656 27.753906 20.445312 C 27.753906 20.238281 27.824219 20.0625 27.96875 19.917969 C 28.113281 19.773438 28.289062 19.703125 28.496094 19.703125 C 28.636719 19.707031 28.765625 19.738281 28.886719 19.808594 C 29.578125 20.296875 30.34375 20.554688 31.1875 20.582031 C 31.972656 20.582031 32.425781 20.242188 32.425781 19.714844 L 32.425781 19.683594 C 32.425781 19.066406 31.578125 18.851562 30.640625 18.566406 C 29.464844 18.226562 28.148438 17.75 28.148438 16.222656 L 28.148438 16.191406 C 28.148438 14.679688 29.402344 13.761719 30.988281 13.761719 C 31.875 13.777344 32.707031 13.996094 33.484375 14.414062 C 33.773438 14.554688 33.921875 14.785156 33.921875 15.109375 C 33.925781 15.316406 33.851562 15.496094 33.703125 15.640625 C 33.554688 15.785156 33.375 15.855469 33.167969 15.851562 C 33.039062 15.855469 32.917969 15.824219 32.804688 15.761719 C 32.15625 15.421875 31.492188 15.214844 30.9375 15.214844 C 30.230469 15.214844 29.820312 15.554688 29.820312 16 L 29.820312 16.03125 C 29.820312 16.621094 30.683594 16.863281 31.617188 17.164062 C 32.785156 17.53125 34.097656 18.058594 34.097656 19.492188 L 34.097656 19.523438 C 34.097656 21.199219 32.796875 22.03125 31.136719 22.03125 C 30.023438 22.023438 29.011719 21.707031 28.09375 21.078125 Z M 34.789062 14.6875 C 34.785156 14.566406 34.804688 14.449219 34.851562 14.335938 C 34.894531 14.222656 34.960938 14.121094 35.046875 14.035156 C 35.132812 13.949219 35.230469 13.882812 35.34375 13.835938 C 35.453125 13.789062 35.570312 13.765625 35.691406 13.765625 C 35.949219 13.761719 36.164062 13.851562 36.347656 14.03125 C 36.527344 14.214844 36.617188 14.429688 36.613281 14.6875 L 36.613281 15.238281 C 37.203125 14.40625 38.035156 13.742188 39.332031 13.742188 C 41.199219 13.742188 43.03125 15.222656 43.03125 17.882812 L 43.03125 17.914062 C 43.03125 20.558594 41.21875 22.054688 39.332031 22.054688 C 37.996094 22.054688 37.164062 21.390625 36.613281 20.648438 L 36.613281 23.46875 C 36.613281 23.71875 36.523438 23.9375 36.347656 24.113281 C 36.167969 24.292969 35.953125 24.382812 35.699219 24.382812 C 35.445312 24.382812 35.230469 24.292969 35.050781 24.113281 C 34.875 23.9375 34.785156 23.71875 34.785156 23.46875 Z M 41.183594 17.910156 L 41.183594 17.882812 C 41.183594 16.339844 40.136719 15.335938 38.898438 15.335938 C 37.660156 15.335938 36.570312 16.367188 36.570312 17.882812 L 36.570312 17.910156 C 36.570312 19.4375 37.660156 20.457031 38.898438 20.457031 C 40.136719 20.457031 41.183594 19.484375 41.183594 17.90625 Z M 43.734375 14.6875 C 43.730469 14.566406 43.75 14.449219 43.796875 14.335938 C 43.839844 14.222656 43.90625 14.121094 43.992188 14.035156 C 44.078125 13.949219 44.175781 13.882812 44.289062 13.835938 C 44.402344 13.789062 44.519531 13.765625 44.640625 13.765625 C 44.894531 13.765625 45.113281 13.851562 45.292969 14.035156 C 45.472656 14.214844 45.5625 14.433594 45.5625 14.6875 L 45.5625 15.128906 C 45.652344 14.449219 46.769531 13.769531 47.570312 13.769531 C 47.695312 13.761719 47.8125 13.777344 47.929688 13.820312 C 48.042969 13.863281 48.144531 13.929688 48.230469 14.015625 C 48.316406 14.101562 48.382812 14.203125 48.425781 14.320312 C 48.46875 14.433594 48.484375 14.554688 48.476562 14.675781 C 48.484375 14.894531 48.417969 15.085938 48.28125 15.25 C 48.144531 15.417969 47.96875 15.519531 47.753906 15.554688 C 46.453125 15.777344 45.5625 16.910156 45.5625 18.492188 L 45.5625 21.121094 C 45.558594 21.375 45.46875 21.589844 45.289062 21.769531 C 45.109375 21.945312 44.890625 22.03125 44.640625 22.027344 C 44.386719 22.03125 44.175781 21.941406 43.996094 21.765625 C 43.820312 21.589844 43.730469 21.375 43.734375 21.121094 Z M 49.167969 14.691406 C 49.164062 14.4375 49.25 14.222656 49.429688 14.039062 C 49.605469 13.859375 49.824219 13.769531 50.078125 13.769531 C 50.332031 13.769531 50.550781 13.859375 50.730469 14.039062 C 50.910156 14.21875 51 14.4375 51 14.691406 L 51 21.128906 C 50.988281 21.375 50.894531 21.582031 50.71875 21.753906 C 50.542969 21.921875 50.328125 22.007812 50.085938 22.007812 C 49.839844 22.007812 49.625 21.921875 49.449219 21.753906 C 49.273438 21.582031 49.179688 21.375 49.167969 21.128906 Z M 51.921875 14.695312 C 51.917969 14.574219 51.941406 14.457031 51.984375 14.34375 C 52.03125 14.230469 52.09375 14.128906 52.179688 14.042969 C 52.265625 13.957031 52.363281 13.890625 52.476562 13.84375 C 52.589844 13.796875 52.707031 13.773438 52.828125 13.773438 C 53.082031 13.773438 53.300781 13.863281 53.480469 14.042969 C 53.660156 14.222656 53.75 14.441406 53.75 14.695312 L 53.75 15.070312 C 54.019531 14.648438 54.378906 14.320312 54.824219 14.089844 C 55.269531 13.855469 55.742188 13.75 56.242188 13.769531 C 58.042969 13.769531 59.085938 14.980469 59.085938 16.824219 L 59.085938 21.125 C 59.085938 21.246094 59.066406 21.359375 59.019531 21.472656 C 58.976562 21.585938 58.910156 21.683594 58.824219 21.769531 C 58.738281 21.855469 58.640625 21.921875 58.527344 21.964844 C 58.417969 22.011719 58.300781 22.03125 58.179688 22.03125 C 58.058594 22.035156 57.9375 22.011719 57.824219 21.96875 C 57.710938 21.921875 57.609375 21.859375 57.523438 21.773438 C 57.4375 21.6875 57.367188 21.589844 57.320312 21.476562 C 57.273438 21.363281 57.25 21.246094 57.25 21.125 L 57.25 17.386719 C 57.25 16.148438 56.632812 15.4375 55.542969 15.4375 C 54.484375 15.4375 53.746094 16.179688 53.746094 17.417969 L 53.746094 21.121094 C 53.734375 21.367188 53.640625 21.578125 53.464844 21.746094 C 53.289062 21.917969 53.078125 22.003906 52.832031 22.003906 C 52.585938 22.003906 52.375 21.917969 52.195312 21.746094 C 52.019531 21.578125 51.925781 21.367188 51.917969 21.121094 Z M 67.125 13.75 C 66.871094 13.746094 66.652344 13.835938 66.472656 14.019531 C 66.289062 14.199219 66.203125 14.417969 66.203125 14.671875 L 66.203125 15.214844 C 65.613281 14.382812 64.78125 13.714844 63.488281 13.714844 C 61.621094 13.714844 59.78125 15.195312 59.78125 17.855469 L 59.78125 17.886719 C 59.777344 20.53125 61.59375 22.027344 63.480469 22.027344 C 64.804688 22.027344 65.632812 21.371094 66.199219 20.632812 C 66.105469 22.070312 65.226562 22.828125 63.683594 22.828125 C 62.808594 22.839844 61.988281 22.628906 61.226562 22.195312 C 61.125 22.144531 61.011719 22.121094 60.898438 22.121094 C 60.6875 22.121094 60.507812 22.195312 60.359375 22.339844 C 60.207031 22.488281 60.128906 22.664062 60.125 22.875 C 60.121094 23.039062 60.167969 23.1875 60.261719 23.320312 C 60.355469 23.457031 60.480469 23.550781 60.632812 23.601562 C 61.605469 24.082031 62.632812 24.320312 63.714844 24.3125 C 65.152344 24.3125 66.269531 23.972656 66.996094 23.242188 C 67.660156 22.574219 68.015625 21.574219 68.015625 20.234375 L 68.015625 14.667969 C 68.019531 14.417969 67.9375 14.203125 67.761719 14.019531 C 67.585938 13.839844 67.375 13.75 67.125 13.746094 Z M 63.917969 20.445312 C 62.664062 20.445312 61.636719 19.464844 61.636719 17.890625 L 61.636719 17.859375 C 61.636719 16.320312 62.679688 15.316406 63.917969 15.316406 C 65.160156 15.316406 66.246094 16.335938 66.246094 17.859375 L 66.246094 17.890625 C 66.246094 19.417969 65.160156 20.445312 63.917969 20.445312 Z M 63.917969 20.445312 " fill-opacity="1" fill-rule="nonzero"/><path fill="#68bd45" d="M 51.007812 11.566406 C 51.007812 11.820312 50.917969 12.039062 50.738281 12.21875 C 50.558594 12.398438 50.339844 12.488281 50.085938 12.488281 C 49.832031 12.488281 49.613281 12.398438 49.433594 12.21875 C 49.253906 12.039062 49.164062 11.820312 49.164062 11.566406 C 49.164062 11.3125 49.253906 11.09375 49.433594 10.914062 C 49.613281 10.734375 49.832031 10.644531 50.085938 10.644531 C 50.339844 10.644531 50.558594 10.734375 50.738281 10.914062 C 50.917969 11.09375 51.007812 11.3125 51.007812 11.566406 Z M 51.007812 11.566406 " fill-opacity="1" fill-rule="nonzero"/></svg>